<svg xmlns="http://www.w3.org/2000/svg" viewBox="0 0 1364 960">
  <path fill="#fde2b9" d="M1034.1,726.87l2.28,27.73c-166.21-9.34-262.28-8.29-524.56-16.23,20.62-11.07,35.77-20.58,35.77-20.58,27.21-1.24,213,2.2,250.41,1.82S1029.51,726.91,1034.1,726.87Z"/>
  <path fill="#d9e4f2" d="M1124.85,788.09c0,2.75.05,5.5.08,8.25q-53.76.75-107.54.65t-107.53-1.07q-53.76-1-107.49-2.81T695,788.59c-35.79-1.8-71.5-1.13-107.25-3.5-1.86-.13-11.41-1.17-9.6-2.37,5.17-3.42,6.68-4.49,8.38-4.51,8.93-.08,260.7,5.82,296.54,6.12s71.91.72,107.86,1.25S1116,787.89,1124.85,788.09Z"/>
  <path fill="#fde2b9" d="M597.29,820.61c145.7,1.5,314.9,4.32,460.59,5.82,0,0,10.13,21.15,11.68,27.18-198.68-3.38-351-8.57-460.26-10.79Z"/>
  <path fill="#fde2b9" d="M1163.93,419.79l2.13,27.71c-121.91-7.33-192.27-5.1-384.53-9.85,11.8-5.51,48.46-21.09,48.46-21.09,19.91-1.58,133.47-.31,160.86-1.15S1160.56,419.89,1163.93,419.79Z"/>
  <path fill="#d9e4f2" d="M1224.3,460.64l.06,8.25q-47,.76-94,.65t-94-1.07q-47-1-94-2.8t-93.93-4.53c-31.3-1.8-62.53-1.13-93.79-3.5-1.63-.12-10-1.16-8.39-2.36,4.51-3.43,5.84-4.5,7.32-4.51,7.81-.08,228,5.82,259.32,6.12s62.89.71,94.33,1.24S1216.59,460.44,1224.3,460.64Z"/>
  <path fill="#d9e4f2" d="M999.6,514.83l2.71,27c-146.92-1.63-219.18,0-422.41-6.35,12.9-3.45,30.82-13.09,37.13-15.71s13.15-1,21.38-1.6c27.25-1.9,55.07-.74,82.4-1l89.18-.74,89.17-.75,89.5-.75Z"/>
  <path fill="#fde2b9" d="M1063.67,571c0,2.75,0,17.87.06,20.62-85.6,0-526.07-11.7-526.07-11.7,4.59-6.28,14.82-18.79,15.36-18.79,8.47,0,247.28,5.82,281.27,6.12s68.21.71,102.32,1.24S1055.31,570.84,1063.67,571Z"/>
  <path fill="#d9e4f2" d="M516.19,629.78c114.83,1.5,248.2,4.32,363,5.82,0,0,8,21.15,9.21,27.18-156.6-3.38-276.67-8.57-362.77-10.79Z"/>
  <path fill="#d9e4f2" d="M1140.67,214.21c1.2,12.25,2.41,30.74,3.61,43-195.22-2.23-274.69-1.14-544.72-9.81,23.44-17.3,30.48-23,30.48-23,45.18-12.28,93.81-5.27,140.2-7Z"/>
  <path fill="#fde2b9" d="M1298.47,257.6c0,3.75,0,24.37.08,28.12-113.74,0-699-16-699-16,6.09-8.56,19.68-25.63,20.4-25.63,11.26,0,328.56,7.94,373.74,8.35s90.63,1,135.94,1.7S1287.36,257.33,1298.47,257.6Z"/>
  <path fill="#d9e4f2" d="M713.61,308.73c152.58,2,329.78,5.89,482.36,7.94,0,0,6.08,18.64,12.23,37.07-208.08-4.6-367.61-11.68-482-14.71Z"/>
  <circle cx="408.33" cy="480" r="342.87" fill="#fde2b9"/>
  <path fill="#f2736d" d="M367,421.67s5.85-3,31.73-4.45,32.84,0,32.84,0,4.64,26,13.09,77.9,6.21,63.15,6.21,63.15H355.12s-.33-69.37,0-96.32S367,421.67,367,421.67Z"/>
  <path fill="#01112a" d="M192,380.65s14.08-2.15,54,18.56c21.33,11.07,23.62,18.5,21.87,22.46s-22.63.81-35.81-4.76S192.45,385.12,192,380.65Z"/>
  <path fill="#f2736d" d="M248.17,428.77l22.62-53.45L225.27,348s-9.06,28.25-26.51,67.11C198.76,415.12,239.36,426.85,248.17,428.77Z"/>
  <path fill="#01112a" d="M606.43,733.42s6.4,12.17,14.55,41.64,9.85,114.4,6.62,116.56-48.28-41.12-43.53-104.81C586.41,755.49,593.25,735.82,606.43,733.42Z"/>
  <path fill="#374aaa" d="M774.52,473.6c-16.9-23.85-45.8-12.55-51.9-8.33C629.93,529,565.74,556.1,565.74,556.1L479.93,658.68s12,3.92,68.59-6.3C607,641.83,766.73,526.49,766.73,526.49S796.43,504.54,774.52,473.6Z"/>
  <path fill="#f2736d" d="M855.15,375.57l67.61-85.49,56.6,92.78a583.32,583.32,0,0,1-83.12,59.61Z"/>
  <path fill="#374aaa" d="M973.12,443.35c-30.78-21-112.44-100.86-112.44-100.86s-27.58,29.63-56.34,55.43c-26.43,23.7-69.74,58.06-76.58,63.47-10.25,6.82-27.71,24.34-12.23,52.81,13,24,45.85,14.83,45.85,14.83C890.1,488.67,973.12,443.35,973.12,443.35Z"/>
  <path fill="#f2736d" d="M979.36,382.86s69-11.06,82.72-36.88-8.43-54.8-11.06-86.94-3.69-50.05,5.26-92.21,13.7-98.52-14.22-98.52-37.94,49.52-66.92,94.31S920.35,265.89,915.6,303.3Z"/>
  <path fill="#374aaa" d="M607,568.44,476,666.1s-40.25,50.2-67.41,84.12c-11.08,13.84-16.72,21.12-19.36,24.6-5.15,6-17.25,32.44,2.91,47.22,28.94,21.21,49.41-1.88,49.41-1.88s60.61-70.58,92.25-94C612,668.24,607,568.44,607,568.44Z"/>
  <path fill="#f2736d" d="M575.81,753.62l100.29,1.79,39.25,111.28s-98.7-4.37-161.33-15.63C554,851.06,567.78,767.64,575.81,753.62Z"/>
  <path fill="#374aaa" d="M597.75,794.11c.45-28.48,8.68-60.69,8.68-60.69l-199.72,39s-25.09,3.81-25.82,30.57c-.62,22.55,21.64,29.5,21.64,29.5s56.06,19.23,109.41,30.83c51.49,11.19,115.66,28.3,115.66,28.3S596.77,855.37,597.75,794.11Z"/>
  <path fill="#f2736d" d="M674.25,754.94s14.22-42.15,55.32-52.69,72.71,58,110.12,73.24,52.69,7.38,90.1,34.78S978.26,863,978.26,875.6s-5.79,19.5-44.52,14.23-181.47-26.47-218.39-23.14Z"/>
  <path fill="#fff" d="M593.31,396c-6.73-32.41-33.65-22.31-34.3-22l-99.13,40,5.47,45.17,110.85-40C576.84,419,596.79,412.8,593.31,396Z"/>
  <polygon fill="#f2736d" points="649.48 338.46 690.62 316.11 708.47 367.84 662.24 387.06 649.48 338.46"/>
  <path fill="#fff" d="M660.2,316.11,559.9,374c-8.25,4.09-15.1,12.64-13.93,22.4,3.44,28.82,27.58,24.89,28.82,24.7,0,0,34.09-3.95,53.07-5.85,45.62-4.58,66.8-5.38,66.8-5.38A956.67,956.67,0,0,0,660.2,316.11Z"/>
  <path fill="#fff" d="M317.78,442.47,194.23,458.72c-14.26,1.37-25.65,13.39-25.42,28,.37,23.56,21.38,27.33,21.38,27.33s8,3.11,44.59,3.45c50,.46,100.78-24.2,100.78-24.2Z"/>
  <path fill="#fff" d="M267.85,421.67a330.36,330.36,0,0,1-34.54-9.9C215.77,405.6,192,380.65,192,380.65L169.55,481c-.79,2.48-5.42,30.78,24.76,33.85,9.08.93,17.13-4.71,21.77-11.81Z"/>
  <path fill="#fff" d="M594.06,540.27s-25.78,88.43-72.74,138.05-91.09,39.77-91.09,39.77,25.42-43.61,29.25-64.7c0,0-20.57-3.67-58.25-30.42l-.36-.24q-9.81-7-21.1-16.14c-5.61-4.56-11.46-9.52-17.59-15C299.89,536,262.62,485.29,262.62,485.29s26.22-32,37-37.76c10-5.33,39.21-7.79,51.19-13.07a17.63,17.63,0,0,0,2.47-1.3c9.84-6.25,13.67-11.49,13.67-11.49s1,25.61,24.45,61.8c0-.12,0-.2.08-.32.89-3.43,8.63-31.71,33.6-65.92,0,0,5-.48,19.53-1.77,6-.57,13.63-1.21,23.23-2.06,0,0,33.81,56.92,41,90s9.56,44.09,16.3,47.92S543.71,556.08,594.06,540.27Z"/>
  <path fill="#01112a" d="M391.43,483.47l-2.63,34c-23.76-36.67-38-83.06-38-83.06a17.63,17.63,0,0,0,2.47-1.3c9.84-6.25,13.67-11.49,13.67-11.49S368,447.28,391.43,483.47Z"/>
  <path fill="#01112a" d="M413.57,474.15C401,506.87,395.66,565.81,401.23,623l-.36-.24c-2.42-1.5-13.33-8.09-19-14.42,0,0-5.07-56.91,9.54-124.84,0-.12,0-.2.08-.32.89-3.43,8.63-31.71,33.6-65.92,0,0,5-.48,19.53-1.77A298.61,298.61,0,0,0,413.57,474.15Z"/>
  <path fill="#a11f1f" d="M521.83,548.4s-3.38,11.67-17.6,32c-14.1,20.2-26.14,27.15-34.33,31.65s-47.49,18-53.91,20.78c0,0,10.34,6.72,15.36,9,0,0,37.57-10.88,57.14-20.07,17.13-7.85,35.66-38.43,45.28-68.13A17.82,17.82,0,0,1,521.83,548.4Z"/>
  <path fill="#a11f1f" d="M462.54,611.94s-5.34-1.59-13.37,3.87-9.39,19.77-.95,27.17,27.84.5,28.95-14.79S462.54,611.94,462.54,611.94Z"/>
  <path fill="#a11f1f" d="M444.74,623s-2.75,2.34-18,25.08c-15.13,22.49-23.45,66.76-31,94,0,0,11.22,4.25,17.47,5.14,0,0,4-40.07,14.72-71,10.84-31.37,22-43.67,26.8-48.63Z"/>
  <path fill="#a11f1f" d="M447,707s11.54-25.65,13.7-37.36,1.28-37,1.28-37l8.87-1.33s5.74,15.34,3.57,40.44-10.09,41-10.09,41S458,710.3,447,707Z"/>
  <path fill="#f2736d" d="M269.9,377.24s41.11-4.57,47.67-10.74,27.13-19.41,32.07-30.16,6.88-22.17-7.27-27.58c0,0,9-26.73,6.91-39.19s-16.37-13.91-22.74-10.73c0,0-6.26-13.9-21-6.57,0,0-13.73-9.23-22.9-.82,0,0-13.4-8-26.36.25s-13.9,13.18-22.7,34.32-15.76,34.65-8.35,69.33Z"/>
  <path fill="#9e0b0b" d="M313.62,341.77c-8.29,0-19.57-1.76-23.84-10.67-3.08-6.41-2.77-12.85.83-17.67,4.33-5.76,12.61-8.28,22.16-6.71,18,2.95,29.39,1.39,29.51,1.38a.67.67,0,1,1,.18,1.32c-.11,0-11.75,1.59-29.91-1.38-9.05-1.48-16.85.83-20.87,6.19-3.3,4.41-3.56,10.34-.7,16.29,6.5,13.55,31.72,9.23,32,9.18a.67.67,0,0,1,.23,1.31A58.32,58.32,0,0,1,313.62,341.77Z"/>
  <path fill="#9e0b0b" d="M314.79,308.38h-.11a.68.68,0,0,1-.55-.77c2.21-13.82,11.67-48.59,11.77-48.94a.66.66,0,1,1,1.28.35c-.09.35-9.54,35.05-11.73,48.8A.67.67,0,0,1,314.79,308.38Z"/>
  <path fill="#9e0b0b" d="M294.25,311.46l-.13,0a.66.66,0,0,1-.53-.78l11.31-58.52a.66.66,0,0,1,1.3.26l-11.3,58.52A.67.67,0,0,1,294.25,311.46Z"/>
  <path fill="#9e0b0b" d="M282.29,316.37c-3.87,0-8.31-.56-11.55-2.62-4.8-3.05-.88-16.87,4.09-34.37,2.5-8.81,5.33-18.8,7.16-28.06a.67.67,0,0,1,1.31.26c-1.84,9.31-4.68,19.33-7.19,28.16-4.44,15.62-8.62,30.36-4.65,32.89,6.43,4.1,18.72,1.69,18.84,1.66a.67.67,0,0,1,.26,1.31A46.35,46.35,0,0,1,282.29,316.37Z"/>
  <path fill="#9e0b0b" d="M271.1,313.86h0c-.52,0-12.87-.43-17.21-6.58s-3.44-23.66,1.52-32.5a.66.66,0,1,1,1.16.65c-4.67,8.33-5.55,25.48-1.59,31.09s16,6,16.16,6a.65.65,0,0,1,.64.68A.66.66,0,0,1,271.1,313.86Z"/>
  <path fill="#9e0b0b" d="M261.61,346.18a.7.7,0,0,1-.44-.17.66.66,0,0,1-.05-.94,108.14,108.14,0,0,1,10.7-10.17c6.6-5.48,18.12-4.78,18.6-4.75a.66.66,0,1,1-.09,1.32c-.11,0-11.48-.68-17.65,4.45a107.49,107.49,0,0,0-10.57,10A.66.66,0,0,1,261.61,346.18Z"/>
  <path fill="#f2736d" d="M697.58,370.05s42.13,7.71,60.38,5.61,30.31,10.5,40.09,9.1,20.42-10.5,18.44-34.37c0,0,17.2,2.28,21-9.86s3.91-17.46,3.91-17.46S810,267.2,803.73,260.78s-21.57-3.75-34.51,2.68-86,57.84-86,57.84Z"/>
  <path fill="#9e0b0b" d="M816.49,351.05c-.37,0-9.16-.11-25.2-9.59s-18.67-19.58-18.77-20a.66.66,0,1,1,1.29-.31c0,.1,2.56,9.93,18.16,19.16s24.43,9.41,24.52,9.41a.67.67,0,1,1,0,1.33Z"/>
  <path fill="#9e0b0b" d="M794.69,343.29a.65.65,0,0,1-.61-.41.66.66,0,0,1,.35-.87c.15-.06,14.6-6.24,14.78-13.48s-12.23-17-12.36-17.13a.66.66,0,0,1,.81-1c.54.41,13.09,10.2,12.88,18.21S795.58,343,795,343.24A.8.8,0,0,1,794.69,343.29Z"/>
  <path fill="#f2736d" d="M450.55,367A35.16,35.16,0,1,1,446,353.81v0A35,35,0,0,1,450.55,367Z"/>
  <path fill="#0c201f" d="M428.06,396.18s.75-5.84,2.95-7.22,8.42-2.06,7.27,0a6.34,6.34,0,0,0-1.35,3.3c-.45,3.72-1.73,4.45-1.73,4.45S427.3,399.74,428.06,396.18Z"/>
  <path d="M435.24,383.53a.67.67,0,0,1,0-1.34c1.32-.05,3.5-.4,4-1l-.79-6.36,1.32-.17.83,6.27a1.46,1.46,0,0,1-.34,1.12c-1,1.21-4.29,1.41-4.93,1.44Z"/>
  <circle cx="426.85" cy="369.69" r="2.14" fill="#0c201f"/>
  <circle cx="444.7" cy="368.11" r="2.14" fill="#0c201f"/>
  <path fill="#0c201f" d="M395.17,380.85S413,377,418.55,363.6A80.43,80.43,0,0,0,419.94,350a25.9,25.9,0,0,0,22.16,7.14c13.91-2,13.54-8.72,13.17-12.43s-6.68-8.34-18-10.94S415,330,403.34,329.29s-24.67,4.26-32.08,25.22S395.17,380.85,395.17,380.85Z"/>
  <path fill="#0c201f" d="M371.26,354.51a33.79,33.79,0,0,0,2.45,23.06c3.57,7.52,9.13,13,12.88,13.89.44.1,2.28-2.46,5.25-6.58,1.39-1.93,6.87-10.93,6.87-10.93Z"/>
  <path fill="#0c201f" d="M379.23,344.87s-6.3-9.51-12.29-9.23-11.68,5.84-11.82,12,2.78,11.55,7.23,12.8,11.41-1.11,11.41-1.11Z"/>
  <path fill="#f2736d" d="M383.07,359.62c2.27-2.83,6.05-1.94,9.15-.44,2.88,1.39,4.47,3.88,3.91,6.33C394.77,371.4,399,377.77,400,384,378.5,382.6,378.71,365.07,383.07,359.62Z"/>
  <path d="M386.34,364.38c1.55-.53,3.81-.24,4.63,1,.36.54-.62,1-1.09.48a1.78,1.78,0,0,0-1.65-.47,2.29,2.29,0,0,0-1.29.95c-.77,1.12,0,2.51.6,3.6a14.25,14.25,0,0,0,2.37,3.08c1,1,2.39,1.79,3.39,2.78s-.78,2.26-2.12,1.62a9.8,9.8,0,0,1-2.54-1.95,17.84,17.84,0,0,1-1.86-2.06,13.1,13.1,0,0,1-2.49-4.75A3.42,3.42,0,0,1,386.34,364.38Z"/>
</svg>
