<svg xmlns="http://www.w3.org/2000/svg" data-name="A Woman Who Practices Taekwondo" viewBox="0 0 1500 1500"><path fill="#ffa07f" d="m181.43,176.91l56.36-87.16,346.72,191.42c35.73,19.72,47.9,65.19,26.82,100.13h0c-21.43,35.51-68.37,45.59-102.49,22L181.43,176.91Z"/><path fill="#ffa07f" d="m273.65,110.82L172.16,30.7c-11.69-9.23-26.48-13.66-41.31-12.25-24.7,2.35-61.27,12.7-83.37,50.79-11.93,20.56-3.87,46.93,17.61,57.12l148.62,70.53,59.94-86.07Z"/><rect width="151.28" height="380.1" x="798.55" y="661.98" fill="#ffa07f" rx="47.96" ry="47.96" transform="rotate(-2.9 873.053 850.871)"/><path fill="#ffa07f" d="m971.18,1331.34l-114.69,8.86-52.89-368.02c-6.52-45.38,27.71-86.4,73.52-88.11h0c42.59-1.59,78.41,31.64,80.01,74.23l14.05,373.04Z"/><path fill="#ffa07f" d="m1006.27,1370.07l73.99,58.95c13.13,10.46,22.33,25.06,26.1,41.42h0c3.83,16.62-11.39,31.35-27.88,26.97l-190.66-50.65c-20.12-5.34-33.74-24.05-32.65-44.83h0c.74-14.12.42-28.28-.96-42.35l-8.79-89.87,129.11-10.76,3.32,56.29c1.27,21.48,11.6,41.42,28.43,54.83Z"/><polygon fill="#e5e5e5" points="971.68 616.63 817.11 378.47 321.88 116.66 233.56 268.07 757.8 638.01 829.28 1325.74 1001.3 1311.74 971.68 616.63"/><path fill="#0f0f44" d="m757.8,638.78c-.4,0-.73-.3-.77-.71l-3.84-46.88c-.03-.42.28-.79.7-.83.44-.02.79.28.83.7l3.84,46.88c.03.42-.28.79-.7.83-.02,0-.04,0-.06,0Z"/><g><rect width="118.44" height="381.6" x="962.26" y="98.2" fill="#e5e5e5" rx="59.22" ry="59.22" transform="rotate(-79.47 1021.467 289)"/><path fill="#ffa07f" d="m936.97,285.6h0c13.14-29.97-.4-64.93-30.3-78.23l-265.74-118.17-42.55,83.14,255.31,141.41c30.63,16.97,69.23,3.93,83.29-28.15Z"/><path fill="#ffa07f" d="m648.68,95.45l-53.79-32.28-28.99-12.16c-5.4-2.26-11.63-.02-14.35,5.16h0c-3.27,6.3-1.92,12.33-1.52,13.89-1.8,1.04-6.52,4.07-9.39,10.14-3.36,7.11-1.95,13.67-1.48,15.54-2.02,1.28-6.36,4.41-9.22,10.2-3.65,7.38-2.52,14.28-2.07,16.48-1.35.92-5.13,3.76-6.91,9.05h0c-1.49,4.46-.16,9.37,3.38,12.49,5.35,4.72,11.83,9.62,19.48,14.19,14.96,8.94,36.34,17.88,62.05,17.87l42.81-80.57Z"/><path fill="#0f0f44" d="m578.74,133.64c.33-.04.63-.28.72-.62,5.03-17.89,25.27-18.13,25.48-18.13.47,0,.86-.39.86-.87,0-.48-.39-.86-.86-.86-.22,0-21.75.24-27.14,19.4-.13.46.14.94.6,1.07.11.03.23.04.34.03Z"/><path fill="#0f0f44" d="m599.66,124.54c.22-.03.43-.14.58-.33.29-.38.22-.92-.15-1.21-.08-.06-7.91-5.97-17.42.22-.4.26-.51.8-.25,1.2.26.4.79.51,1.2.25,8.46-5.5,15.13-.52,15.42-.3.19.14.42.2.64.17Z"/><path fill="#0f0f44" d="m527.54,123.23c-.15-.06-.26-.17-.35-.3.27-.2.5-.37.69-.5-.05-.23-.1-.51-.16-.83.16-.03.33-.03.49.04l29.03,12.25c1.61-.16,12.63-1.43,15.26-7.89,1.8-4.41-.64-10.41-7.23-17.83l-26.46-11.63c-.16-.07-.27-.19-.36-.32.25-.17.5-.34.71-.47-.05-.21-.12-.5-.19-.83.18-.04.36-.04.54.04l26.57,11.72c1.33.11,12.52.87,16.43-5.09,2.54-3.88,1.54-9.9-2.94-17.88l-29.88-12.85c-.17-.07-.29-.21-.38-.36.27-.17.52-.32.73-.44-.05-.2-.12-.48-.19-.83.17-.04.36-.04.53.03l30.08,12.96c.99.15,9.46,1.27,13.36-3.37,2.65-3.15,2.7-8.33.17-15.4-.08-.21-.06-.43.02-.62l.79.33c-.17-.23-.32-.47-.48-.7.06-.04.12-.09.19-.11.45-.16.95.07,1.11.52,2.76,7.7,2.6,13.45-.48,17.11-2.2,2.61-5.49,3.67-8.44,4.04-1.95.25-3.72.19-4.96.09,4.22,7.98,5,14.19,2.22,18.43-2.47,3.78-7.22,5.22-11.24,5.72-1.89.24-3.61.27-4.87.24,6.09,7.29,8.19,13.39,6.25,18.15-2.65,6.52-12,8.36-15.56,8.83,1.65,2.89,5.27,10.41,2.25,16.29-1.95,3.79-6.24,6.11-12.8,6.94-.89.11-1.83.19-2.8.24-.45-.26-.92-.53-1.36-.79-.25-.15-.48-.3-.73-.45.15-.24.39-.42.7-.42,8.24-.26,13.43-2.38,15.46-6.31,3.02-5.87-1.88-14.16-2.73-15.53l-28.98-12.23Z"/><path fill="#ffa07f" d="m648.68,93.92l-26.38-38.95c-3.61-5.33-9.93-8.15-16.3-7.29l-42.15,5.7c-2.51.34-4.24,2.73-3.72,5.22,1.81,8.59,9.21,26.1,39.37,26.1l16.91,26.13,32.28-16.91Z"/><path fill="#0f0f44" d="m617.17,112.36c-.05,0-.11,0-.16-.02-19.42-4.16-18.23-21.86-17.65-26.12-29.19-.33-37.81-16.61-40.35-26.35-.48-1.84-.14-3.79.92-5.36,1.06-1.56,2.75-2.6,4.62-2.83l5.72-.72c.43-.05.8.24.86.67.05.42-.25.81-.67.86l-5.72.72c-1.44.18-2.73.97-3.54,2.17-.82,1.2-1.07,2.7-.71,4.11,2.45,9.41,10.87,25.2,39.76,25.2h.95l-.2.93c-.18.85-4.18,20.82,16.32,25.22.42.09.68.5.59.91-.08.36-.4.61-.75.61Z"/><path fill="#e5e5e5" d="m937.07,286.72h0c13.64-30.41.32-66.15-29.9-80.2l-195.98-91.17c-8.87,13.06-18.37,28.97-27.15,47.73-9.5,20.31-15.93,39.17-20.35,55.32,63.31,32.53,126.61,65.06,189.92,97.59,31.07,15.96,69.17,2.6,83.46-29.26Z"/><path fill="#0f0f44" d="m916.11,228.4c-.3,0-.58-.18-.71-.47l-8.95-21.12c-.17-.39.02-.84.41-1.01.39-.17.84.02,1.01.41l8.95,21.12c.17.39-.02.84-.41,1.01-.1.04-.2.06-.3.06Z"/><g><path fill="#e5e5e5" d="m773.15,332.53c-8.85-1.36-16.02,7.09-13.27,15.61,12.72,39.52,44.1,132.15,77.45,193.81,40.07,74.09,114.28,163.28,141.61,195.16,5.2,6.07,14.72,5.55,19.27-1.02,30.19-43.65,79.07-102.56,153.07-154.95,58.76-41.6,117.04-67.53,167.09-83.88,42.07-13.74,53.61-67.77,20.83-97.5-47.17-42.78-94.33-85.56-141.5-128.34-25.07-22.74-62.2-25.93-90.82-7.86-30.29,19.13-68.82,38.81-115.45,53.22-90.35,27.92-169.57,23.23-218.27,15.75Z"/><path fill="#0f0f44" d="m791.39,334.97c20.49,54.55,47.07,116.23,81.65,182,44.51,84.66,90.92,154.53,131.92,209.54,7.53-10.47,16.07-21.66,25.69-33.3-38.7-48.38-83.32-111.76-125.43-190.44-31.88-59.57-55.73-115.57-73.62-164.8-14.61-.5-28.08-1.6-40.2-3Z"/><path fill="#0f0f44" d="m872.32,502.6h0c-43.65,86.28-67.84,181.09-70.86,277.74l-3.51,112.19c-.58,18.69,14.73,34,33.42,33.41h0c18.22-.58,32.39-16.06,31.34-34.26l-7.47-129.42c-4.38-75.96,4.38-152.1,25.9-225.08l4.04-13.69-12.85-20.88Z"/><path fill="#0f0f44" d="m878.19,522l-.17,39.28c-.22,51.99,5.72,103.83,17.7,154.42h0c15.55,65.65,20.91,133.3,15.89,200.58l-4.55,61c-1.69,22.65,17.5,41.32,40.09,39.01h0c18.28-1.87,32.32-17.03,32.77-35.4l.72-29.32c2.05-83.28-11.74-166.19-40.63-244.32l-1.46-3.95c-14.92-40.36-25.85-82.09-32.62-124.58l-6.72-42.16-21.02-14.57Z"/><path fill="#0f0f44" d="m935.14,559.34l-28.24,17.19-37.82-68.41,29.08-21.21c2.33-1.7,5.41-1.49,7.48.23.87.72,1.45,1.72,1.8,2.8,2.68,8.35,6.39,17.9,11.58,28.06,5.97,11.69,12.47,21.4,18.46,29.19,1.86,2.42,2.21,5.66.93,8.44-.02.05-.05.1-.07.15-.69,1.47-1.8,2.72-3.18,3.56Z"/><path fill="#0f0f44" d="m848.19,565.47c-18.52-32.42-33.2-62.61-44.5-88.34-32.75-74.57-44.97-128.67-45.09-129.21-.12-.56.23-1.11.79-1.24.56-.12,1.11.23,1.24.79.12.54,12.31,54.48,44.99,128.88,30.16,68.65,84.43,169.24,171.73,258.62.4.41.39,1.07-.02,1.47-.41.4-1.07.39-1.47-.02-54.81-56.12-96.64-116.65-127.67-170.95Z"/><path fill="#0f0f44" d="m926.34,332.45c-.37,0-.7-.27-.76-.65-.07-.42.22-.81.64-.88.74-.12,74.56-11.86,121.25-36.61.37-.2.84-.06,1.04.32s.06.84-.32,1.04c-46.92,24.87-120.99,36.65-121.73,36.77-.04,0-.08,0-.12,0Z"/></g><g><path fill="#ffa07f" d="m1261.6,249.89c-2.82,9.1-7.38,28.13-2.74,51.52,4.16,20.99,13.79,35.68,19.46,43.13-25.88,7.99-49.14,13.29-68.65,16.81-40.33,7.3-72.17,9.46-102.98,9.22,4.97-15.26,23.05-64.55,79.92-107.59,20.76-15.71,49.36-8.49,74.98-13.1Z"/><path fill="#0f0f44" d="m1106.69,371.34c2.43.04,4.86.06,7.28.06,86.85,0,163.82-25.87,164.61-26.14.13-.04.23-.12.31-.21-.41-.37-.81-.74-1.22-1.1-6.3,2.08-84.72,27.28-170.95,25.86-.44-.02-.77.33-.78.75,0,.42.33.77.76.78Zm197.05-3.75c-15.89,7.46-96.28,42.08-205.44,35.26-.45-.06-.79.3-.82.72-.03.42.3.79.72.82,9.73.61,19.23.89,28.48.89,95.63,0,164.26-29.93,178.06-36.45.08-.04.14-.09.2-.15-.4-.36-.8-.72-1.19-1.08Z"/><path fill="#0f0f44" d="m1089.03,324.71c17.48-30.14,42.87-54.7,73.51-71.22-.79-.17-1.59-.31-2.39-.45-30.15,16.64-55.14,41.05-72.45,70.89-12.52,21.58-20.54,44.95-23.85,69.44-7.61,56.34-14.6,161.53,22.22,240.91.39-.37.78-.73,1.18-1.1-36.42-78.97-29.45-183.54-21.88-239.6,3.28-24.29,11.24-47.47,23.66-68.87Zm92.27-56.8c-.25-.34-.74-.41-1.08-.16-22.66,16.88-41.33,37.84-55.51,62.28l-2.88,4.96c-17.22,29.69-26.87,63.41-27.91,97.51-1.25,41.3,3.69,103.57,34.31,165.77.41-.32.82-.65,1.24-.97-30.36-61.81-35.26-123.69-34.02-164.75,1.03-33.85,10.61-67.32,27.7-96.79l2.88-4.96c14.07-24.26,32.61-45.06,55.1-61.82.34-.25.41-.74.16-1.08Z"/><path fill="#0f0f44" d="m1284.99,66.25s64.1-10.75,66.09,53.79c2.79,90.69-26.08,119.32,9.95,144.52,6.37,4.46,6.7,13.8.57,18.57-18.31,14.24-52.9,34.51-77.95,9.14-8.6-8.71-13.9-20.23-15.12-32.41-1.27-12.72.54-31.24,14.91-50.68,26.13-35.35,21.58-84.47,21.58-84.47l-20.05-58.47Z"/><path fill="#0f0f44" d="m1181.33,268.77s29.89,9.59,60.63.36c0,0-24.59,19.98-69.16,6.15l8.54-6.51Z"/><path fill="#ffa07f" d="m1325.32,130.09l-42.19,95.99c-18.23,41.48-67.15,60.49-108.09,41.06-.97-.46-1.95-.94-2.94-1.44-77.16-38.99,5.15-190.75,5.15-190.75l148.06,55.14Z"/><path fill="#0f0f44" d="m1303,178.03s-93.11-7.29-76.64-78.97c0,0-19.76,24.06-70.57,26.54,0,0-3.95-63.04,52.34-70.11,0,0,124.5-16.91,126.14,81.14,0,0,14.79,29.44-15.17,46.02l-16.11-4.63Z"/><path fill="#e5e5e5" d="m1327.26,121.58c-.39,0-.72-.29-.76-.69-4.5-42.04-38.36-55.33-38.7-55.46-.4-.15-.6-.59-.45-.99.15-.4.6-.59.99-.45.35.13,35.08,13.73,39.69,56.74.05.42-.26.8-.68.85-.03,0-.06,0-.08,0Z"/><circle cx="1305.52" cy="203.39" r="26.54" fill="#ffa07f"/><circle cx="1297.5" cy="217.5" r="6.5" fill="#e5e5e5"/><path fill="#0f0f44" d="m1304.94,176.56s-12.95,6.05-18.61,25.74c0,0-3.56-14.59,6.96-30.94,0,0,9.76-3.18,11.65,5.2Z"/><path fill="#0f0f44" d="m1293.79,203.79c3.5-4.08,7.59-6.31,12.15-6.63,8.31-.58,15.14,5.35,15.43,5.6.31.28.34.76.07,1.07-.28.31-.76.35-1.07.07-.07-.06-6.64-5.76-14.32-5.22-1.25.09-2.46.35-3.63.76,8.82,1.82,11.46,10.33,11.49,10.42.12.4-.11.82-.51.94-.18.05-.36.04-.52-.03-.2-.09-.36-.26-.42-.48-.11-.38-2.86-9.18-12.62-9.66-1.74,1.01-3.37,2.39-4.89,4.16-.22.26-.58.33-.88.2-.07-.03-.13-.07-.19-.12-.32-.27-.35-.75-.08-1.07Z"/></g><g><rect width="118.44" height="381.6" x="1187.12" y="376.57" fill="#e5e5e5" rx="59.22" ry="59.22" transform="rotate(24.77 1246.488 567.476)"/><path fill="#ffa07f" d="m1233.48,725.39h0c21.95-24.06,20.31-61.34-3.65-83.38l-211.02-194.13-62.93,64.55,189.8,212.51c23.35,26.14,64.18,26.36,87.81.46Z"/><path fill="#e5e5e5" d="m1232.63,727.03h0c22.84-24.66,21.59-63.1-2.79-86.23l-159.51-151.34c-11.62,8.07-24.06,17.65-36.77,28.99-19.96,17.81-35.79,35.66-48.17,51.63,52.94,52.89,105.88,105.78,158.82,158.66,24.62,24.6,64.76,23.82,88.41-1.72Z"/><path fill="#0f0f44" d="m1172.02,587.29c-.11,0-.22-.02-.32-.07-.38-.18-.55-.64-.37-1.02l47.81-103.28c.18-.38.64-.55,1.02-.38.38.18.55.64.37,1.02l-47.81,103.28c-.13.28-.41.45-.7.45Z"/><path fill="#0f0f44" d="m1202.1,615.72c-.19,0-.38-.07-.53-.21l-131.29-125.04-2.69,2.04c-.34.26-.82.19-1.08-.15-.26-.34-.19-.82.15-1.08l3.73-2.83,132.23,125.94c.31.29.32.78.03,1.09-.15.16-.35.24-.56.24Z"/><path fill="#0f0f44" d="m1068.28,653.21c-.2,0-.39-.08-.54-.22l-83.37-82.85,11.04-13.84c.26-.33.75-.39,1.08-.12s.39.75.12,1.08l-10.18,12.76,82.39,81.88c.3.3.3.79,0,1.09-.15.15-.35.23-.54.23Z"/><path fill="#ffa07f" d="m1031.22,462.73s-42.13-70.71-59.02-68.21c-21.21,3.14-91.56,58.23-55.56,97.36,12.7,13.81,30.1,22.38,47.34,29.79h0s67.24-58.94,67.24-58.94Z"/><path fill="#ffa07f" d="m1036.28,464.75l-2.18-17.9c-1.31-10.76-7.34-20.38-16.44-26.26l-29.12-18.8c-1.69-1.09-3.72-1.51-5.7-1.17l-8.13,1.39,43.81,60.01,17.76,2.74Z"/><path fill="#0f0f44" d="m1001.57,421.33l-16.51-19.23c-.35-.41-.3-1.02.1-1.37s1.02-.3,1.37.1l16.51,19.23c.35.41.3,1.02-.1,1.37s-1.02.3-1.37-.1Z"/></g></g></svg>