<svg xmlns="http://www.w3.org/2000/svg" enable-background="new 0 0 2037 1964.25" viewBox="0 0 2037 1964.25"><path fill="#ffa385" d="M1311.515,653.969c1.952-23.715,7.553-59.081,5.309-61.584
				c-9.972-11.124-19.5-60.551-16.218-63.541c-4.78,4.355-25.17,7.535-30.04,11.832c-3.666,3.234-9.7,4.834-14.275,6.649
				c-8.708,3.453-17.767,5.814-26.506,9.105c-12.851,4.841-0.593,9.55-9.375,17.598c-3.498,3.206-32.051,19.94-32.926,25.86
				c-1.693,11.465-3.39,22.965-3.667,34.552c-0.444,18.592,2.768,37.047,5.245,55.478c3.589,26.712,5.649,53.63,6.165,80.578
				c0.21,10.951,0.631,23.106,8.289,30.937c5.631,5.758,14.29,7.851,22.283,6.861c7.993-0.99,15.407-4.727,22.084-9.231
				c33.685-22.724,50.023-63.818,57.874-103.686C1308.45,681.697,1310.371,667.865,1311.515,653.969z"/><path fill="#5f515c" d="M1222.258,571.985c20.861-8.964,69.157-32.156,69.157-32.156
				C1284.36,556.081,1213.884,619.478,1222.258,571.985z" opacity=".4"/><path fill="#ffa385" d="M1325.039,465.238c-2.098,55.285-56.814,111.12-104.03,110.035
			c-30.108-0.692-57.389-45.988-55.29-101.273c2.098-55.285,39.922-98.731,84.483-97.04
			C1294.762,378.652,1327.137,409.954,1325.039,465.238z"/><path fill="#e28065" d="M1211.994,516.987c-2.362,0-4.695-0.585-6.803-1.714c-0.615-0.331-1.516-0.867-2.235-1.712
					c-1.254-1.479-1.759-3.661-1.422-6.146c0.126-0.934,0.342-1.815,0.551-2.667c0.189-0.769,0.367-1.494,0.469-2.211
					c0.143-1.008,1.069-1.708,2.087-1.566c1.008,0.144,1.71,1.078,1.566,2.087c-0.128,0.898-0.337,1.748-0.538,2.57
					c-0.195,0.793-0.379,1.544-0.479,2.282c-0.191,1.414,0.02,2.603,0.58,3.263c0.24,0.283,0.6,0.545,1.165,0.848
					c1.789,0.959,3.796,1.391,5.798,1.252c1.017-0.068,1.898,0.695,1.969,1.712c0.071,1.017-0.696,1.898-1.712,1.969
					C1212.657,516.976,1212.325,516.987,1211.994,516.987z"/><path fill="#7f454b" d="M1236.745,465.097c-1.112,0-2.219-0.445-3.034-1.325c-1.551-1.675-1.45-4.29,0.224-5.842
					c7.868-7.285,19.902-9.144,29.949-4.628c2.082,0.937,3.011,3.383,2.075,5.465c-0.936,2.081-3.384,3.008-5.465,2.075
					c-6.95-3.126-15.562-1.828-20.941,3.154C1238.758,464.732,1237.75,465.097,1236.745,465.097z"/><path fill="#7f454b" d="M1198.13,463.448c-0.989,0-1.978-0.385-2.722-1.151c-4.762-4.905-11.844-6.301-17.225-3.396
					c-1.842,0.998-4.145,0.309-5.141-1.535c-0.996-1.844-0.308-4.145,1.535-5.141c8.353-4.511,19.157-2.543,26.275,4.785
					c1.46,1.504,1.424,3.905-0.078,5.365C1200.036,463.092,1199.082,463.448,1198.13,463.448z"/><path fill="#512229" d="M1238.974,481.005c-0.555,6.195,1.931,11.497,5.552,11.841c3.621,0.345,7.007-4.399,7.562-10.594
				s-1.931-11.497-5.552-11.841C1242.915,470.067,1239.529,474.81,1238.974,481.005z"/><path fill="#512229" d="M1183.778,478.03c-0.555,6.195,1.931,11.497,5.552,11.842c3.621,0.344,7.007-4.399,7.562-10.594
				c0.555-6.195-1.931-11.497-5.552-11.842C1187.719,467.091,1184.333,471.834,1183.778,478.03z"/><path fill="#e28065" d="M1224.227,527.237c-0.857,0-1.626-0.601-1.804-1.474c-0.205-0.998,0.438-1.973,1.436-2.177
					c1.403-0.287,2.733-1.139,4.142-2.04l0.448-0.286c4.148-2.631,8.59-4.818,13.202-6.498c0.956-0.35,2.016,0.145,2.365,1.102
					c0.349,0.957-0.144,2.016-1.101,2.365c-4.363,1.591-8.565,3.658-12.488,6.147l-0.437,0.279
					c-1.554,0.994-3.317,2.121-5.389,2.546C1224.475,527.225,1224.35,527.237,1224.227,527.237z"/><g><path fill="#7f454b" d="M1407.653,399.13c12.677,25.073,24.526,49.399,45.147,69.138
					c6.312,6.042,36.96,24.625,46.321,24.456c-12.23,0.74-24.618,1.47-36.642-0.883c-12.025-2.353-23.846-8.169-30.933-18.164
					c5.337,15.235,10.091,101.612-60.086,160.002c-2.954,2.458-27.174,13.604-27.414,15.925c6.488-12.263,9.641-23.249,11.99-35.157
					c1.828-9.268,3.445-18.694,2.027-28.034c-1.724,11.26-9.234,21.009-18.447,27.708c-9.214,6.699-20.067,10.727-30.888,14.288
					c15.789-5.195,30.547-27.362,36.85-41.752c8.677-19.81,6.728-42.571,2.745-63.829c-3.983-21.257-9.864-42.534-8.533-64.12
					c0.538-8.717,3.052-17.87,1.822-26.512c-1.038-7.29-3.38-15.188-6.087-22.063c-4.323-10.979-12.768-26.113-26.435-26.045
					c-9.276,0.047-6.454,12.689-14.925,8.42c-8.262-4.164-18.568-5.707-26.432-10.088c-9.855-5.491-1.451-11.29,4.922-15.88
					c15.116-10.888,33.45-18.078,52.465-19.278c25.606-1.616,52.065,8.246,67.624,27.127
					C1398.929,381.897,1403.315,390.55,1407.653,399.13z"/><path fill="#602c34" d="M1371.823,512.761c-0.573,0-1.121-0.328-1.374-0.883c-9.84-21.642-8.292-46.114-6.796-69.78
						c0.208-3.287,0.416-6.564,0.592-9.819c0.416-7.68,0.673-15.83-1.125-23.621c-4.609-19.966-24.262-35.592-44.75-35.592
						c-0.015,0-0.026-0.004-0.042,0c-0.832,0-1.506-0.674-1.507-1.506c-0.001-0.846,0.678-1.518,1.55-1.509
						c21.835,0,42.774,16.651,47.686,37.928c1.887,8.175,1.627,16.567,1.198,24.462c-0.177,3.264-0.385,6.55-0.593,9.846
						c-1.473,23.296-2.996,47.385,6.533,68.342c0.344,0.758,0.009,1.651-0.749,1.996
						C1372.244,512.718,1372.031,512.761,1371.823,512.761z"/><path fill="#602c34" d="M1477.897,494.93c-6.872,0-13.815-0.827-20.392-3.159c-17.613-6.245-30.282-22.032-41.461-35.96
						c-1.041-1.297-2.072-2.582-3.096-3.846c-9.321-11.501-21.301-20.968-34.647-27.377c-0.752-0.36-1.068-1.261-0.707-2.011
						c0.359-0.75,1.263-1.068,2.01-0.706c13.747,6.601,26.086,16.351,35.686,28.197c1.027,1.268,2.061,2.556,3.105,3.857
						c10.926,13.615,23.311,29.047,40.117,35.006c12.538,4.446,26.714,3.108,38.927,1.213c0.819-0.135,1.593,0.435,1.721,1.258
						c0.128,0.822-0.436,1.593-1.259,1.72C1491.601,494.099,1484.786,494.93,1477.897,494.93z"/><path fill="#602c34" d="M1355.132,643.153c-0.615,0-1.175-0.242-1.582-0.682c-0.536-0.581-0.638-1.417-0.259-2.132
						c0.411-0.776,1.271-1.228,2.061-1.115c0.099,0.015,0.194,0.037,0.285,0.067c0.211-0.229,0.471-0.455,0.804-0.632
						c6.336-3.369,11.167-9.229,15.443-15.059c11.496-15.67,19.722-31.53,24.448-47.138c5.441-17.966,6.367-36.096,2.676-52.432
						c-1.581-6.989-4.059-13.896-6.456-20.576c-1.439-4.01-2.927-8.157-4.216-12.306c-4.356-14.016-5.258-25.127-2.839-34.967
						c0.199-0.809,1.014-1.305,1.824-1.104c0.807,0.199,1.302,1.015,1.103,1.823c-2.283,9.286-1.396,19.884,2.79,33.353
						c1.271,4.086,2.748,8.202,4.176,12.182c2.428,6.765,4.937,13.761,6.558,20.93c3.807,16.844,2.862,35.506-2.731,53.97
						c-4.825,15.936-13.203,32.101-24.901,48.047c-4.487,6.119-9.588,12.285-16.458,15.938c-0.026,0.027-0.154,0.204-0.239,0.322
						c-0.134,0.187-0.271,0.372-0.421,0.542c-0.538,0.602-1.302,0.964-2.046,0.971
						C1355.146,643.153,1355.14,643.153,1355.132,643.153z M1353.828,641.195c0,0.001,0,0.002,0,0.003
						C1353.828,641.196,1353.828,641.195,1353.828,641.195z"/><path fill="#7f454b" d="M1276.051,434.809c13.682,7.116,17.835,23.505,15.095,37.947c-0.371,1.954-0.853,3.97-0.394,5.906
				c0.459,1.935,2.234,3.736,4.201,3.435c0.754-3.96,1.528-7.979,3.345-11.577c1.817-3.598,4.848-6.784,8.738-7.84
				c3.89-1.056,8.602,0.534,10.315,4.182c1.24,2.641,0.764,5.807-0.413,8.478c-1.177,2.671-2.989,5.002-4.513,7.49
				c-4.883,7.97-5.198,17.47-7.538,26.36c-1.159,4.404-2.249,8.83-3.196,13.285c-0.216,1.015-0.371,5.698-1.086,6.368
				c9.339-8.763,15.487-26.401,21.108-37.852c2.89-5.894,4.983-11.787,5.875-18.271c1.962-14.247,3.722-28.753,2.17-43.131
				c-1.518-14.07-5.791-25.359-13.342-37.259c-2.104-3.316-4.307-6.583-6.87-9.558c-4.306-4.995-9.57-9.091-15.135-12.63
				c-20.25-12.877-45.779-17.368-68.66-9.938c-10.363,3.365-19.799,5.334-29.096,11.575c-8.317,5.582-15.523,12.846-20.88,21.32
				c-11.463,18.133-14.273,41.483-7.44,61.818c1.648-11.211,5.406-22.285,13.135-30.599c7.165-7.707,15.5-14.176,23.747-20.663
				c9.874,13.434,27.5,18.088,43.703,22.014C1258.095,427.893,1267.725,430.479,1276.051,434.809z"/><path fill="#602c34" d="M1205.071,403.343c-0.109,0-0.219-0.012-0.33-0.036c-0.812-0.182-1.323-0.987-1.142-1.8
					c3.644-16.312,13.885-30.712,28.096-39.507c2.999-1.856,7.024-4.018,11.445-3.907c0.833,0.012,1.497,0.698,1.483,1.53
					c-0.012,0.824-0.685,1.484-1.506,1.484c-0.068,0.001-0.125-0.002-0.185-0.001c-3.597,0-7.041,1.843-9.651,3.458
					c-13.327,8.247-23.324,22.304-26.74,37.601C1206.383,402.866,1205.761,403.343,1205.071,403.343z"/><path fill="#602c34" d="M1264.879,422.839c-18.49,0-37.101-6.642-50.938-18.829c-0.625-0.55-0.685-1.502-0.135-2.126
					c0.549-0.625,1.5-0.686,2.127-0.135c18.233,16.058,45.105,22.093,68.452,15.377c7.193-2.07,20.132-7.274,25.97-18.882
					c0.374-0.743,1.28-1.044,2.023-0.669c0.744,0.374,1.044,1.28,0.669,2.023c-4.709,9.363-14.592,16.616-27.829,20.424
					C1278.625,421.918,1271.758,422.839,1264.879,422.839z"/><path fill="#602c34" d="M1288.728,442.141c-0.779,0-1.548-0.065-2.307-0.197c-0.82-0.143-1.37-0.923-1.227-1.743
					c0.143-0.819,0.927-1.365,1.743-1.227c4.185,0.726,8.926-1.152,14.101-5.58c9.052-7.749,14.504-17.734,14.958-27.395
					c0.038-0.832,0.739-1.509,1.576-1.434c0.831,0.039,1.473,0.744,1.434,1.576c-0.492,10.488-6.327,21.256-16.009,29.542
					C1297.983,439.976,1293.193,442.141,1288.728,442.141z"/><path fill="#602c34" d="M1166.238,418.983c-0.793,0-1.458-0.621-1.504-1.423c-0.046-0.83,0.59-1.542,1.421-1.589
					c3.143-0.176,5.852-2.325,8.817-4.904l7.427-6.464c1.889-1.645,4.031-3.51,6.697-4.463c3.239-1.159,6.558-0.815,10.248-0.29
					c0.824,0.118,1.397,0.881,1.279,1.705c-0.117,0.823-0.877,1.398-1.705,1.279c-3.287-0.47-6.219-0.782-8.807,0.143
					c-2.131,0.762-3.963,2.357-5.734,3.899l-7.427,6.464c-2.616,2.275-6.197,5.392-10.628,5.64
					C1166.295,418.982,1166.267,418.983,1166.238,418.983z"/><path fill="#602c34" d="M1202.093,394.216c-0.334,0-0.671-0.111-0.95-0.339c-3.062-2.493-7.225-3.656-11.138-3.121
					c-0.474,0.065-0.946,0.153-1.418,0.241c-1.18,0.218-2.398,0.444-3.707,0.374c-2.502-0.136-4.558-1.497-5.237-3.465
					c-0.271-0.787,0.147-1.645,0.933-1.916c0.791-0.273,1.644,0.147,1.916,0.934c0.314,0.91,1.542,1.383,2.551,1.438
					c0.95,0.056,1.941-0.132,2.994-0.327c0.518-0.096,1.037-0.192,1.557-0.263c4.727-0.647,9.753,0.759,13.451,3.77
					c0.646,0.525,0.743,1.474,0.217,2.12C1202.965,394.026,1202.531,394.216,1202.093,394.216z"/><g><path fill="#602c34" d="M1233.545,383.516c-3.613,0-7.286-0.32-10.832-1.506c-1.687-0.564-3.315-1.319-4.84-2.246
					c-0.712-0.432-0.938-1.359-0.505-2.07c0.432-0.711,1.359-0.937,2.07-0.505c1.333,0.81,2.757,1.47,4.231,1.962
					c4.672,1.563,9.789,1.453,14.633,1.205c7.04-0.359,15.311-1.055,23.285-3.505c8.107-2.49,14.878-6.582,19.581-11.836
					c0.555-0.621,1.507-0.675,2.128-0.118c0.62,0.555,0.673,1.508,0.118,2.128c-5.069,5.662-12.31,10.056-20.942,12.706
					c-8.289,2.547-16.792,3.267-24.016,3.635C1236.844,383.449,1235.2,383.516,1233.545,383.516z"/></g><g><path fill="#f09d4e" d="M1309.091,388.138c-1.196,0-2.381-0.528-3.18-1.539c-8.467-10.72-14.363-16.138-26.919-19.905
					c-2.142-0.642-3.357-2.9-2.715-5.041c0.642-2.142,2.901-3.357,5.041-2.715c14.473,4.341,21.777,11.031,30.947,22.642
					c1.386,1.754,1.087,4.301-0.668,5.686C1310.855,387.853,1309.97,388.138,1309.091,388.138z"/></g><path fill="#7f454b" d="M1371.46,633.679c-2.954,2.458-12.261,8.747-27.414,15.925
				c6.488-12.263,9.641-23.249,11.99-35.157L1371.46,633.679z"/></g><g><path fill="#efddc7" d="M800.115,697.445c0,0-6.429-0.863-32.851,22.072c-26.422,22.935-27.151,39.496-11.091,47.178
			h18.613l22.63-19.855l13.336-27.323L800.115,697.445z"/><path fill="#ffa688" d="M805.066,711.401c-5.209-2.272-10.418-4.544-15.627-6.816c-0.694-0.302-1.433-0.645-1.81-1.302
				c-0.442-0.772-0.252-1.731-0.132-2.612c1.093-8.024-4.7-15.181-10.117-21.201c-3.199-3.555-6.433-7.142-10.333-9.911
				c-0.966-0.686-1.97-1.32-2.912-2.039c-1.247-0.952-2.377-2.046-3.474-3.168c-14.764-15.098-23.682-35.109-38.299-50.349
				c-1.48-1.543-3.12-3.094-5.195-3.606c-2.075-0.513-4.661,0.437-5.219,2.501c-2.101-3.234-5.021-5.931-8.412-7.767
				c-0.77-0.417-1.592-0.798-2.467-0.826c-1.912-0.061-3.52,1.635-4.02,3.482c-0.501,1.846-0.159,3.804,0.186,5.686
				c-2.406-0.548-5.457-0.862-6.836,1.184c-2.226,3.303,1.039,11.704,1.978,15.227c1.527,5.732,3.568,11.328,6.095,16.695
				c-0.267-0.369-0.533-0.739-0.799-1.108c-2.224-3.082-7.299-14.211-9.727-13.179c-5.161,2.195-3.297,8.793-2.585,10.345
				c4.036,8.801,7.399,16.931,11.176,25.862c1.889,4.465,2.862,8.994,4.957,13.4c2.576,5.415,5.062,11.267,9.713,15.072
				c5.608,4.588,10.747,9.874,16.305,14.562c4.739,3.997,9.617,8.076,15.461,10.145c3.209,1.136,6.644,1.638,9.716,3.103
				c3.631,1.731,6.507,4.683,9.39,7.488c7.452,7.25,15.486,13.901,23.998,19.87c4.966-4.819,7.099-10.505,9.543-16.979
				C798.599,727.267,802.155,719.318,805.066,711.401z"/><path fill="#e28065" d="M730.088,658.305c-0.3,0-0.589-0.167-0.73-0.455l-15.886-32.509
					c-2.059-4.213-3.934-8.683-2.311-12.948c0.159-0.418,0.626-0.628,1.047-0.47c0.419,0.159,0.629,0.629,0.47,1.048
					c-1.391,3.657,0.35,7.764,2.253,11.657l15.886,32.509c0.196,0.403,0.03,0.889-0.373,1.086
					C730.329,658.279,730.207,658.305,730.088,658.305z"/><path fill="#e28065" d="M720.147,662.123c-0.287,0-0.566-0.153-0.713-0.423c-7.037-12.898-13.954-26.09-20.557-39.21
					c-1.449-2.879-3.252-6.461-3.295-10.248c-0.005-0.448,0.354-0.816,0.803-0.821c0.495-0.01,0.816,0.354,0.821,0.803
					c0.039,3.411,1.677,6.666,3.121,9.536c6.596,13.104,13.504,26.28,20.532,39.162c0.215,0.394,0.07,0.886-0.323,1.101
					C720.411,662.091,720.277,662.123,720.147,662.123z"/><path fill="#e28065" d="M709.798,668.692c-0.368,0-0.702-0.252-0.789-0.626c-0.74-3.143-2.496-6.35-4.23-9.365
					c-2.073-3.604-3.052-5.177-4.183-6.997c-0.817-1.315-1.704-2.741-3.125-5.131c-0.229-0.385-0.102-0.883,0.283-1.113
					c0.385-0.229,0.884-0.102,1.113,0.283c1.414,2.378,2.296,3.796,3.108,5.104c1.14,1.834,2.124,3.417,4.212,7.044
					c1.795,3.12,3.614,6.447,4.403,9.804c0.102,0.436-0.168,0.873-0.605,0.976C709.922,668.685,709.86,668.692,709.798,668.692z"/><path fill="#e28065" d="M767.263,709.818c-0.139,0-0.28-0.036-0.409-0.111c-7.299-4.268-10.268-11.762-13.14-19.008
					c-0.756-1.908-1.537-3.88-2.386-5.762c-0.727-1.612-1.479-3.28-2.548-4.669c-0.998-1.296-2.255-2.349-3.586-3.464l-0.631-0.531
					c-4.217-3.571-6.854-6.688-8.548-10.106c-1.276-2.574-1.945-5.695-2.044-9.541c-0.047-1.839,0.582-4.136,2.487-5.07
					c1.366-0.671,3.143-0.457,4.631,0.561c1.266,0.863,2.169,2.148,2.894,3.18c5.733,8.143,10.416,9.344,19.628,11.092
					c0.44,0.083,0.73,0.508,0.646,0.948c-0.082,0.441-0.509,0.728-0.948,0.646c-9.389-1.78-14.571-3.111-20.654-11.752
					c-0.684-0.974-1.459-2.077-2.482-2.773c-0.992-0.678-2.171-0.852-3.001-0.444c-1.216,0.595-1.613,2.235-1.578,3.571
					c0.092,3.605,0.706,6.504,1.875,8.862c1.591,3.209,4.103,6.166,8.143,9.588l0.624,0.524c1.339,1.122,2.724,2.281,3.83,3.718
					c1.185,1.54,1.976,3.295,2.742,4.993c0.864,1.916,1.652,3.906,2.415,5.831c2.897,7.313,5.635,14.22,12.45,18.205
					c0.387,0.227,0.518,0.724,0.291,1.111C767.814,709.674,767.542,709.818,767.263,709.818z"/><path fill="#fceede" d="M1047.774,623.456c-22.701,10.801-45.051,22.339-67.004,34.588
				c-7.183,4.008-14.345,8.107-20.923,13.045c-7.274,5.461-13.798,11.923-21.439,16.858c-10.398,6.714-22.629,10.444-32.354,18.099
				c-7.226,5.688-10.279,15.952-20.907,7.967c-4.118-3.094-7.929-7.442-13.073-7.705c-4.123-0.211-8.011,2.362-12.133,2.139
				c-2.189-0.118-4.248-1.018-6.275-1.852c-16.886-6.939-35.317-10.089-53.55-9.15c-3.428,28.048-20.025,54.203-43.942,69.25
				c24.462,12.877,51.225,21.346,78.629,24.965c12.032,1.589,23.95,0.84,36.128,1.998c14.703,1.398,29.578,1.902,44.244-0.182
				c9.37-1.332,18.556-3.698,27.72-6.06c20.626-5.316,41.219-9.712,60.538-18.33c20.526-9.156,42.262-18.588,63.618-25.646
				c11.571-3.824,24.097-6.725,32.882-15.171c4.316-4.149,7.443-9.424,9.622-15.001c3.943-10.09,4.86-21.066,5.737-31.864
				c0.948-11.67,1.897-23.34,2.845-35.01c1.062-13.074,1.77-38.573-16.692-39.211
				C1083.198,606.55,1063.775,615.842,1047.774,623.456z"/><path fill="#efddc7" d="M1034.117,739.774c-0.075,0-0.15-0.006-0.226-0.016c-28.711-4.108-58.404-8.354-87.828-6.627
					c-1.565,0.093-3.131,0.201-4.697,0.31c-5.732,0.399-11.659,0.81-17.534,0.371c-13.861-1.035-27.113-6.803-37.315-16.242
					c-0.642-0.593-0.68-1.594-0.086-2.237c0.595-0.642,1.595-0.68,2.237-0.086c9.678,8.954,22.251,14.426,35.401,15.409
					c5.647,0.421,11.459,0.018,17.079-0.373c1.577-0.109,3.154-0.219,4.73-0.311c29.75-1.751,59.596,2.523,88.462,6.653
					c0.866,0.124,1.466,0.926,1.342,1.791C1035.569,739.205,1034.892,739.774,1034.117,739.774z"/><path fill="#efddc7" d="M1064.13,743.63c-0.521,0-1.03-0.256-1.333-0.727c-0.472-0.735-0.26-1.714,0.476-2.187
					c1.356-0.872,2.65-1.594,3.9-2.292c4.524-2.527,7.253-4.051,7.138-9.005c-0.077-3.327-1.987-6.778-5.241-9.468
					c-3.064-2.534-6.874-4.169-10.559-5.751c-15.413-6.613-31.351-13.453-48.209-15.644c-0.866-0.113-1.478-0.907-1.366-1.774
					c0.114-0.866,0.913-1.464,1.774-1.366c17.294,2.248,33.437,9.176,49.049,15.875c3.891,1.67,7.914,3.397,11.328,6.22
					c3.962,3.276,6.29,7.59,6.388,11.835c0.16,6.859-4.172,9.279-8.759,11.841c-1.208,0.675-2.458,1.372-3.733,2.192
					C1064.719,743.549,1064.423,743.63,1064.13,743.63z"/><path fill="#dbc2a0" d="M836.326,748.75l-0.591-1.708c2.137-0.74,3.753-1.528,5.084-2.482
					c3.423-2.453,5.877-6.683,7.503-12.932c0.396-1.52,0.734-3.061,1.072-4.601c0.796-3.625,1.618-7.372,3.205-10.836
					c2.087-4.557,6.443-9.634,12.405-10.214l0.176,1.799c-5.199,0.506-9.058,5.068-10.937,9.168
					c-1.506,3.288-2.308,6.94-3.082,10.47c-0.344,1.563-0.687,3.125-1.088,4.669c-1.737,6.674-4.419,11.236-8.2,13.946
					C840.394,747.088,838.632,747.953,836.326,748.75z"/><path fill="#5f515c" d="M1004.58,768.574c-6.564,2.808-9.403,4.147-19.253,7.418
			c-2.849,0.946-14.673,6.885-17.655,6.534c-2.719-0.321-5.187-1.688-7.572-3.032c-30.899-17.413-61.627-35.602-88.975-58.334
			c-3.792-3.152-14.582-10.921-3.138-9.935c7.885,0.679,17.44,7.407,24.606,10.633c17.29,7.784,34.681,15.342,52.168,22.673
			C964.66,752.871,984.443,760.826,1004.58,768.574z" opacity=".4"/><path fill="#fceede" d="M1416.797,725.197c9.669,28.571,12.938,59.263,25.381,86.741
				c7.385,16.307,18.197,32.756,15.676,50.479c-2.175,15.291-13.895,27.353-25.907,37.061c-9.81,7.928-22.01,15.463-34.264,12.473
				c-12.057-2.942-19.4-14.911-24.687-26.139c-5.126-10.885-9.571-22.078-13.854-33.322
				c-22.576-59.274-40.957-122.509-32.875-185.42c1.333-10.379-0.072-26.429,11.383-31.222c5.321-2.227,11.485-1.75,16.903,0.231
				c5.418,1.981,10.208,5.354,14.756,8.903C1393.094,663.544,1407.335,697.238,1416.797,725.197z"/><path fill="#efddc7" d="M1424.538,839.595c-0.625,0-1.218-0.374-1.468-0.99c-6.228-15.422-4.093-32.264-2.027-48.551
					c0.935-7.375,1.901-15.001,2.07-22.369c0.382-16.757-3.424-33.514-11.009-48.458c-0.396-0.78-0.085-1.732,0.695-2.127
					c0.783-0.398,1.733-0.083,2.127,0.695c7.821,15.407,11.747,32.685,11.351,49.963c-0.173,7.531-1.149,15.24-2.095,22.695
					c-2.106,16.616-4.096,32.31,1.824,46.968c0.327,0.81-0.065,1.732-0.875,2.059
					C1424.937,839.558,1424.735,839.595,1424.538,839.595z"/><path fill="#efddc7" d="M1436.963,834.932c-0.112,0-0.228-0.012-0.344-0.037c-0.853-0.189-1.393-1.034-1.203-1.887
					c1.442-6.529,0.103-13.126-1.314-20.11c-1.157-5.706-2.354-11.608-1.922-17.534c0.065-0.872,0.8-1.519,1.695-1.464
					c0.872,0.064,1.526,0.823,1.463,1.694c-0.401,5.493,0.752,11.178,1.867,16.675c1.42,7,2.89,14.238,1.302,21.422
					C1438.343,834.429,1437.689,834.932,1436.963,834.932z"/><path fill="#ffa688" d="M666.027,902.928c-4.753,3.153-9.911,5.636-15.067,8.072c-17.451,8.244-35.1,16.07-52.948,23.415
					c-12.618,5.193-21.715,10.483-35.796,7.858c-3.706-0.691-11.759-3.466-14.308,0.894c-0.19,0.326-0.341,0.694-0.643,0.921
					c-0.365,0.273-0.857,0.273-1.312,0.301c-2.396,0.144-6.027,1.497-6.307,3.881c-0.093,0.796,1.172,1.893,0.799,2.602
					c-0.26,0.495-0.739,0.838-1.051,1.301c-0.703,1.042-0.324,2.649,0.77,3.267c0.724,0.409,1.756,0.509,2.06,1.283
					c0.13,0.33,0.079,0.7,0.111,1.053c0.167,1.818,2.111,3.995,3.859,4.521c0.234,0.07,0.661-1.199,0.826-1.019
					c0.141,0.154-0.457,1.515-0.399,1.715c0.765,2.642,1.975,4.212,3.127,6.71c2.575,5.585,9.057,9.266,14.009,12.463
					c7.57,4.886,15.857,9.766,24.861,9.428c13.268-0.497,23.407-11.931,35.964-16.243c13.622-4.677,28.388-0.663,41.973,2.1
					c7.156,1.455,15.486,3.474,21.856-1.3c8.083-6.058,11.613-17.704,16.069-26.307c5.443-10.508,12.675-20.086,21.293-28.197
					c2.255-2.123,4.767-4.456,5.042-7.541c0.206-2.315-0.92-4.516-2.014-6.566c-7.611-14.274-15.223-28.548-22.838-42.829
					c-5.516-10.326-14.443,11.148-18.021,16.085C681.822,889.24,674.769,897.129,666.027,902.928z"/><path fill="#e28065" d="M551.065,972.781c-0.209,0-0.418-0.08-0.577-0.24c-2.778-2.806-6.211-6.978-3.96-10.802
						c0.586-0.994,1.581-1.558,2.277-1.895c6.503-3.153,13.921,0.128,19.66,3.336l0.354,0.198
						c5.509,3.081,11.751,6.574,17.795,5.131c0.437-0.102,0.875,0.165,0.978,0.601c0.104,0.436-0.165,0.874-0.601,0.978
						c-6.663,1.588-13.198-2.068-18.965-5.293l-0.354-0.198c-5.396-3.018-12.337-6.118-18.159-3.293
						c-0.806,0.391-1.311,0.791-1.587,1.259c-1.281,2.175-0.1,4.982,3.715,8.835c0.315,0.319,0.313,0.833-0.005,1.148
						C551.478,972.703,551.272,972.781,551.065,972.781z"/><path fill="#e28065" d="M546.291,963.162c-0.13,0-0.263-0.032-0.386-0.098c-1.162-0.629-2.364-1.28-3.368-2.256
						c-1.189-1.157-1.848-2.613-1.808-3.997c0.08-2.787,2.871-4.714,5.411-4.901c2.524-0.182,4.96,0.889,6.918,1.754
						c1.889,0.833,4.024,1.776,6.143,1.621c0.461-0.028,0.836,0.303,0.87,0.749c0.033,0.448-0.303,0.836-0.749,0.87
						c-2.533,0.182-4.959-0.89-6.917-1.755c-1.888-0.833-4.034-1.774-6.143-1.62c-1.845,0.136-3.856,1.506-3.909,3.328
						c-0.026,0.931,0.454,1.947,1.318,2.787c0.843,0.82,1.944,1.417,3.009,1.993c0.394,0.213,0.541,0.706,0.327,1.101
						C546.858,963.008,546.579,963.162,546.291,963.162z"/><path fill="#e28065" d="M540.703,956.156c-0.004,0-0.008,0-0.013,0c-1.487-0.024-2.799-1.386-2.865-2.975
						c-0.054-1.314,0.675-2.65,1.902-3.487c0.913-0.622,2.068-0.985,3.531-1.108c1.039-0.088,2.085-0.052,3.11,0.102
						c2.1,0.315,4.061,1.122,5.958,1.902c1.928,0.793,3.749,1.541,5.693,1.813c0.445,0.062,0.753,0.473,0.692,0.917
						c-0.062,0.444-0.467,0.753-0.917,0.692c-2.147-0.3-4.149-1.124-6.085-1.92c-1.892-0.778-3.678-1.512-5.583-1.798
						c-0.901-0.136-1.821-0.166-2.732-0.089c-1.177,0.099-2.077,0.372-2.753,0.833c-0.757,0.516-1.226,1.332-1.195,2.079
						c0.031,0.732,0.635,1.409,1.269,1.419c0.448,0.008,0.806,0.377,0.799,0.825C541.508,955.801,541.146,956.156,540.703,956.156z"/><path fill="#e28065" d="M539.404,949.949c-0.421,0-0.777-0.325-0.809-0.752c-0.087-1.174,0.32-2.305,1.179-3.272
						c1.076-1.212,2.771-2.011,4.424-2.084c2.581-0.104,4.894,1.01,7.134,2.096l0.216,0.105c2.112,1.023,4.353,1.994,6.551,1.642
						c0.438-0.069,0.859,0.231,0.93,0.674c0.071,0.442-0.231,0.859-0.674,0.93c-2.656,0.425-5.169-0.648-7.514-1.785l-0.216-0.105
						c-2.06-0.999-4.194-2.039-6.354-1.935c-1.23,0.055-2.488,0.645-3.283,1.54c-0.391,0.44-0.842,1.157-0.774,2.074
						c0.033,0.447-0.302,0.836-0.749,0.87C539.445,949.948,539.424,949.949,539.404,949.949z"/><path fill="#e28065" d="M562.447,944.919c-1.648,0-3.26-0.676-4.832-1.336c-0.565-0.237-1.128-0.473-1.685-0.672
						c-1.941-0.691-4.043-0.92-6.087-0.666c-0.509,0.064-1.078,0.17-1.431,0.474c-0.225,0.193-0.342,0.551-0.232,0.709
						c0.257,0.368,0.166,0.873-0.202,1.13c-0.366,0.256-0.873,0.165-1.13-0.203c-0.664-0.953-0.264-2.207,0.506-2.869
						c0.68-0.584,1.538-0.759,2.287-0.853c2.294-0.285,4.655-0.028,6.833,0.748c0.585,0.209,1.174,0.455,1.768,0.704
						c1.967,0.825,3.829,1.602,5.531,0.981c0.417-0.156,0.887,0.062,1.041,0.484c0.154,0.421-0.063,0.887-0.484,1.04
						C563.697,944.822,563.07,944.919,562.447,944.919z"/><path fill="#ffa688" d="M999.427,1716.378c6.625,7.798,18.629,9.999,28.754,6.9c12.73-3.897,22.216-5.32,36.066-3.934
				c18.248,1.825,34.703,12.293,52.927,14.389c10.482,1.203,27.172-4.098,35.654-10.042c14.096-9.878,0.602-15.519-10.844-15.977
				c-9.741-0.39-18.324-2.573-26.1-8.765c-6.168-4.912-11.065-11.272-17.242-16.173c-13.652-10.831-31.28-13.943-32.501-33.779
				c-1.024-16.637-0.759-33.354,0.792-49.95c0.264-2.821,0.498-5.914-1.122-8.239c-1.17-1.678-3.102-2.631-4.967-3.471
				c-11.976-5.395-30.121-12.966-43.548-11.474c-8.426,0.936-7.332,0.174-8.132,8.998c-0.72,7.941,0.032,16.244-0.272,24.236
				c-1.044,27.477-4.467,55.005-10.604,81.819C997.354,1695.004,992.533,1708.263,999.427,1716.378z"/><path fill="#fceede" d="M1161.041,1169.666c-19.227,78.424-36.846,157.241-52.835,236.388
				c-8.107,40.131-15.796,80.346-23.064,120.638c-3.633,20.136-7.28,40.281-10.585,60.474c-1.592,9.728-0.537,25.086-10.878,30.304
				c-8.414,4.246-28.322-3.538-36.951-5.641c-30.279-7.381-56.911-30.634-89.368-28.478c-6.351,0.422-14.109,1.302-17.744-3.922
				c-3.178-4.566-0.905-10.78,1.398-15.844c25.188-55.387,45.098-113.166,59.453-172.292c13.654-56.24,29.319-121.528,22.122-179.65
				c-3.464-27.979-14.228-54.458-24.89-80.556c-9.862-24.142-21.191-47.964-24.766-73.8c-6.193-44.762-28.225-85.072-60.176-117.113
				c-8.247-8.271-18.695-15.473-25.908-24.664c-7.252-9.24-12.026-20.81-19.245-30.409c-2.743-3.647-6.306-7.535-10.867-7.4
				c-3.607,0.107-6.91,2.801-10.483,2.299c-1.471-0.206-2.906-0.955-4.369-0.7c-1.671,0.291-2.82,1.774-3.922,3.063
				c-9.804,11.471-23.708,12.443-37.366,14.068c-11.877,1.413-23.998,6.987-33.61,14.028c-2.398,1.756-25.719,20.997-24.372,22.147
				c-18.279-15.602-36.558-31.203-54.837-46.805c-7.619-6.503-19.276-14.323-12.81-24.991c4.536-7.484,12.81-12.353,19.383-17.834
				c16.505-13.762,32.231-28.459,47.075-43.997c12.813-13.412,24.963-27.446,37.925-40.717
				c10.901-11.161,29.361-21.657,36.812-35.231c3.843-7.001,6.133-6.729,13.881-8.67c7.748-1.94,15.904-2.241,23.409-4.973
				c4.046-1.473,7.878-3.644,12.115-4.409c8.485-1.531,16.818,2.771,24.369,6.933c14.224,7.838,28.447,15.676,42.671,23.515
				c19.914,10.974,36.313,28.105,58.41,34.867c6.762,2.069,12.198,3.826,17.584,8.429c5.383,4.601,6.193,8.966,15.425,7.869
				c5.516-0.655,10.744-2.879,16.246-3.649c1.219-0.171,2.523-0.256,3.622,0.298c1.16,0.585,1.874,1.767,2.527,2.891
				c32.533,55.971,65.171,114.11,108.681,163.158c10.294,11.604,23.42,21.596,32.926,33.725c7.625,9.727,9.236,23.018,10.933,34.986
				c5.066,35.73-0.094,72.037-7.489,107.059C1168.319,1140.002,1164.678,1154.836,1161.041,1169.666z"/><g><path fill="#efddc7" d="M737.343,918.883c-0.389,0-0.779-0.142-1.084-0.43c-0.637-0.599-0.668-1.6-0.069-2.237
					c3.197-3.403,4.514-8.302,5.787-13.04l0.143-0.531c5.528-20.513,13.492-40.369,23.669-59.015
					c5.744-10.523,13.12-22.312,24.273-29.964c0.723-0.496,1.708-0.31,2.201,0.409c0.495,0.721,0.311,1.706-0.409,2.201
					c-10.603,7.275-17.721,18.677-23.285,28.871c-10.059,18.427-17.929,38.049-23.392,58.322l-0.142,0.528
					c-1.375,5.116-2.797,10.405-6.539,14.386C738.185,918.716,737.764,918.883,737.343,918.883z"/></g><g><path fill="#efddc7" d="M839.303,878.319c-0.692,0-1.323-0.457-1.52-1.147c-0.229-0.8,0.202-1.641,0.985-1.924
					c0.731-0.263,1.448-0.545,2.152-0.844c2.325-1.422,3.773-4.244,4.192-6.702c0.62-3.632-0.244-7.432-1.263-11.33
					c-2.211-8.455-4.841-16.904-7.815-25.113c-0.298-0.822,0.127-1.729,0.949-2.027c0.821-0.297,1.729,0.126,2.027,0.949
					c3.008,8.299,5.666,16.841,7.902,25.39c1.111,4.246,2.047,8.409,1.322,12.664c-0.146,0.851-0.38,1.722-0.703,2.581
					c7.705-5.224,12.825-12.94,14.204-21.827c0.134-0.865,0.943-1.458,1.807-1.322c0.864,0.134,1.456,0.943,1.322,1.807
					c-1.902,12.252-10.221,22.453-22.463,27.739c-0.837,0.487-1.758,0.855-2.763,1.071
					C839.525,878.307,839.413,878.319,839.303,878.319z"/></g><g><path fill="#efddc7" d="M947.74,1033.007c-0.761,0-1.433-0.551-1.56-1.327c-3.232-19.747,5.288-39.333,14.292-57.703
					c1.592-3.248,3.196-6.495,4.802-9.746c13.517-27.362,27.494-55.655,34.401-85.655c5.066-22.003,10.114-64.095-12.988-98.792
					c-0.484-0.728-0.288-1.71,0.44-2.194c0.729-0.487,1.711-0.286,2.195,0.44c23.76,35.685,18.618,78.758,13.439,101.256
					c-6.99,30.36-21.051,58.822-34.648,86.347c-1.604,3.246-3.207,6.491-4.798,9.735c-8.778,17.911-17.091,36.973-14.01,55.799
					c0.141,0.863-0.444,1.677-1.306,1.818C947.911,1033,947.825,1033.007,947.74,1033.007z"/></g><g><path fill="#efddc7" d="M1051.086,1579.08c-0.01,0-0.02,0-0.03,0c-0.874-0.015-1.569-0.736-1.554-1.611
					c1.434-78.547-13.011-158.706-41.774-231.815c-6.135-15.592-8.149-23.068-8.797-39.453c-0.035-0.874,0.645-1.61,1.519-1.645
					c0.864-0.006,1.61,0.647,1.644,1.519c0.635,16.048,2.499,22.966,8.579,38.421c28.915,73.491,43.436,154.072,41.995,233.032
					C1052.651,1578.391,1051.946,1579.08,1051.086,1579.08z"/></g><path fill="#5f515c" d="M1003.871,932.011c2.287,9.992,6.507,19.42,10.702,28.772
			c12.47,27.805,24.941,55.611,37.411,83.417c6.281-12.542,12.562-25.084,18.844-37.626c11.233-22.43,22.586-45.2,27.47-69.806
			c0.594-2.993,1.088-6.109,0.352-9.07c-0.764-3.075-2.772-5.667-4.73-8.159c-19.586-24.925-39.172-49.85-58.758-74.775
			c-5.401-6.874-12.818-14.522-21.339-12.573c-5.89,1.347-9.884,7.197-10.935,13.147c-1.199,6.785-0.705,14.582,0,21.383
			C1005.188,888.896,999.225,909.943,1003.871,932.011z" opacity=".4"/><path fill="#5f515c" d="M1038.689,1153.613c14.217,8.904,29.457,16.363,42.313,27.139
			c6.491,5.441,12.293,11.664,18.787,17.101c15.348,12.852,33.328,21.381,45.62,37.182c3.365-15.127,4.659-19.373,8.677-36.691
			c0.25-1.076,0.403-15.164-0.1-16.147c-0.515-1.007-1.596-1.572-2.61-2.072c-30.383-14.98-61.381-28.71-92.891-41.147
			c-8.777-3.464-32.174-17.609-41.428-10.782C1006.816,1135.749,1032.496,1149.734,1038.689,1153.613z" opacity=".4"/><g><path fill="#fceede" d="M1209.094,611.524c3.264,8.55,6.538,16.022,7.208,18.404
				c9.445,33.596,12.987,71.047,13.322,105.983c0.107,11.18-0.224,22.512-3.338,33.25c-5.37,18.518-18.463,33.642-31.194,48.122
				c-30.517,34.71-61.034,69.42-91.551,104.13c-4.3,4.891-53.712,59.361-56.837,54.212c-4.688-7.726-9.706-15.172-14.09-22.966
				c-3.003-5.339-1.135-12.87,4.014-16.188c-4.845-6.232-9.958-13.356-9.066-21.198c0.388-3.41,1.904-6.933,0.676-10.137
				c-1.882-4.913-8.436-5.486-13.099-7.923c-5.979-3.125-9.201-10.043-9.705-16.77c-0.498-6.655,2.107-12.578,2.455-19.046
				c0.292-5.432,0.075-11.29-0.032-16.78c-0.251-12.837-2.364-25.65-6.708-37.75c-3.687-10.27-5.225-27.239,10.81-28.291
				c2.034-0.133,4.074,0.113,6.074,0.507c4.311,0.848,10.225,1.171,13.592-2.284c1.199-1.231,1.946-2.818,2.766-4.329
				c5.638-10.39,14.624-16.762,25.665-20.078c4.82-1.448,9.787-2.889,13.772-5.963c9.6-7.406,10.734-21.843,19.206-30.517
				c2.982-3.053,6.841-5.351,8.987-9.039c2.485-4.271,2.193-9.544,1.826-14.472c-2.125-28.53-4.251-57.06-6.376-85.59
				c23.494,0.728,47.138-3.866,68.65-13.339c4.764-2.098,9.946-3.652,14.058,0.357c7.601-6.178,23.456-16.731,35.968-16.731
				C1210.026,579.319,1203.763,597.561,1209.094,611.524z"/><path fill="#efddc7" d="M1168.767,846.827c-0.313,0-0.629-0.092-0.906-0.286c-0.716-0.501-0.89-1.487-0.39-2.204
					c10.951-15.662,23.364-33.414,26.876-53.489c3.558-20.333-2.236-41.091-7.839-61.165c-1.126-4.033-2.248-8.054-3.295-12.062
					c-7.993-30.596-11.697-62.141-11.009-93.757c0.245-11.278,1.445-22.875,8.503-31.28c0.564-0.669,1.561-0.756,2.23-0.195
					c0.67,0.562,0.757,1.56,0.195,2.23c-6.429,7.657-7.53,18.614-7.763,29.314c-0.681,31.322,2.988,62.575,10.907,92.888
					c1.043,3.99,2.16,7.995,3.281,12.011c5.698,20.414,11.59,41.522,7.908,62.561c-3.633,20.768-16.259,38.826-27.4,54.758
					C1169.758,846.592,1169.266,846.827,1168.767,846.827z"/><path fill="#efddc7" d="M1077.024,749.498c-1.128,0-2.287-0.006-3.485-0.02c-0.874-0.011-1.574-0.727-1.564-1.601
					c0.01-0.868,0.717-1.564,1.582-1.564c0.007,0,0.013,0,0.019,0c6.292,0.076,11.542-0.069,16.614-0.209
					c5.103-0.141,10.383-0.286,16.737-0.211c6.753,0.078,13.737,0.162,20.198-1.868c6.955-2.187,12.189-6.793,14.002-12.32
					c0.273-0.83,1.168-1.282,1.997-1.011c0.831,0.273,1.283,1.167,1.011,1.997c-2.13,6.495-8.134,11.861-16.061,14.353
					c-6.941,2.183-14.176,2.1-21.184,2.014c-6.295-0.075-11.541,0.07-16.613,0.21
					C1086.135,749.381,1081.879,749.498,1077.024,749.498z"/><path fill="#efddc7" d="M1118.411,708.393c-0.721,0-1.373-0.495-1.541-1.229c-0.196-0.852,0.337-1.701,1.188-1.897
					c3.488-0.802,5.822-4.384,7.644-7.782c4.368-8.149,7.82-16.803,10.259-25.721c1.943-7.107,3.274-14.521,4.561-21.69
					c1.261-7.021,2.564-14.281,4.448-21.316c4.657-17.389,12.409-30.06,23.041-37.661c0.713-0.509,1.701-0.343,2.208,0.367
					c0.508,0.711,0.344,1.7-0.367,2.208c-10.019,7.163-17.362,19.243-21.824,35.905c-1.849,6.906-3.141,14.099-4.389,21.055
					c-1.299,7.238-2.643,14.723-4.624,21.966c-2.502,9.148-6.042,18.024-10.523,26.382c-2.159,4.025-5.002,8.286-9.725,9.372
					C1118.649,708.38,1118.529,708.393,1118.411,708.393z"/><path fill="#efddc7" d="M1070.594,954.17c-0.668,0-1.288-0.426-1.506-1.095c-2.361-7.287-5.904-12.804-9.33-18.139
					c-6.108-9.516-11.385-17.734-6.439-31.533c1.001-2.797,1.054-4.58,0.159-5.446c-0.632-0.614-1.738-0.789-3.117-0.956
					c-11.405-1.373-17.258-11.218-22.919-20.74c-4.701-7.906-9.561-16.081-17.562-19.52c-0.803-0.345-1.174-1.276-0.829-2.079
					c0.347-0.804,1.279-1.176,2.079-0.83c8.947,3.846,14.074,12.471,19.033,20.811c5.512,9.271,10.718,18.028,20.577,19.215
					c1.474,0.178,3.494,0.421,4.942,1.825c2.793,2.708,1.212,7.124,0.617,8.787c-4.42,12.333,0.233,19.58,6.123,28.755
					c3.37,5.248,7.188,11.197,9.677,18.873c0.27,0.832-0.186,1.724-1.017,1.994C1070.919,954.145,1070.755,954.17,1070.594,954.17z"/><path fill="#efddc7" d="M1062.867,945.845c-0.586,0-1.206-0.24-1.575-0.789c-10.47-0.688-20.744-5.041-28.417-12.038
					c-0.645-0.589-0.692-1.59-0.102-2.236c0.587-0.646,1.588-0.695,2.236-0.102c7.363,6.714,17.295,10.816,27.249,11.254
					c1.614,0.072,2.325,1.007,2.453,1.858c0.129,0.871-0.367,1.673-1.205,1.953C1063.307,945.811,1063.089,945.845,1062.867,945.845
					z M1062.227,945.107h0.015H1062.227z"/><path fill="#efddc7" d="M1027.659,911.666c-0.729,0-1.384-0.505-1.545-1.246c-1.026-4.718-0.933-9.683,0.267-14.36
					l0.104-0.401c0.253-0.957,0.491-1.862,0.363-2.625c-0.116-0.689-0.562-1.422-0.994-2.13c-1.431-2.348-2.911-4.776-4.854-6.652
					c-1.182-1.142-3.611-3.055-6.593-3.055c-0.874,0-1.583-0.709-1.583-1.583c0-0.874,0.709-1.583,1.583-1.583
					c3.035,0,6.157,1.4,8.791,3.943c2.237,2.159,3.823,4.764,5.358,7.282c0.533,0.873,1.196,1.962,1.414,3.254
					c0.24,1.435-0.113,2.774-0.424,3.954l-0.1,0.382c-1.078,4.201-1.161,8.662-0.24,12.9c0.186,0.854-0.356,1.698-1.21,1.883
					C1027.884,911.654,1027.77,911.666,1027.659,911.666z"/></g><path fill="#5f515c" d="M1140.424,861.866c6.041-7.49,13.71-13.514,19.982-20.811
			c6.193-7.206,10.957-15.575,17.399-22.56c9.235-10.013,35.915-19.41,51.819-82.584c1.302,3.733-19.402,67.067-21.598,70.355
			c-21.271,31.842-42.625,63.801-67.726,92.803c-6.499,7.509-26.778,36.145-38.703,33.208c-9.613-2.367,0.033-20.379,3.026-24.971
			c4.949-7.595,12.528-12.947,18.272-19.899C1129.494,879.421,1133.926,869.923,1140.424,861.866z" opacity=".4"/><g><path fill="#fceede" d="M1140.271,867.692c14.03-19.127,32.779-40.984,52.583-53.576
				c23.992-15.255,25.426-41.671,31.96-66.829c5.608-21.591,15.08-42.172,27.832-60.475c11.951-17.155,26.697-32.251,38.294-49.648
				c6.452-9.679,11.943-20.212,14.829-31.535c3.058-11.996,2.702-24.124,1.103-35.975c15.005,5.519,14.788,15.543,16.961,24.84
				c1.463,6.258,8.572,9.597,12.102,14.967c10.14,15.428,22.656,27.27,37.793,37.855c5.06,3.539,10.099,9.851,13.844,14.76
				c2.567,3.365,3.922,7.503,4.76,11.652c5.287,26.188-8.438,52.065-21.685,75.265c-16.531,28.953-33.062,57.907-49.594,86.86
				c-9.859,17.267-19.735,34.562-31.127,50.857c-28.094,40.186-65.371,73.911-108.16,97.854
				c-6.542,3.661-14.232,8.908-13.383,16.357c0.383,3.354,2.518,6.2,4.375,9.019c18.199,27.632,13.724,63.965,6.761,96.311
				c-6.963,32.346-15.617,66.742-3.959,97.707c-31.092-9.616-61.492-21.46-90.906-35.389c-15.503-7.341-76.223-29.856-80.274-47.003
				c-1.839-7.786,17.448-33.504,21.321-41.066c7.573-14.787,14.867-29.718,21.873-44.782c14.012-30.129,26.885-60.787,38.576-91.89
				C1096.201,917.091,1123.375,890.726,1140.271,867.692z"/><path fill="#efddc7" d="M1173.266,1178.371c-0.5,0-0.991-0.236-1.299-0.676c-3.706-5.301-9.955-8.458-15.469-11.244
					l-101.514-51.301c-0.393-0.199-0.685-0.551-0.807-0.975c-0.122-0.424-0.061-0.878,0.166-1.255
					c13.655-22.647,18.08-49.596,22.359-75.657c3.75-22.838,7.628-46.455,17.647-67.545c7.249-15.261,17.085-28.306,29.189-43.774
					c21.554-27.543,45.56-49.537,72.443-73.4c14.29-12.684,56.209-68.546,60.905-88.31c9.101-38.3,21.219-57.097,36.561-80.896
					c11.343-17.595,24.199-37.536,38.461-69.911c0.351-0.799,1.283-1.16,2.086-0.811c0.801,0.353,1.163,1.287,0.81,2.086
					c-14.361,32.604-27.289,52.657-38.696,70.351c-15.178,23.544-27.167,42.14-36.142,79.912
					c-4.801,20.207-47.381,77.074-61.883,89.946c-26.765,23.759-50.661,45.649-72.051,72.983
					c-11.982,15.311-21.712,28.213-28.823,43.181c-9.826,20.686-13.667,44.077-17.381,66.699
					c-4.237,25.804-8.613,52.464-21.903,75.312l100.003,50.538c5.557,2.807,12.474,6.302,16.635,12.254
					c0.501,0.716,0.326,1.704-0.391,2.204C1173.896,1178.277,1173.579,1178.371,1173.266,1178.371z"/><path fill="#efddc7" d="M1016.712,1135.961c-0.23,0-0.464-0.051-0.686-0.157c-6.689-3.218-8.799-7.694-10.037-13.875
					c-1.304-6.514,2.776-12.339,6.376-17.478l0.38-0.542c10.755-15.384,17.651-33.235,24.319-50.497l5.614-14.534
					c0.316-0.816,1.234-1.221,2.047-0.906c0.816,0.314,1.222,1.231,0.907,2.046l-5.614,14.534
					c-6.736,17.439-13.702,35.471-24.678,51.172l-0.381,0.545c-3.394,4.843-6.903,9.853-5.864,15.038
					c1.267,6.328,3.363,9.266,8.305,11.644c0.788,0.379,1.119,1.325,0.74,2.112
					C1017.866,1135.63,1017.301,1135.961,1016.712,1135.961z"/><path fill="#efddc7" d="M1354.279,796.056c-0.029,0-0.057-0.001-0.086-0.002c-0.872-0.046-1.542-0.792-1.496-1.664
					c0.388-7.306,1.871-14.488,4.409-21.345c1.996-5.397,4.644-10.565,7.206-15.563c1.48-2.888,3.01-5.873,4.385-8.851
					c4.554-9.859,6.373-17.851,5.723-25.147c-0.079-0.87,0.565-1.639,1.436-1.717c0.881-0.082,1.639,0.566,1.716,1.437
					c0.703,7.87-1.205,16.372-6,26.755c-1.403,3.036-2.948,6.051-4.443,8.966c-2.519,4.916-5.123,9.998-7.054,15.218
					c-2.428,6.558-3.846,13.427-4.218,20.415C1355.813,795.402,1355.114,796.056,1354.279,796.056z"/></g><g><path fill="#5f515c" d="M1067.683,828.07c7.895,20.175,15.611,41.248,30.83,56.667
				c4.112,4.166,21.013,23.538,25.134,29.272c18.803,26.16,47.893,44.305,79.374,51.254c3.997,0.882,4.877,6.208,1.424,8.405
				l-26.626,16.942c-1.185,0.754-2.419,1.526-3.811,1.712c-2.362,0.316-4.567-1.098-6.573-2.386
				c-19.236-12.345-39.889-17.88-57.082-33.587c-16.008-14.624-29.245-32.036-40.833-50.291
				c-8.05-12.681-15.345-25.822-22.403-39.074c-3.3-6.196-6.032-11.155-6.994-17.96c-1.141-8.076-1.839-16.267-5.133-23.847
				c-6.535-15.038-21.96-24.755-28.259-39.991c-0.488-1.181-0.593-2.535-0.13-3.726c1.686-4.338,7.894-1.968,12.272-2.924
				c4.421-0.965,6.211-5.531,10.043-7.105c5.309-2.18,3.942-0.78,6.853,3.409c5.198,7.481,12.462,13.658,17.143,21.455
				C1058.932,806.329,1063.429,817.199,1067.683,828.07z"/><path fill="#5f515c" d="M1195.135,1192.523c-1.741-19.938-2.781-39.938-3.116-59.949
					c-0.166-9.887-1.17-20.562,0.033-30.386c1.066-8.703,2.146-17.293,1.844-26.172c-0.458-13.473-3.475-26.716-6.625-39.824
					c-4.135-17.204-8.94-35.083-18.903-49.385c-0.063,0.927-0.132,1.851-0.204,2.766c-2.612,32.769-7.034,65.482-11.608,97.901
					c-4.775,33.841-7.831,68.481-1.826,102.376c2.453,13.85,6.566,27.77,15.019,39.012c1.445-0.585,1.993-2.003,3.437-2.588
					c1.257-0.509,2.514-1.018,3.792-1.47c2.642-0.936,5.369-1.628,8.13-2.112c4.796-0.84,10.031-2.994,14.575-4.742
					C1196.79,1209.816,1195.886,1201.126,1195.135,1192.523z"/><path fill="#5f515c" d="M1160.92,950.443c-7.459-9.118-19.9-12.533-31.654-13.33l-10.891,19.073
						c1.583-0.437,3.247-0.562,4.889-0.506c10.237,0.348,17.873,5.805,22.366,9.456c4.968,4.038,10.221,7.743,14.805,12.234
						c2.97,2.91,5.593,6.076,7.934,9.438C1169.243,973.995,1168.958,960.268,1160.92,950.443z"/><path fill="#4c3f4a" d="M1169.004,989.105l-1.286-1.845c-2.395-3.437-5.032-6.575-7.839-9.324
						c-3.186-3.122-6.775-5.92-10.245-8.625c-1.51-1.178-3.021-2.355-4.505-3.561c-4.706-3.824-12.096-8.946-21.894-9.279
						c-1.715-0.055-3.288,0.102-4.652,0.478l-1.849,0.509l12.089-21.169l0.495,0.034c10.178,0.689,24.027,3.612,32.213,13.618l0,0
						c8.254,10.089,8.486,24.325,7.625,36.92L1169.004,989.105z M1122.551,954.876c0.243,0,0.49,0.004,0.739,0.012
						c10.274,0.35,17.954,5.665,22.839,9.633c1.477,1.2,2.978,2.37,4.479,3.541c3.505,2.733,7.13,5.558,10.379,8.743
						c2.377,2.328,4.634,4.926,6.728,7.742c0.651-11.713,0.025-24.516-7.408-33.603c-7.698-9.41-20.787-12.279-30.601-13.007
						l-9.776,17.119C1120.759,954.936,1121.635,954.876,1122.551,954.876z"/><path fill="#5f515c" d="M1109.522,911.364c2.967,2.89,5.021,6.583,6.754,10.345c0.767,1.665,1.553,3.446,3.071,4.473
					c1.098,0.743,2.442,0.995,3.702,1.406c4.9,1.598,8.779,5.988,9.763,11.047c-4.459,5.993-8.918,11.985-13.377,17.978
					c-1.199,1.611-2.505,3.305-4.392,3.993c-1.483,0.54-3.12,0.379-4.681,0.153c-8.216-1.186-16.2-3.951-23.391-8.099
					c-3.211-1.852-6.547-4.41-7.047-8.083c-0.476-3.497,1.773-6.692,3.398-9.825c3.153-6.077,4.17-13.235,2.835-19.95
					c-0.178-0.895-0.383-1.881,0.07-2.673c0.408-0.713,1.235-1.055,2.007-1.336C1096.011,907.967,1102.87,904.884,1109.522,911.364z
					"/><path fill="#4c3f4a" d="M1112.74,961.76c-0.859,0-1.706-0.104-2.491-0.217c-8.26-1.193-16.446-4.028-23.673-8.197
					c-2.915-1.681-6.857-4.409-7.436-8.662c-0.431-3.164,1.123-5.985,2.626-8.714c0.291-0.53,0.581-1.057,0.854-1.582
					c3.089-5.953,4.069-12.854,2.76-19.432c-0.197-0.992-0.434-2.182,0.16-3.22c0.535-0.937,1.531-1.362,2.422-1.686l1.366-0.5
					c7.266-2.673,14.129-5.198,20.746,1.248l0,0c3.29,3.206,5.427,7.339,6.92,10.581l0.071,0.153
					c0.706,1.536,1.437,3.124,2.725,3.996c0.725,0.491,1.607,0.747,2.541,1.018c0.323,0.093,0.645,0.187,0.962,0.29
					c5.209,1.7,9.25,6.272,10.295,11.649l0.066,0.343l-13.586,18.258c-1.15,1.547-2.582,3.472-4.755,4.264
					C1114.476,961.655,1113.602,961.76,1112.74,961.76z M1100.6,908.33c-3.374,0-6.909,1.301-10.725,2.705l-1.37,0.502
					c-0.656,0.239-1.319,0.511-1.59,0.985c-0.3,0.525-0.142,1.319,0.011,2.089c1.386,6.965,0.353,14.235-2.901,20.505
					c-0.278,0.537-0.574,1.075-0.873,1.617c-1.379,2.503-2.803,5.092-2.444,7.737c0.369,2.713,2.485,5.097,6.658,7.505
					c7.055,4.07,15.045,6.836,23.109,8.001c1.444,0.208,2.969,0.37,4.297-0.113c1.728-0.63,3.003-2.345,4.028-3.722l13.164-17.693
					c-1.03-4.607-4.672-8.643-9.162-10.108c-0.3-0.098-0.606-0.186-0.913-0.276c-1.01-0.293-2.056-0.596-2.987-1.227
					c-1.654-1.12-2.516-2.993-3.276-4.645l-0.07-0.153c-1.437-3.119-3.484-7.086-6.588-10.11
					C1106.25,909.281,1103.485,908.33,1100.6,908.33z"/><g><path fill="#5f515c" d="M1122.728,927.398c-1.852-1.32-4.281-1.453-6.555-1.393c-10.166,0.272-20.234,3.525-28.635,9.254
					L1122.728,927.398z"/><path fill="#4c3f4a" d="M1087.983,935.914l-0.892-1.308c8.48-5.783,18.801-9.118,29.06-9.391
					c2.325-0.065,4.978,0.072,7.036,1.539l-0.92,1.289c-1.677-1.196-4.01-1.3-6.075-1.246
					C1106.234,927.062,1096.215,930.3,1087.983,935.914z"/></g><g><path fill="#5f515c" d="M1086.407,912.862c4.261-0.097,8.54,1.371,11.845,4.062c3.305,2.691,5.609,6.584,6.378,10.776
					L1086.407,912.862z"/><path fill="#4c3f4a" d="M1103.851,927.842c-0.732-3.988-2.955-7.745-6.1-10.305c-3.144-2.56-7.27-3.948-11.327-3.884
					l-0.035-1.582c4.432-0.098,8.931,1.444,12.362,4.239c3.432,2.795,5.858,6.894,6.658,11.247L1103.851,927.842z"/></g><path fill="#5f515c" d="M1086.407,929.096c-4.203,13.531-6.941,12.111-7.344,12.725
				c-4.005,6.107-8.999,11.564-14.728,16.093c-3.979,3.146-8.333,5.868-11.838,9.534c-2.575,2.693-4.629,5.833-6.656,8.96
				c-7.591,11.712-14.195,24.048-21.987,35.628c-15.228,22.631-54.354,18.548-61.716,9.589c0,0-2.057,7.838-3.149,10.782
				c-1.013,2.732-2.029,5.761-0.995,8.485c1.252,3.298,4.975,4.836,8.356,5.843c20.742,6.18,44.79,5.387,62.136-7.557
				c12.71-9.484,20.411-24.323,25.152-39.456c2.189-6.989,3.844-14.178,4.355-21.484c0.516-7.383-0.14-14.803,0.179-22.197
				c0.409-9.477,2.476-18.995,7.006-27.33c4.53-8.335,12.435-12.29,21.229-15.848
				C1086.407,912.862,1088.486,922.402,1086.407,929.096z"/></g><path fill="#f3e3ca" d="M1295.104,903.598c0,0-9.525-8.171,19.571-71.714c10.048-21.944,27.934-25.975,32.821-32.405
			c4.056-5.338,12.044-5.747,16.438-0.683c0.053,0.061,0.105,0.122,0.158,0.184c5.255,6.162,10.115,13.993,10.869,30.24
			c0.754,16.247-14.004,59.865-14.004,59.865s-8.472,32.841-28.474,31.271C1312.479,918.785,1295.104,903.598,1295.104,903.598z"/><g><path fill="#ffa688" d="M1328.9,918.459c-2.713-2.961-2.331-9.161-3.105-12.753c-1.778-8.243-3.556-16.487-5.334-24.73
				c-3.637-16.862-7.274-33.724-10.911-50.586c-1.187-5.503-2.41-11.104-5.196-15.995c-5.559-9.76-16.582-15.438-22.211-25.158
				c-3.452-5.96-4.589-12.962-7.3-19.293c-3.47-8.104-8.324-15.514-11.903-23.567c-1.457-3.276-9.187-16.277-0.328-15.552
				c2.414,0.197,4.417,1.866,6.242,3.457c0.431,0.943,0.108-1.674-0.081-0.655c-1.67-7.001-3.466-12.121-5.136-19.122
				c-0.465-1.951-0.934-3.955-0.669-5.943c0.265-1.988,1.43-3.986,3.322-4.651c-0.954-1.92-1.921-3.891-2.162-6.021
				c-0.241-2.13,0.386-4.489,2.104-5.771c1.718-1.282,4.592-0.971,5.574,0.934c-2.681-5.203,8.713-3.01,9.903-2.554
				c5.244,2.01,8.086,6.137,12.09,9.842c10.205,9.444,19.531,19.791,27.751,31.01c-2.074-2.831-4.872-10.078-5.288-13.656
				c-0.519-4.469,0.682-9.342,4.284-12.283c1.349-1.101,3.225-1.895,4.813-1.181c2.456,1.105,2.304,4.55,2.169,7.239
				c-0.754,15.039,14.202,22.395,15.272,36.806c0.728,9.797-1.3,19.691,0.64,29.417c1.339,6.712,4.521,12.893,7.667,18.971
				c7.014,13.554,11.554,28.034,20.136,40.906c4.593,7.813,9.54,16.045,9.476,25.108c-0.038,5.379-1.875,10.603-4.299,15.405
				c-7.34,14.548-19.765,25.565-32.153,35.761c-3.832,3.154-9.912,9.516-14.994,4.983
				C1329.143,918.711,1329.019,918.588,1328.9,918.459z"/><path fill="#e28065" d="M1287.26,762.004c-0.282,0-0.552-0.139-0.716-0.376l-19.752-28.771
					c-0.253-0.37-0.159-0.875,0.21-1.129c0.37-0.253,0.875-0.159,1.129,0.21l19.467,28.356c0.087,0.03,0.171,0.076,0.247,0.139
					c0.246,0.201,0.371,0.584,0.29,0.891c-0.08,0.307-0.414,0.613-0.726,0.668C1287.359,762,1287.309,762.004,1287.26,762.004z
					 M1286.816,761.688c0.001,0.001,0.001,0.002,0.001,0.002C1286.817,761.689,1286.817,761.689,1286.816,761.688z
					 M1286.815,761.687L1286.815,761.687L1286.815,761.687z"/><path fill="#e28065" d="M1300.062,754.063c-0.253,0-0.502-0.119-0.66-0.338c-6.37-8.867-12.273-18.206-17.546-27.758
					c-0.769-1.393-1.527-2.794-2.285-4.196c-2.811-5.196-5.717-10.568-9.185-15.433c-0.675-0.946-1.771-1.959-2.699-2.091
					c-0.322-0.046-0.585,0.023-0.83,0.216c-0.353,0.278-0.863,0.217-1.14-0.134c-0.278-0.351-0.218-0.862,0.134-1.14
					c0.59-0.467,1.3-0.654,2.064-0.549c1.499,0.213,2.941,1.564,3.792,2.756c3.527,4.946,6.457,10.364,9.291,15.603
					c0.756,1.397,1.512,2.795,2.279,4.185c4.864,8.811,10.269,17.442,16.083,25.684c0.211,0.052,0.401,0.188,0.516,0.392
					l0.893,1.595c0.211,0.376,0.092,0.851-0.272,1.082C1300.363,754.022,1300.212,754.063,1300.062,754.063z"/><path fill="#e28065" d="M1310.682,742.859c-0.235,0-0.467-0.101-0.628-0.296c-8.978-10.926-17.337-22.542-24.844-34.527
					l-0.152-0.242c-3.971-6.339-8.077-12.893-14.771-15.426c-0.419-0.159-0.631-0.628-0.472-1.047
					c0.16-0.419,0.629-0.628,1.047-0.472c7.205,2.727,11.65,9.823,15.572,16.083l0.152,0.242
					c7.471,11.927,15.789,23.486,24.722,34.358c0.285,0.347,0.235,0.858-0.112,1.142
					C1311.045,742.798,1310.863,742.859,1310.682,742.859z"/></g><g><path fill="#fceede" d="M1319.031,913.759c8.226,0.683,16.905-1.602,22.931-7.243
				c10.624-9.946,10.383-26.434,12.041-40.892c1.382-12.055,4.617-23.896,9.555-34.979c3.081-6.915,6.924-14.227,5.404-21.643
				c-1.683-8.21-9.315-13.617-16.346-18.178c5.634,0.401,9.905,5.096,13.304,9.607c18.978,25.185,30.575,55.026,41.94,84.443
				c3.438,8.898,6.89,18.842,3.38,27.712c-2.562,6.475-8.373,11.025-14.107,14.977c-9.294,6.406-19.072,12.111-29.222,17.05
				c-12.67,6.165-31.181,11.618-42.993,1.047c-6.518-5.833-11.915-14.137-16.904-21.268c-2.992-4.276-10.816-17.62-12.909-20.794
				C1303.297,907.696,1309.345,912.954,1319.031,913.759z"/><path fill="#efddc7" d="M1430.456,856.521c-0.615,0.001-1.2-0.361-1.456-0.962c-5.51-12.92-19.679-21.672-33.705-20.823
					c-1.966,0.12-3.679,0.395-5.238,0.841c-0.906,0.26-1.978,0.569-3.101,0.226c-1.485-0.454-2.254-1.771-2.714-2.559
					l-14.548-24.849c-0.441-0.754-0.188-1.724,0.567-2.165c0.756-0.441,1.725-0.187,2.166,0.566l14.548,24.849
					c0.197,0.337,0.605,1.037,0.909,1.13c0.226,0.07,0.75-0.083,1.171-0.205c1.915-0.548,3.849-0.861,6.049-0.995
					c15.296-0.937,30.79,8.632,36.807,22.741c0.344,0.804-0.031,1.734-0.835,2.076
					C1430.875,856.48,1430.664,856.521,1430.456,856.521z"/><path fill="#efddc7" d="M1414.123,874.728c-0.795,0-1.479-0.595-1.571-1.403c-1.032-9.029-3.569-16.644-7.54-22.63
					c-4.671-7.041-11.499-11.866-18.735-13.236c-0.86-0.163-1.423-0.991-1.262-1.849c0.165-0.857,0.995-1.427,1.85-1.261
					c8.069,1.528,15.645,6.849,20.783,14.596c4.251,6.407,6.96,14.488,8.049,24.021c0.099,0.868-0.525,1.653-1.392,1.752
					C1414.243,874.725,1414.183,874.728,1414.123,874.728z"/><path fill="#efddc7" d="M1380.437,926.966c-0.827,0-1.524-0.643-1.577-1.481c-0.208-3.216-1.787-6.397-4.226-8.508
					c-1.383-1.196-3.022-2.086-4.758-3.029c-1.564-0.848-3.179-1.725-4.652-2.867c-3.769-2.922-6.485-7.373-8.545-14.009
					c-2.785-8.959-3.665-18.62-2.548-27.937c0.103-0.868,0.906-1.484,1.759-1.383c0.869,0.104,1.488,0.892,1.383,1.76
					c-1.064,8.878-0.225,18.084,2.428,26.621c1.859,5.986,4.23,9.94,7.462,12.446c1.269,0.985,2.703,1.763,4.222,2.587
					c1.808,0.981,3.677,1.996,5.319,3.417c3.113,2.694,5.05,6.594,5.313,10.698c0.057,0.873-0.605,1.625-1.477,1.681
					C1380.506,926.966,1380.471,926.966,1380.437,926.966z"/></g></g></svg>