<svg xmlns="http://www.w3.org/2000/svg" xml:space="preserve" id="Layer_1" x="0" y="0" style="enable-background:new 0 0 600 600" version="1.1" viewBox="0 0 600 600">
  <g id="Taekwondo">
    <g>
      <g>
        <path d="M528.6936646,392.8029785c-24.2632141,55.0213623-68.8991394,87.1940308-127.7300415,105.1899414
				c-0.1000671,0,0.0773315-0.0013428-0.7699585,0.2299805h-0.0100098
				c-92.2310486,28.3707886-201.2150421,9.4193726-269.0599976-58.8300781
				C28.6469498,336.4849548,27.7281723,144.3384399,153.463623,59.0629997
				c34.8197021-23.5798531,82.1577759-15.4950867,122.3400269-2.6801758h0.0100098
				c55.0571899,17.5268211,104.7029419,45.2250862,150.8999634,81.0800781c0,0,0.0100098,0,0.0100098,0.0100098
				c5.6122131,4.4952393,23.0416565,17.3859863,42.7700195,36.9001465
				C548.1609497,252.1058807,557.1505127,327.9830322,528.6936646,392.8029785z" style="fill:#f7e9b1"/>
        <path d="M154.4559479,422.2224426c0,0,25.8822174-34.3951416,39.3652649-28.8986206
				c13.4830322,5.496521,0,49.7075806,0,49.7075806s25.5615845-45.1669922,43.2580719-43.0161743
				s46.3479614,35.368866,46.3479614,35.368866s-15.4493103-43.2551575,8.988678-46.3618774
				c24.4380188-3.10672,82.3027344,36.5637207,82.3027344,36.5637207s-57.5838318-60.4616089-26.4042969-78.1460266
				s83.7072144,9.5591431,83.7072144,9.5591431s-52.8085938-31.7841492-44.100769-51.8583679
				c8.7077942-20.0742188,65.1679993-14.5776978,65.1679993-14.5776978s-91.5722961-0.7285767-89.6060181-27.9663391
				s60.1118774-60.4557953,60.1118774-60.4557953s-99.7183228,32.7400818-71.6286316-53.7702179
				c9.1007385-28.0283661,5.7799683-29.7626801,14.1247559-41.8591614c0,0-32.3830566,51.6572876-66.9333496,35.6457214
				S245.225296,96.0343018,245.225296,96.0343018s-5.8988342,59.7446747-32.3031158,61.4175262
				s-53.6512604-29.8723373-53.6512604-29.8723373s17.897934,64.763237-4.8149719,74.8003311
				c-22.7129059,10.0371094-58.6676712-2.3897858-58.6676712-2.3897858s68.2578812,36.0857849,53.0894699,56.8769379
				c-15.1684265,20.7911377-47.7524338,27.2435913-47.7524338,27.2435913s63.2017441-2.389801,69.1005783,5.7354736
				c5.898819,8.1252747-58.0990601,67.8760071-58.0990601,67.8760071s52.2002258-4.0736084,59.222641,4.890564
				C178.3718872,371.5767517,154.4559479,422.2224426,154.4559479,422.2224426z" style="fill:#fff"/>
        <g>
          <path d="M216.8740692,150.9318085c2.2039337-0.6501312,4.4298096-1.3819427,6.2966461-2.7216949
					c1.8668365-1.3397369,3.3500214-3.3932648,3.4733734-5.6877747c0.0950928-1.7690582-0.6061859-3.4725647-1.2942963-5.105072
					c0.7858276-0.437973,0.9928131-1.6460876,0.3975983-2.3206787c1.5367584-0.6864777,1.6703491-2.8428955,0.2223358-3.710495
					c0.9597626-0.1609802,1.746582-1.0478668,1.792038-2.0199738c0.0454712-0.9720917-0.6551361-1.9285507-1.5956879-2.1783981
					c0.7806702-0.5853577,1.1092682-1.7054977,0.7685242-2.6198196c-0.3407288-0.9143143-1.3222504-1.5462265-2.2955933-1.4779205
					c0.5905609-0.7016525,0.6669769-1.7895126,0.1802979-2.5668259s-1.4986725-1.1837311-2.3878021-0.9589386
					c0.3312531-0.8842392,0.0868988-1.9550323-0.5951385-2.6080475c-0.6820221-0.6530075-1.7624207-0.8506012-2.6314392-0.4812546
					c0.3027649-0.8984833-0.0427856-1.9751282-0.8118744-2.5296097c-0.7690735-0.5544815-1.8997498-0.5421219-2.6565399,0.0290298
					c0.2044373-1.0433426-0.4644318-2.1864166-1.4741669-2.5192947c-1.0097351-0.3328705-2.2272644,0.188324-2.6833801,1.1486969
					c-0.4931793-0.754158-0.9863434-1.5083237-1.4795227-2.2624817c-1.162796-0.0513992-2.333252,0.5468826-2.9726563,1.519455
					c-0.1732941-0.9358597-1.0515289-1.691452-2.0027771-1.7231064s-1.8777618,0.663887-2.1128998,1.5861511
					c-0.6740112-0.8381805-1.8703461-1.215065-2.9030762-0.914566s-2.0428772,1.3426208-2.1619568,2.4115677
					c-0.3690033-1.0255432-1.5440063-1.6893768-2.612854-1.4761581c-1.0688629,0.2132187-1.8992157,1.2770844-1.8464661,2.365715
					c-0.6831055-0.8659973-2.0077515-1.146637-2.9833374-0.6320496s-1.4919739,1.766304-1.1629791,2.8190765
					c-0.6942902-0.9045486-2.0999756-1.1623001-3.0700226-0.5629272s-1.368454,1.9718323-0.8701172,2.9974594
					c-0.795166-0.9150238-2.3538208-1.0198135-3.2642975-0.2194519s-1.0063782,2.3595963-0.2008362,3.2654953
					c-1.1156769-0.6577682-2.7140656-0.3018799-3.4452667,0.7671127c-0.7312012,1.0690002-0.4834442,2.6876755,0.5340424,3.489006
					c-1.0602722-0.7456589-2.6968536-0.4794846-3.4661713,0.5637436c-0.7693329,1.0432281-0.5400543,2.685379,0.4855957,3.4779968
					c-0.9039764-0.2273712-1.934845,0.243103-2.3553772,1.0749969c-0.4205322,0.8318787-0.1997986,1.987854,0.5192871,2.5809784
					c-1.1646118,0.0901184-2.1921387,1.091629-2.3120728,2.2535553c-0.1199493,1.1619263,0.6813049,2.3522186,1.802948,2.6783447
					c-1.1280518,0.2127228-2.0265808,1.2966003-2.0265198,2.4445496c0.0000763,1.147934,0.8987579,2.2316895,2.0268402,2.4442596
					c-1.0827942,0.2060394-1.9286194,1.2818298-1.8733673,2.3826599c0.0552673,1.1008301,1.0045929,2.0864868,2.1025848,2.1830444
					c-0.7536926,0.636322-1.0405884,1.7689972-0.6806946,2.6873779s1.3226929,1.8891296,2.3080444,1.8439636
					c-0.7879791,0.1568604-1.3286591,0.9885254-1.3063507,1.7916565s0.5149078,1.5395203,1.1580353,2.0210876
					s1.4239807,0.741394,2.2035828,0.9356384c-0.6691132,0.9976349-0.5729065,2.4423065,0.2225952,3.3424225
					c0.7954865,0.900116,2.2173767,1.173172,3.2897186,0.6317596c-0.2639313,1.1739349,0.3118744,2.487381,1.3540649,3.0887299
					c1.0421906,0.6013641,2.5569916,0.4259949,3.4412842-0.3899841c-0.5751953,1.0812378-0.2795868,2.5502319,0.6690369,3.3248444
					c0.9486389,0.7745972,2.4470673,0.7705231,3.3914795-0.0092163c0.2954102,1.7472229,2.6751099,2.7481842,5.0178528,1.0323944
					c2.4019012-1.7590942,5.9069519-8.235199,11.528244-11.2718658
					C210.2531128,155.1328125,212.809433,152.1308136,216.8740692,150.9318085z"/>
          <path d="M236.7389374,202.1932526l-10.7347717,49.7181854l-21.3625031-12.3952179
					c0,0-17.605423-29.9012756-18.2098999-30.3678894c-0.6121368-0.466629,1.4383545-19.0822449,1.4383545-19.0822449
					s8.3323517-7.5365906,8.8066254-9.526001c0.4613953-1.9660797-2.8095245-25.5131073-2.9456329-26.5499115l25.6545868-1.7673035
					c0,0,0.6580963,1.9203033,1.6298218,4.1775818c1.4383545,3.3588257,3.5654297,7.4753113,5.2103729,7.1308594
					c2.2496185-0.466629,4.5450134-2.7849884,5.302475-3.6113892c0.1759644-0.1912842,0.267868-0.2983246,0.267868-0.2983246
					l0.1376801,1.2164459C238.458847,216.9959869,236.2835236,198.2736816,236.7389374,202.1932526z" style="fill:#e27e59"/>
          <path d="M233.2728882,172.3227997c-3.3372803,15.105896-28.4323883,16.0393677-37.3306274-1.140213
					c-0.3289642-2.8539124-0.7191772-5.9678497-1.0787659-8.7530212l26.1520233-6.0291138
					c1.4383545,3.3588257,3.5654297,7.4753113,5.2103729,7.1308594c2.2496185-0.466629,4.5450134-2.7849884,5.302475-3.6113892
					c0.1453247,0.3061676,0.2830048,0.6121368,0.4055481,0.9181213L233.2728882,172.3227997z" style="fill:#c26044"/>
          <g>
            <path d="M349.9853516,530.5097656c1.1860046,10.3369141,3.3819885,17.0087891-7.5899963,20.390564
						c0,0-8.3092041,9.5490112-14.5604248,2.517334c-0.5432129,0.5508423-1.6066589,0.5508423-2.3258362,0.2678833
						c-0.7193604-0.2832031-1.2319336-1.0177002-1.2549133-1.7904663c-0.8798218,0.5050659-2.0734558,0.8493652-2.6243286-0.2678833
						c-0.206604-0.4206543-0.1072083-0.8415527-0.0459595-1.2854004c-0.3212891,0.1455688-0.5891418,0.2985229-0.9028015-0.038269
						c-0.3952637-0.4117432-0.2231445-1.026001-0.0918884-1.5223999c-0.0697937,0.2322998-0.5360718,0.2716064-0.619812-0.3138428
						c-0.3287048-2.3800049,4.4004211-2.6889648,6.3123169-3.5117798c1.8974915-0.826416,2.5938721-3.3590698,2.3949585-5.2335815
						c-0.2219238-2.0657959-1.2472839-3.9328613-2.2111511-5.769104
						c-4.0561829-7.7149658-7.5100403-16.2166748-10.0462341-25.2721863
						c1.4241638-2.1029053-5.1494751,7.6038513,13.9023132-20.5284424c0.1000061,0.0593262,5.206543,4.8605652,12.4410095,5.4095154
						c7.2227478,0.5508728,12.6169434,3.8409424,12.525238,12.8005676
						C355.1959229,515.3295288,348.7995605,520.1728516,349.9853516,530.5097656z" style="fill:#e27e59"/>
            <g>
              <path d="M327.6060486,553.5070801c-0.0263672-0.0649414-0.6269531-1.605957,0.2827148-2.8139648
							c0.824707-1.0961914,2.5869141-1.5161133,5.2446289-1.246582c0.3301086,0.0328979,0.2756958,0.5330811-0.0507813,0.4970703
							c-2.4282227-0.2431641-4.0874023,0.1166992-4.7924805,1.0473633
							c-0.7412109,0.9804688-0.2250977,2.3173828-0.2197266,2.3310547c0.0507813,0.1279297-0.0117188,0.2734375-0.1401367,0.3242188
							C327.8022156,553.697937,327.657135,553.6348267,327.6060486,553.5070801z"/>
            </g>
            <g>
              <path d="M324.2510681,552.1467285c-0.1279297,0-0.2368164-0.097168-0.2485352-0.2270508
							c-0.0043945-0.0507813-0.0996094-1.2529297,0.9038086-2.4023438c1.0581055-1.2114258,2.8935547-1.8842773,5.4555664-2.0004883
							c0.3421631-0.0175171,0.3443604,0.4854126,0.0224609,0.4990234c-2.4121094,0.1098633-4.1254883,0.722168-5.0922852,1.8198242
							c-0.8666992,0.9848633-0.7924805,2.0297852-0.7915039,2.0400391c0.0112305,0.137207-0.090332,0.2583008-0.2275391,0.2700195
							C324.2657166,552.1462402,324.2583923,552.1467285,324.2510681,552.1467285z"/>
            </g>
            <g>
              <path d="M321.5811462,550.592041c-0.1254883,0-0.2333984-0.0932617-0.2480469-0.2207031
							c-0.0146484-0.1303711-0.2924805-3.2006836,5.9467773-3.9726563c0.3234558-0.0439453,0.3928223,0.454834,0.0615234,0.4960938
							c-5.7109375,0.706543-5.5136719,3.3945313-5.5112305,3.421875c0.0136719,0.1367188-0.0859375,0.2592773-0.222168,0.2739258
							C321.5987244,550.5915527,321.5899353,550.592041,321.5811462,550.592041z"/>
            </g>
            <g>
              <path d="M320.3497009,548.8435059c-0.0117188-0.046875-0.1064453-0.4755859,0.215332-1.0078125
							c0.4296875-0.7114258,1.3730469-1.2470703,2.8041992-1.5932617c3.1435547-0.7597656,3.4907227-0.8071289,3.5200195-0.8100586
							c0.3431091-0.0182495,0.3670959,0.4664917,0.0488281,0.4980469c-0.0083008,0.0009766-0.3828125,0.0561523-3.4516602,0.7983398
							c-2.8959961,0.699707-2.6533203,1.9838867-2.6508789,1.996582c0.0288086,0.1333008-0.0537109,0.2675781-0.1865234,0.2983398
							C320.5240479,549.0549316,320.3848877,548.9812012,320.3497009,548.8435059z"/>
            </g>
            <path d="M339.327179,492.9725342c-3.1598816,11.4692688-9.3575134,22.1046753-17.7815857,30.4981079
						c-2.0045166-4.8203735-3.7184143-9.7630615-5.1263123-14.7900085l10.3981628-15.3561707
						c1.5796204-1.1952515,3.6734009-2.6770325,5.3482361-3.7337341
						C333.7416992,490.6848145,336.2436829,492.1463318,339.327179,492.9725342z" style="fill:#c26044"/>
          </g>
          <path d="M343.696228,480.5392151c0,0-9.9315491,33.8339539-44.6376648,41.1792297
					c0,0-14.7133789-16.848114-24.9585571-24.4841003c-10.2373047-7.6436157-32.9998779-21.4618835-43.2450409-47.7975159
					c-11.4710999-29.5097656-10.5605621-50.2015991-6.1593323-94.1796875
					c0.3750916-3.741394,0.6351166-6.1286621,0.6351166-6.1286621l21.1329346-30.6509094l27.973114-9.1510925l40.3145752,12.8005981
					c0,0-0.3366394,15.4708557-9.6941223,31.7987671c-0.0213623,0.1023865-1.2606812,26.5761414-13.604187,57.9890747
					c0,0,7.1005859,3.7950134,5.9146118,17.8962708c0,0,13.2518921,10.0921631,23.558136,24.0940552
					C326.0603638,460.8684082,327.0481262,461.3300476,343.696228,480.5392151z" style="fill:#088b71"/>
          <path d="M314.7513733,322.1270752c-0.0209351,0.1000061-0.3504028,15.4989929-9.6941223,31.7987671
					c0,0-0.6044922,13.3437805-5.4248352,32.4336853c-0.1836243-1.3311157-0.6197815-2.6473083-1.3466187-3.8484192
					c-15.1253357-25.0012512-24.526886-47.6448975-54.6379242-59.947876l2.8158112-4.0856628
					c2.8615265-0.9360962-10.363327,3.3902588,27.973114-9.1510925L314.7513733,322.1270752z" style="fill:#065e47"/>
          <path d="M314.7513733,322.1270752c0,0-0.0765991,3.6879578-1.2549133,9.3651428
					c-19.8112183,4.0387573-39.2018433-3.6347046-51.0493469-18.2405396l11.9896851-3.9252014L314.7513733,322.1270752z" style="fill:#033a2a"/>
          <g>
            <path d="M275.2095642,396.5657043c-0.2446289-0.3344727-0.1723633-0.8037109,0.1616211-1.0483398
						c14.9335938-10.9414063,29.2441406-42.8017578,29.387207-43.1220703
						c0.1689453-0.378418,0.6118164-0.5498047,0.9902344-0.3798828c0.378418,0.168457,0.5483398,0.6118164,0.3798828,0.9902344
						c-0.5898438,1.3237305-14.6181641,32.546875-29.8706055,43.7216797
						C275.925293,396.9713135,275.4555664,396.9007874,275.2095642,396.5657043z"/>
          </g>
          <g>
            <path d="M326.7652283,481.7707825c-36.0825195-38.737793-53.4760742-67.9746094-51.6972656-86.8979492
						c4.6430664-49.3959961,1.4970703-76.0390625,1.4643555-76.3022461
						c-0.050293-0.4111328,0.2421875-0.7851563,0.6533203-0.8359375c0.4116211-0.0444336,0.7851563,0.2421875,0.8359375,0.6533203
						c0.0322266,0.2651367,3.1977539,27.0693359-1.4604492,76.6254883
						c-1.7368164,18.4785156,15.5239258,47.3237305,51.3017578,85.7348633
						c0.2822266,0.3032227,0.265625,0.777832-0.0375977,1.0600586
						C327.5240784,482.0892334,327.0492249,482.0753784,326.7652283,481.7707825z"/>
          </g>
          <g>
            <path d="M288.8472595,511.6589661c-0.1098633-0.3994141,0.1254883-0.8120117,0.5249023-0.9213867
						c21.7797852-5.9682617,37.3881836-19.0180664,46.390625-38.7861328
						c0.1723633-0.3764648,0.6166992-0.5429688,0.9936523-0.371582c0.3769531,0.171875,0.5429688,0.6166992,0.371582,0.9936523
						c-9.1958008,20.1923828-25.1298828,33.519043-47.359375,39.610321
						C289.3806458,512.2922974,288.9591675,512.0670776,288.8472595,511.6589661z"/>
          </g>
          <path d="M288.682251,246.0466156l32.489563-26.5940399c0,0-26.5721436,3.4849854-27.8482056,3.8632507
					c-1.2760315,0.3782654-5.3483582,7.0447388-5.3483582,7.0447388l0.111969,11.8777466" style="fill:#030512"/>
          <path d="M292.5170593,222.9656525c0,0,9.2549744-8.401886,36.5947266-4.2705383
					c0,0-31.8496704,8.3841858-37.3713379,13.3660889C286.21875,237.0431213,292.5170593,222.9656525,292.5170593,222.9656525z" style="fill:#ee94f6"/>
          <path d="M481.1743774,215.3612518c-28.0190735,18.615448-95.5263062,44.9434357-95.5263062,44.9434357
					s-15.5626831,22.6325378-34.1018372,41.661377c-12.310791,12.6246033-25.9224243,23.6730042-37.1697693,25.4711304
					c-28.2103577,4.5141907-48.4786072-15.4404297-48.4786072-15.4404297s1.1859741-23.8719482,6.4118652-43.3291016
					c2.9075317-10.8190002,7.0544739-20.2682343,12.9382629-23.5046997
					c16.4732361-9.0745087,66.5201721-53.4136353,73.3604736-60.1391449
					c6.8326416-6.7178497,14.0630493-3.5041656,14.0630493-3.5041656
					c14.66745-19.3730927,28.677002-27.8277893,38.7154541-31.4621429
					c10.7194519-3.8792572,45.9000244-26.8330994,45.9000244-26.8330994L481.1743774,215.3612518z" style="fill:#088b71"/>
          <path d="M351.5462341,301.9660645c-12.310791,12.6246033-25.9224243,23.6730042-37.1697693,25.4711304
					c-28.2103577,4.5141907-48.4786072-15.4404297-48.4786072-15.4404297s1.1859741-23.8719482,6.4118652-43.3291016
					c2.3258362,8.7989807,5.0267639,17.5137024,9.4951782,25.4098816
					c5.5471802,9.8013306,14.2389221,18.3630676,25.1345215,21.21698
					c9.8930664,2.5860291,20.5282593,0.2219238,29.7327881-4.2311707
					C341.921051,308.5230713,346.7948303,305.3478699,351.5462341,301.9660645z" style="fill:#067057"/>
          <g>
            <path d="M357.2325134,223.7517395c-0.3720703-0.1806641-0.5273438-0.6298828-0.3461914-1.0019531
						c0.1958008-0.4038086,19.9423828-40.6118164,48.4272461-63.1166992
						c0.3256836-0.2578125,0.796875-0.2011719,1.0532227,0.1235352c0.2568359,0.324707,0.2016602,0.7963867-0.1235352,1.0532227
						c-28.2114258,22.2895508-47.8134766,62.1948242-48.0083008,62.5957031
						C358.0532837,223.7798767,357.601593,223.9320221,357.2325134,223.7517395z"/>
          </g>
          <g>
            <path d="M444.2779236,223.0491028c-16.5620117-13.4750977-25.0527344-36.6308594-21.1279297-57.6186523
						c0.0761719-0.4077148,0.4707031-0.6762695,0.875-0.5996094c0.4072266,0.0761719,0.6757813,0.4677734,0.5996094,0.875
						c-3.8266602,20.4638672,4.4516602,43.0410156,20.5996094,56.1801758
						c0.3212891,0.2612305,0.3701172,0.7333984,0.1083984,1.0546875
						C445.0729065,223.261261,444.5991821,223.3115387,444.2779236,223.0491028z"/>
          </g>
          <path d="M494.189209,196.6230927c-2.5709229,14.6369934-13.0148315,18.7381592-13.0148315,18.7381592
					c-12.3416138,1.537735-24.0328064-2.5173035-30.367981-14.3767853
					c-0.5509644-1.0406494-1.0788574-2.0734558-1.5684509-3.1064606
					c-17.2613525-36.2516785,3.6495667-68.4712982,7.4676514-73.8578339
					c0.3749084-0.5278931,0.5813904-0.7957611,0.5813904-0.7957611c0.703949-0.4514923,1.4154663-0.772789,2.1270752-0.9793854
					c13.5428467-4.016922,27.8200684,33.1071014,29.3120117,36.2518616
					c1.2625732,2.6396484,5.6314392,16.0523682,6.0293274,28.791687
					C494.8547668,190.5020599,494.7017822,193.6774597,494.189209,196.6230927z" style="fill:#020612"/>
          <g>
            <path d="M273.8433533,318.9353333c-0.2519531-0.3291016-0.1894531-0.7998047,0.1391602-1.0517578
						c30.137207-23.0776367,173.5927734-119.2553711,175.0380859-120.2241211
						c0.3457031-0.230957,0.8105469-0.1381836,1.0410156,0.2055664c0.2304688,0.3442383,0.1386719,0.8100586-0.2050781,1.0405273
						c-1.4458008,0.9682617-144.8623047,97.1196289-174.9619141,120.1694336
						C274.5656738,319.3261108,274.0950317,319.2644958,273.8433533,318.9353333z"/>
          </g>
          <path d="M324.5697937,124.6808777c0,0,5.9184265-8.2349701,21.9346924,0.4404984
					c16.0162354,8.6754684,20.5661011,23.528862,20.4780579,24.3002853s-21.2057495,8.5902252-21.2057495,8.5902252
					s-13.9538879-9.4381409-14.2398987-9.4381409c-0.2859802,0-6.5780945-13.442215-6.5780945-13.442215L324.5697937,124.6808777z" style="fill:#030512"/>
          <path d="M353.3783264,119.4420395c0.0919189,4.1775665-1.5761108,6.8095627-4.1469116,8.3704529
					l-8.4623718,24.8513412l-18.8756409-16.9704895l2.677948-10.505188c0,0,1.6144104-3.2211609,0.9717102-5.4018478
					c-0.6504211-2.1728439-13.8565369-20.2605743-12.8082275-24.4687805
					c1.0481262-4.2005463,7.7048035-13.8640213,10.1684875-14.5831985c2.0505981-0.5970078,3.4201965,1.0787659,3.4201965,1.0787659
					s0.9716492-2.7698517,5.1722717-0.6734085c4.2082214,2.0964432,4.2846069,4.047554,4.2846069,4.047554
					s5.4783325-2.7009277,7.8043518,3.2288208c0,0,4.2005615,0.9717255,4.651947,6.756134v2.4790115
					C348.2366943,97.651207,353.0493774,103.9481964,353.3783264,119.4420395z" style="fill:#e27e59"/>
          <g>
            <path d="M331.6548767,99.4919739c-0.1264648-0.2456055-0.0297852-0.5473633,0.215332-0.6733398
						c0.246582-0.1264648,0.5473633-0.0302734,0.6733398,0.215332c1.5854492,3.0795898,3.4248047,4.4448242,5.4658203,4.0512695
						c6.519043-1.2480469,5.0913086-14.4794922,5.0761719-14.612793c-0.03125-0.2744141,0.1655273-0.5219727,0.4399414-0.5532227
						c0.2729492-0.034668,0.5224609,0.1655273,0.5532227,0.4399414c0.0668945,0.5825195,1.543457,14.2871094-5.8808594,15.7084961
						C335.1721802,104.6474533,333.0726318,102.2467346,331.6548767,99.4919739z"/>
          </g>
          <g>
            <path d="M329.6875916,99.6208801c-2.0717773,0-3.8803711-1.4936523-5.3842773-4.4511719
						c-0.125-0.2460938-0.0268555-0.546875,0.2192383-0.6723633c0.246582-0.125,0.546875-0.027832,0.6723633,0.2192383
						c1.449707,2.8510742,3.1401367,4.1455078,5.0273438,3.862793c5.8564453-0.8955078,5.0644531-13.2314453,5.0556641-13.355957
						c-0.019043-0.2753906,0.1889648-0.5141602,0.4643555-0.5336914c0.2675781-0.0166016,0.5146484,0.1889648,0.5336914,0.4643555
						C336.6695251,90.8683014,335.3943787,99.6208801,329.6875916,99.6208801z"/>
          </g>
          <g>
            <path d="M326.1758728,105.4978333c-0.2734375-0.0380859-0.4638672-0.2910156-0.4257813-0.5644531
						c0.0087891-0.0625,0.8496094-6.3129883-1.4169922-9.7128906c-0.1137695-0.1704102-0.1118164-0.3930664,0.0043945-0.5615234
						c0.0439453-0.0629883,4.3564453-6.3730469,3.4316406-10.2246094c-0.2358398-0.9833984-0.7880859-1.6972656-1.6870117-2.1831055
						c-0.2426758-0.1313477-0.3334961-0.4345703-0.2021484-0.6777344s0.4335938-0.3339844,0.6777344-0.2021484
						c4.4999695,2.4319,1.5976868,9.292099-1.2119141,13.5795898c2.2553711,3.7514648,1.4316406,9.8564453,1.3945313,10.1210938
						C326.7010498,105.3514557,326.4414978,105.5365677,326.1758728,105.4978333z"/>
          </g>
          <g>
            <path d="M341.636322,122.5657043c-0.2495117-0.1181641-0.3564453-0.4165039-0.2382813-0.6660156
						c4.9008789-10.3525391-3.5371094-17.871582-3.6230469-17.9462891
						c-0.2080078-0.1811523-0.2299805-0.4970703-0.0483398-0.7055664c0.1821289-0.2075195,0.4985352-0.2290039,0.7055664-0.0483398
						c0.0913086,0.0795898,9.0908203,8.0991211,3.8701172,19.1279297
						C342.183197,122.5793533,341.8822021,122.6825409,341.636322,122.5657043z"/>
          </g>
          <g>
            <path d="M340.0938416,102.6203918c-0.1269531-0.2451172-0.0317383-0.5463867,0.2133789-0.6738281
						c0.2446289-0.128418,0.546875-0.0322266,0.6738281,0.2128906c0.3071289,0.5888672,1.3251953,2.1606445,2.3339844,2.3540039
						c1.7462463,0.331398,3.9229736-5.325325,4.4433594-7.0166016c0.0830078-0.2631836,0.3657227-0.4101563,0.6274414-0.3261719
						c0.2631836,0.0830078,0.409668,0.3637695,0.3266602,0.6269531c-0.0693359,0.21875-1.7128906,5.3759766-3.8027344,7.175293
						C343.151825,106.4886093,341.155365,104.6629257,340.0938416,102.6203918z"/>
          </g>
          <path d="M187.8739166,190.0674591c2.3473511,31.2198486,35.0206604,50.9524689,35.0206604,50.9524689
					c-9.2705536-45.0548706,6.1018524-79.5531158,6.1018524-79.5531158s31.6291199-15.3292847,40.1825256-14.5655823
					c8.5534363,0.7636871,30.8534241,56.6664124,20.7726135,72.5513458l2.5654297,3.5130005
					c0,0,3.3967896,63.6401978-18.4251709,92.1036377c-21.8219604,28.4634094-41.0347748,36.290863-66.6518555,49.8109741
					c0,0,24.6683044-60.2475586,19.6872101-67.6006165c0,0-9.7746887-19.6948242-17.3365173-24.3606262
					c-7.5618286-4.6658325-25.9032898-8.2054138-34.4304657-35.395813
					c-2.8833313-9.1940155-2.59552-19.9392853-0.8148041-28.3742981L187.8739166,190.0674591z" style="fill:#f2a3fa"/>
          <path d="M220.6747894,289.6278076c0,0,17.3204956-14.7673645,19.6974487-15.856781
					c0,0-2.3952484-2.9484558,3.0089264-7.2267456c5.4041595-4.2782898,7.881073-5.8545227,9.0820007-4.7286377
					c0,0,27.6438293-39.0581055,37.4884033-42.3630676l2.5654907,3.5130768
					c-7.732605,11.9033661-14.745697,25.9122009-20.530426,43.5124359c-0.6788635,2.0655518-1.645813,4.0365906-2.9673767,5.7631226
					c-1.4720459,1.9231262-3.5405273,3.8434753-5.9262085,3.8323059c-5.0611267-0.0236816-5.9196167-2.2063904-5.9196167-2.2063904
					s0.2152405,9.5252075-9.7943115,10.4400635c0,0,8.0838318,24.0418701-11.1142426,39.4327393
					c-15.7411957,12.6195374-40.8874817,16.6126099-46.3311768,1.6424255c0,0-0.9679413-2.6369629,6.8883972-1.3943787
					c7.8563232,1.2425842,26.0541687-2.5653381,32.3472595-7.8563538c6.2930756-5.2909851,9.850708-15.8532104,9.43573-26.0614319
					l-11.47789,7.2094421C226.2849274,297.9896545,219.8325195,290.3378296,220.6747894,289.6278076z" style="fill:#030512"/>
          <path d="M244.7551575,153.992157c-10.0310516,32.4018707-12.1472015,67.6771698-4.0698395,100.7314301
					c1.0785675,4.7473297,2.5840607,9.3791656,4.0698395,14.0244293
					C230.1985321,232.5313568,231.2808075,190.3749847,244.7551575,153.992157L244.7551575,153.992157z"/>
          <path d="M181.4408569,199.2770691c3.523056,16.6573181,14.2766571,30.9295654,26.5312805,42.3394775
					c1.3975525,1.2411346,3.2846375,3.0783539,4.7387085,4.2135162c0.0000305-0.0000153,4.9387207,3.9948578,4.9387207,3.9948578
					c3.4510193,2.6757813,6.23526,6.244873,7.8347778,10.3027344c3.0315399,7.8394775,5.5669098,16.3182983,11.2577667,22.6576233
					c-6.1793213-5.9275513-9.0727081-14.506897-12.3215027-22.2099609
					c-1.6860199-3.7931213-4.2861481-7.1791077-7.5997467-9.6654358c-2.9412689-2.2867126-7.1917267-5.6644897-9.8668823-8.1946564
					C194.6994324,231.1141357,183.8154144,216.3692017,181.4408569,199.2770691L181.4408569,199.2770691z"/>
          <path d="M366.9825439,149.4216614c0,0-5.8906555,4.7125244-23.2260437-4.7125397
					c-17.3353577-9.4250488-19.1867065-20.028244-19.1867065-20.028244s-5.0491333,7.0850525-7.5737,13.220047
					c0,0-42.536499,6.5327911-52.5213013,9.4526062c-9.984848,2.9198303,9.4154053,43.9130096,27.2656555,50.9291382
					c0,0,28.5657349,6.0852966,45.7609558,0C354.6965942,192.1973572,364.1039734,175.4658051,366.9825439,149.4216614z" style="fill:#f2a3fa"/>
          <g>
            <path d="M320.5669861,179.2400208c-15.0649414-17.3310547-4.1362305-41.3100586-4.0239258-41.550293
						c0.1176758-0.2495117,0.4160156-0.3564453,0.6645508-0.2416992c0.25,0.1166992,0.3583984,0.4145508,0.2416992,0.6645508
						c-0.109375,0.234375-10.762207,23.6362305,3.8725586,40.4711914c0.1811523,0.2084961,0.1591797,0.5244141-0.0493164,0.7055664
						C321.0632324,179.4706116,320.74823,179.4480286,320.5669861,179.2400208z"/>
          </g>
          <path d="M174.5453949,209.1488342c0,0-22.1221313,30.4095917-25.6115875,63.7688293l59.3207855-17.042572
					l-13.2599335-14.0834045L174.5453949,209.1488342z" style="fill:#f4a7f9"/>
          <g>
            <path d="M189.9937439,261.959259c-18.1542969-15.2558594-17.3056641-41.1118164-17.2949219-41.3710938
						c0.0274658-0.6758728,1.0255737-0.6110992,0.9990234,0.0410156
						c-0.0102539,0.2543945-0.8325195,25.6298828,16.9394531,40.5644531
						c0.2114258,0.1777344,0.2387695,0.4931641,0.0610352,0.7045898
						C190.5198822,262.1100769,190.2049561,262.1363525,189.9937439,261.959259z"/>
          </g>
          <path d="M188.0898438,307.9299011c0,0,16.3501587-16.6745605,16.5489502-27.1064148
					s-10.438324-21.3807983-16.5489502-21.3024597s-12.7841949,5.8201294-12.7841949,5.8201294l-1.118866,21.5317383
					l2.6658325,15.0722046l4.5882416,6.5620422l3.9219208,0.8202515l1.7554626-0.5505981L188.0898438,307.9299011z" style="fill:#0d0b19"/>
          <g>
            <path d="M182.6635284,259.8682251c0,0,8.2346039,0.8033752,13.8582306,1.6067505
						c0,0,1.8076019-13.6573944,10.3434601-12.4523315c0,0,8.335022-4.2177277,11.4481049-2.6109772
						s1.0042267,4.8202515,1.0042267,4.8202515s7.2303772-1.2050629,4.7198334,6.1257477
						c0,0,7.2303772,0.6025391,2.9122314,8.1341858c0,0,5.7240448,2.1088562-1.1046448,9.5400696
						c-6.8286896,7.4312439-24.2016907,8.1341858-24.2016907,8.1341858s-22.6953583,8.0337524-29.9257507,6.1257324
						c-7.2303772-1.90802,10.3434601-29.3232117,10.3434601-29.3232117" style="fill:#e27e59"/>
            <g>
              <path d="M211.1416931,256.7112122c-0.1801758-0.2094727-0.1567383-0.5249023,0.0527344-0.7050781
							c3.2006836-2.7543945,7.7016602-5.1181641,7.8916016-5.2177734c0.2446289-0.1269531,0.546875-0.0332031,0.6748047,0.2119141
							c0.1274414,0.2446289,0.0327148,0.546875-0.2119141,0.6748047c-0.0454102,0.0234375-4.590332,2.4111328-7.7021484,5.0888672
							C211.6392975,256.9434814,211.3222809,256.9212952,211.1416931,256.7112122z"/>
            </g>
            <g>
              <path d="M215.0142517,262.4724426c-0.1621094-0.2236328-0.1123047-0.5361328,0.1113281-0.6982422
							c4.7192383-3.4194336,8.5800781-4.8286133,8.7421875-4.887207c0.2602539-0.0932617,0.5463867,0.0419922,0.6396484,0.3012695
							c0.09375,0.2597656-0.0410156,0.5463867-0.3007813,0.6396484c-0.0385742,0.0141602-3.8979492,1.4257813-8.4941406,4.7558594
							C215.4867401,262.7474976,215.1745148,262.6936035,215.0142517,262.4724426z"/>
            </g>
            <g>
              <path d="M218.9297791,269.8489075c-0.1743164-0.2143555-0.1420898-0.5292969,0.0717773-0.7036133
							c3.2270508-2.6289063,7.6088867-4.0688477,7.7939453-4.1289063c0.2626953-0.0854492,0.5439453,0.0581055,0.6298828,0.3212891
							c0.0849609,0.2626953-0.0585938,0.5444336-0.3212891,0.6298828c-0.043457,0.0141602-4.3920898,1.4448242-7.4707031,3.953125
							C219.4208679,270.0940552,219.1059265,270.0640869,218.9297791,269.8489075z"/>
            </g>
          </g>
          <path d="M188.0898438,307.9299011c0,0-6.5424042,3.3617249-6.6489868-12.7814331
					s0.838028-34.6186218,6.6489868-35.6274414c0,0-28.5402985-13.6674652-39.1560364,13.396637
					c0,0-3.0222931,18.5452271,12.390686,30.350708C177.0227203,315.2923279,186.7254944,312.8814087,188.0898438,307.9299011z" style="fill:#f4a7f9"/>
          <g>
            <path d="M291.6416931,198.7727356c-0.1621094-0.0327148-16.3330078-3.5322266-24.190918-26.840332
						c-0.2113037-0.6257172,0.7360229-0.9483643,0.9472656-0.3193359
						c7.6630859,22.7290039,23.2841797,26.1474609,23.4414063,26.1791992
						c0.2705078,0.0551758,0.4453125,0.3188477,0.390625,0.5893555
						C292.1743469,198.6579895,291.9042969,198.8267975,291.6416931,198.7727356z"/>
          </g>
          <g>
            <path d="M536.883667,89.2028961c-0.4800415,1.3400879-1.3700562,2.4799805-2.2400513,3.5900879
						c1.7600098,27.3398438-2.039978,54.8898926-11.4400024,80.619873
						c-2.3699951,6.4899902-5.6599731,13.4602051-12.0299683,16.130127c-5.289978,2.2299805-11.539978,0.8100586-16.4000244-2.25
						c-0.0100098,0-0.0100098,0-0.0199585,0c-4.8400269-3.0700684-8.5800171-7.5800781-12.2200317-12.0100098
						l-33.2999878,22.5998535c-17.2600098-36.2597656,3.6500244-68.4799805,7.4699707-73.8598633
						c0.1002502-0.0657806,3.6874084-2.4192123,3.460022-2.2700195l17.7000122-11.6201172
						c1.3859558-12.6171494,5.1685181-23.9104767,10.8699951-33.6499023c0,0-3.1400146-35.3300819,13.6300049-32.3000526
						c5.25,0.9499512,10.2700195,7.5300293,10.4699707,17.7099609c0,0,2.3400269-4.8098145,6.4899902-2.6699219
						c4.1600342,2.130127,3.6200562,6.7099648,3.6200562,6.7099648c2.5-0.6098633,5.2199707,0.3300781,6.5799561,2.5200195
						c1.3600464,2.1799316,1.1400146,5.2299805-0.5100098,7.1999512c2.0200195-0.1298828,4.0800171,1.0900879,4.9200439,2.9501953
						c0.8299561,1.8598633,0.3899536,4.2099609-1.0599976,5.6398926c1.1599731-0.8200684,2.9199829-0.2800293,3.7099609,0.8898926
						C537.383667,86.3029938,537.3636475,87.8730621,536.883667,89.2028961z" style="fill:#e27e59"/>
            <g>
              <path d="M455.9544983,125.1141586c-5.1835327,7.7321701-23.0638428,38.4318771-6.7165527,72.7639084
							l10.5029907-7.126709C445.5785217,163.7594147,452.1264343,136.4044342,455.9544983,125.1141586z" style="fill:#c26044"/>
            </g>
            <g>
              <path d="M530.8468018,98.0935364c-8.1425781-20.0126953-19.202179-22.4199219-19.3125305-22.4418945
							c-0.2646484-0.0522461-0.4404297-0.3041992-0.3984375-0.5698242
							c1.1260071-7.0263672,1.202179-13.1323242,1.2031555-13.1933594c0.0029297-0.2744141,0.2265625-0.4946289,0.5-0.4946289
							c0.0019531,0,0.0039063,0,0.0048828,0c0.2763672,0.0029297,0.4980469,0.2290039,0.4951172,0.5053711
							c-0.0009766,0.0600586-0.0742188,5.9780273-1.1435547,12.8886719
							c2.2724609,0.6547852,12.0664063,4.4702148,19.5771484,22.9287109
							c0.1044922,0.2558594-0.0185547,0.5473633-0.2744141,0.6513672
							C531.2485352,98.4709702,530.9529419,98.3536987,530.8468018,98.0935364z"/>
            </g>
            <g>
              <path d="M519.8751221,72.9197083c-0.2226563-0.1625977-0.2714844-0.4755859-0.109375-0.6987305
							c2.1113281-2.8916016,2.6816406-6.3325195,2.6865234-6.3666992c0.1060791-0.658989,1.0906372-0.4930344,0.9882813,0.1572266
							c-0.0244141,0.1499023-0.609375,3.706543-2.8662109,6.7993164
							C520.4075928,73.0369797,520.0948486,73.0802917,519.8751221,72.9197083z"/>
            </g>
            <g>
              <path d="M525.1134033,78.6350403c2.6552734-1.8579102,3.4550781-3.2128906,3.4628906-3.2265625
							c0.329895-0.5726929,1.1914673-0.0790558,0.8701172,0.4926758c-0.0351563,0.0620117-0.8886719,1.5444336-3.7587891,3.5532227
							C525.1418457,79.8333588,524.5740967,79.0132141,525.1134033,78.6350403z"/>
            </g>
            <g>
              <path d="M529.2794189,86.6384583c-0.0966797-0.2587891,0.0351563-0.546875,0.2939453-0.6435547
							c1.7636719-0.659668,2.8955078-2.0541992,2.9072266-2.0683594c0.1728516-0.2148438,0.4882813-0.25,0.7021484-0.078125
							c0.2158203,0.171875,0.2509766,0.4858398,0.0800781,0.7016602c-0.0527344,0.065918-1.3085938,1.6220703-3.3398438,2.3813477
							C529.663208,87.0282898,529.3756714,86.8953323,529.2794189,86.6384583z"/>
            </g>
          </g>
          <path d="M500.2719421,76.4826736c0,0-6.9168091,9.4111099-13.5810242,3.7415771
					c0.6426697-1.2623825,1.3236389-2.5096436,2.0428162-3.7415771
					C488.7337341,76.4826736,491.0214539,80.706192,500.2719421,76.4826736z" style="fill:#c26044"/>
          <path d="M193.7390442,151.8994446c-1.1408539-2.6439362-0.7619476-5.8839111,0.9581909-8.1932526
					c-0.8518829-1.4315033-0.0866241-3.5809937,1.710968-4.1194c-0.8931732-1.7871246,0.3934937-3.9131927,2.3915558-3.9501953
					c-0.2071533-2.0858307,1.7495117-3.7494965,3.7752991-3.2085724c0.9640045-2.0766296,3.5855103-2.7901917,5.4692688-1.4840698
					c1.0596771-1.9832001,3.6940308-2.4907684,5.4147339-1.0442657c1.054718-1.2560577,3.3670807-1.651413,4.9591675-0.3952942
					c1.4129791-1.178833,3.5877991-0.2591248,3.7273102,1.5749359c0.5293579-0.0166473,0.8092957,0.4629974,0.9961395,0.9585571
					c0.2554626,0.677536,0.2367249,1.4540558-0.0511322,2.118454c-0.1698608,0.3920593,1.1650238,2.6873322,1.3532562,3.1682434
					c2.0897675,5.3390045,3.8339996,12.4025726,4.3346405,19.0982819
					c0.3321991,4.4429016,0.6753845,10.6040955-2.0986786,14.4190063
					c-4.9868164,6.8579254-17.0288696,3.6716003-23.5019073,0.9734497
					c-1.9561768-0.8154144-3.8717346-1.8161316-5.4032288-3.2810669c-1.5315094-1.4649353-2.6545105-3.4469147-2.7398071-5.5645294
					c-0.0293121,0.5554199-0.9736328,0.8810577-1.5290985,0.8530121c-0.555481-0.0280609-1.049469-0.34935-1.4945679-0.6828613
					c-4.9345245-3.6974945-6.8092194-9.960968-6.1987762-12.7707062c0.5817413-2.6776581,3.2250366-3.2264252,5.2595367-1.6740112
					C192.1686859,149.5320435,193.0568848,150.7003174,193.7390442,151.8994446z" style="fill:#e27e59"/>
          <path d="M209.9562378,140.0241547c0.6553345-0.392868,1.124649-1.2256012,0.8295746-1.9304047
					c-0.2233734-0.5335541-0.8188782-0.8347778-1.3957977-0.8764191c-0.717514-0.0518036-1.0707855,0.1057739-4.9229584,1.2777557
					c-1.2645569,0.3847351-2.5687256,0.7907104-3.5723877,1.6508331c-0.7133942,0.6113586-1.2634735,1.5281372-1.3084106,2.4828949
					c-0.0644836,1.3699188,1.199585,0.318634,1.8476715-0.0151672
					C206.2153168,140.1508636,208.4525146,140.9256592,209.9562378,140.0241547z"/>
          <g>
            <path d="M211.127243,144.9919739c0,0-0.3495026-2.8073578-4.3552399-2.4798431c0,0-3.4452209,0.4655457-4.5871429,4.0363159
						c0,0,0.4880676,0.1499939,0.8122711,0.174942C203.3213196,146.7483368,211.127243,144.9919739,211.127243,144.9919739z"/>
            <path d="M211.127243,144.9919739c-0.8375549-1.898468-3.549408-2.6066589-5.9168396-0.8624573
						c-0.9213867,0.678833-1.6330872,1.6073761-2.2132721,2.5938721c1.2114258,1.0641174,2.8541565,1.0918732,4.4220734,0.7155914
						C208.9871216,147.0627136,210.5306854,146.4899902,211.127243,144.9919739z" style="fill:#fff"/>
            <ellipse cx="207.717" cy="145.088" rx="1.803" ry="2.237"/>
            <path d="M208.2012024,145.0881195c-0.5170441,0-0.5169678-1.1151886,0-1.1151886
						C208.4169769,143.9729309,208.7181702,145.0881195,208.2012024,145.0881195z" style="fill:#fff"/>
            <path d="M207.3628235,146.5287781c-0.2259521,0-0.2259979-0.5534973,0-0.5534973
						C207.4572144,145.9752808,207.5888062,146.5287781,207.3628235,146.5287781z" style="fill:#fff"/>
          </g>
          <g>
            <path d="M217.5024567,143.8533325c0,0-0.8416595-2.6934814,2.3038635-3.6838531c0,0,2.7777405-0.6827393,5.0430145,2.2317047
						c0,0-0.3085175,0.2952423-0.5428467,0.4226837C224.0721588,142.9513245,217.5024567,143.8533325,217.5024567,143.8533325z"/>
            <path d="M217.5024567,143.8533325c-0.064209-1.1115265,0.4979553-2.0991974,1.3124084-2.5678406
						c1.7855225-1.0274048,3.9482269,0.1920319,5.4916229,1.5383759c-0.493515,1.3688202-1.719696,1.9239502-3.0485382,2.0835266
						C219.9290924,145.0669861,218.5412598,145.0381165,217.5024567,143.8533325z" style="fill:#fff"/>
            <ellipse cx="221.304" cy="142.785" rx="1.705" ry="2.115" transform="rotate(-15.268 221.304 142.785)"/>
            <path d="M220.8615112,142.9055939c0.4716187-0.1287384,0.1938934-1.1459503-0.2776642-1.0172272
						C220.3870239,141.9420929,220.3899536,143.0343018,220.8615112,142.9055939z" style="fill:#fff"/>
            <path d="M221.9849548,144.0109558c0.2061005-0.0562592,0.0683289-0.561142-0.1378021-0.5048828
						C221.7610321,143.5295868,221.7788239,144.0672302,221.9849548,144.0109558z" style="fill:#fff"/>
          </g>
          <path d="M219.1202545,151.9266205c-0.0587463,1.3045502-1.1065826,2.3978424-2.308609,2.9081879
					c-1.2020111,0.5103455-2.5431976,0.5527191-3.8486176,0.5876465c-0.238739,0.0063934-0.487793,0.0107117-0.7034912-0.0918274
					c-0.215683-0.1025391-0.3839264-0.3475342-0.3168793-0.576767c0.1972351-0.6743317,2.3571014-0.5666199,3.7391968-0.9035187
					c1.0432587-0.2543182,2.1069946-0.9333954,2.3071442-1.9883728c0.1940308-1.0226898-0.1746674-1.4855194-3.7443848-9.6900787
					c-0.2777252-0.6383057,0.0056458-1.8153076,0.7591248-0.9768219c0.585968,0.6520844,0.8539734,1.9529572,1.187149,2.7619476
					C218.8780518,150.4817505,219.1649017,150.9354553,219.1202545,151.9266205z" style="fill:#c26044"/>
          <path d="M221.4324951,160.1443634c-0.0987854-0.5031433-0.5508423-0.879776-1.0415649-1.0284424
					c-1.4499054-0.43927-6.916626,0.6197357-11.0331879,4.2049103c-0.2027283-0.0119476-0.2270508,0.4403381-0.0531464,0.5452118
					c0.1739044,0.1048584,0.3968506,0.0368042,0.5852051-0.039093c2.8855743-1.1626892,6.3124237-4.4770203,9.8124847-3.1875153
					c0.4015503,0.1479492,1.0722961,0.4866791,1.5153198,0.0928345
					C221.4173737,160.5546875,221.6222534,160.3325958,221.4324951,160.1443634z" style="fill:#c26044"/>
          <path d="M188.1973267,152.7783813c0.607193-0.8572998,1.8410645-1.203064,2.8053284-0.7861328
					c0.9642639,0.4169159,1.5575409,1.5527039,1.3488617,2.5823212c-0.4874573-0.193161-1.0428772-0.3045654-1.5314941-0.1143646
					s-0.8477783,0.7712555-0.6441345,1.2544098c0.330719,0.7846985,1.5103912,0.6233826,2.0259399,0.6670837
					c1.1487732,0.0973816,2.2477417,0.9677887,2.4123535,2.1088867c0.1645966,1.141098-0.8146362,2.3692932-1.9649506,2.2919006
					c1.3333282-1.3269348,0.8055115-2.5390625-0.5741577-2.8985901c-0.552536-0.1439819-1.1355743-0.1531067-1.6807098-0.3229523
					c-0.5451355-0.1698608-1.0802765-0.5636749-1.1702271-1.127533c-0.1257629-0.7884216,0.6441956-1.4553986,0.7145386-2.2506866
					C190.0087585,153.3902588,188.985321,152.6687775,188.1973267,152.7783813z" style="fill:#c26044"/>
        </g>
      </g>
      <path d="M480.963623,141.6230621c-0.3200073-2.2202148-2.6599731-14.2202148-16.8900146-18.4001465
			c-1.5-0.4399414-2.789978-0.9399414-3.9099731-1.4699707l17.7000122-11.6201172L480.963623,141.6230621z" style="fill:#c26044"/>
    </g>
  </g>
</svg>
