<svg id="object" xmlns="http://www.w3.org/2000/svg" viewBox="0 0 2000 2000"><defs><style>.cls-1{fill:#283430;}.cls-2{fill:#f1b65c;}.cls-3{fill:#dd7649;}.cls-12,.cls-4{fill:#fff;}.cls-5{fill:#bed8f3;}.cls-6{fill:#1a211f;}.cls-7{opacity:0.26;}.cls-8{fill:#e5c028;}.cls-9{fill:#fbd942;}.cls-10{fill:#b48229;}.cls-11,.cls-12{opacity:0.16;}</style></defs><path class="cls-1" d="M1090.83,664.64c-5.61,41-29.67,79.61-65.46,69.39-36.87-10.54-28.09-59.47-14.74-97.74a377.38,377.38,0,0,1,20.69-47.88,32.82,32.82,0,0,1,11.94-5.76,30.16,30.16,0,0,1,3.78-.72c6.5-.83,14.49.3,22.91,6.48C1089,602.35,1095,634.15,1090.83,664.64Z"/><path class="cls-2" d="M853.18,1946.35c-36,.33-47.22-15.19-71.33-11.89s-53.16,11.89-59.43-5.94-2.64-65.38-8.92-110c-1.39-9.92.92-15.72,5.37-18.74,15.53-10.55,57,12.8,57,12.8S770,1848,814.54,1875c41.44,25.17,90.57,44.35,99.68,61.51a12.38,12.38,0,0,1,1.36,3.87C918.56,1958.56,889.17,1946,853.18,1946.35Z"/><path class="cls-3" d="M853.18,1946.35c-36,.33-47.22-15.19-71.33-11.89s-53.16,11.89-59.43-5.94-2.64-65.38-8.92-110c-1.39-9.92.92-15.72,5.37-18.74,3.77,1.3,7.82,4.52,12.3,10,0,0-26.75,110,20.8,110s29.72,5.94,92.13,14.85c42.14,6,61.24,3.91,70.12,1.91a12.38,12.38,0,0,1,1.36,3.87C918.56,1958.56,889.17,1946,853.18,1946.35Z"/><path class="cls-2" d="M457.93,463.76s-59.44,104-62.41,41.6-20.8-74.29-47.55-80.23-18.16-26.75,3-74.3,14.52-101,17.83-127.79a45,45,0,0,1,1.72-7.9c7.13-22.93,30.67-37.84,31,7.9.33,50.86,20.47,85.86,32.69,133.73,8.22,32.23,16.14,69.54,20.45,90.5C456.7,457.44,457.93,463.76,457.93,463.76Z"/><path class="cls-3" d="M457.93,463.76s-59.44,104-62.41,41.6-20.8-74.29-47.55-80.23-18.16-26.75,3-74.3,14.52-101,17.83-127.79a45,45,0,0,1,1.72-7.9,251.24,251.24,0,0,0,4.06,76.09c11.88,56.46-41.61,92.13-29.72,115.9s50.52-3,59.43,35.66c6.93,30,37.19,13.38,50.34,4.48C456.7,457.44,457.93,463.76,457.93,463.76Z"/><path class="cls-4" d="M808.6,1168.07s-20.47,44.58-23.77,115.9c-.67,14.46-1.55,33.79-2.51,56.16-.83,18.94-1.72,40.06-2.61,62.23-.73,18.07-1.46,36.83-2.16,55.68-2.42,65.39-4.45,131.78-4.61,173.63q0,8,0,16.1.09,9.87.32,19.77c.91,41.12,3.37,81.53,5.42,109.77.53,7.31,1,13.79,1.48,19.27,1,12.17,1.65,19.34,1.65,19.34s-82.88,29.72-139.67,3c0,0-.11-6.11-.39-16.93-.07-2.54-.14-5.34-.23-8.39-.48-17.67-1.3-43.5-2.58-73.94-1.14-27-2.64-57.63-4.59-89.42-1.93-31.37-4.3-63.87-7.2-95.13-1-10.69-2.05-21.23-3.17-31.53-14.86-136.7-8.26-249-23.44-329.54-1.75-9.26-4.13-19-7-29.11-.44-1.52-.89-3.06-1.35-4.6C569.08,1063.14,516.29,965,472.46,882.45c-50.52-95.1-139.34-263.83-160.15-311.71,0,0,7.68-9,21-22.23,25.56-25.33,71.88-66,124.63-87.72,0,0,34.4,59,61.84,107.58,9.53,16.87,18.22,32.49,24.34,44,23.78,44.57,14.86,47.55,38.63,62.41s8.92,35,32.69,59.1c7.54,7.64,12.1,18.24,15.74,30.39,1.77,5.89,3.33,12.14,4.91,18.6,5.44,22.2,11.18,46.8,26.9,67.24,29.72,38.63,65.38,89.15,65.38,89.15s35.33,91.8,38.47,94.94S808.6,1168.07,808.6,1168.07Z"/><path class="cls-5" d="M808.6,1168.07s-20.47,44.58-23.77,115.9c-.67,14.46-1.55,33.79-2.51,56.16-45.78-37.57-74.93-127.65-74.93-127.65L639,1203.57c-14.86-74.3,44.58-124.82,14.86-178.31s3-98.07-23.77-157.5c-18.35-40.77-4.54-70.35,6-84.91,5.44,22.2,11.18,46.8,26.9,67.24,29.72,38.63,65.38,89.15,65.38,89.15s35.33,91.8,38.47,94.94S808.6,1168.07,808.6,1168.07Z"/><path class="cls-4" d="M1114.69,903.25q-10.25,20.71-21.13,39.33c-65.18,111.88-144.54,168.86-202.94,197.51-48.12,23.61-82,28-82,28-23.77-47.55-80.24-228.83-80.24-228.83a157.76,157.76,0,0,0,19.77-8.07c30-14.62,52.36-37.15,69.72-61.1a332.29,332.29,0,0,0,21.64-34.46c14.74-26.7,24.68-51.32,33.39-64.75,3.34-5.15,6.5-8.65,9.68-10a7,7,0,0,1,3.84-.55,7.56,7.56,0,0,1,2.11.63c26.74,12.21,127.78,65.38,127.78,65.38C1117.34,877.17,1114.69,903.25,1114.69,903.25Z"/><path class="cls-2" d="M1040.4,680.7c-13.56,38.67-8.21,109.45-4.87,141.12,1,10,1.9,16,1.9,16l-47.55,80.24s-32.69.33-32.69-68.35c0-19.7-1-36.87-2.37-51.35q-.29-2.86-.58-5.58c-3.52-32.4-8.94-49.72-8.94-49.72s6.05-6.07,15.12-14.75C990.56,699.48,1054.11,641.61,1040.4,680.7Z"/><path class="cls-3" d="M1037.43,837.87l-47.55,80.24s-32.69.33-32.69-68.35c0-19.7-1-36.87-2.37-51.35,3.34,8.33,17.6,40.41,40.84,45.57,19.73,4.39,34.61-5.79,39.87-22.16C1036.58,831.78,1037.43,837.87,1037.43,837.87Z"/><path class="cls-4" d="M814.38,1164.93a625.6,625.6,0,0,1-12,68.44c-9.81,42.55-20.74,71.24-20.74,71.24-71.32-83.21-35.66-202.08-95.1-270.43-47.29-54.38-32.5-101.24-24.48-118.12a53.52,53.52,0,0,1,3.68-6.7l62.74,29.72Z"/><path class="cls-3" d="M1013.49,725.11c-2.56,51.13-46.91,64.87-59.25,67.72-3.52-32.4-8.94-49.72-8.94-49.72s6.05-6.07,15.12-14.75C983.06,708.38,1015.43,686.24,1013.49,725.11Z"/><path class="cls-2" d="M1058.06,647.84A72.89,72.89,0,0,1,912.32,650c0-.73,0-1.46,0-2.2,0-.48,0-1,0-1.44a72.89,72.89,0,0,1,145.76,1.44Z"/><path class="cls-2" d="M1055.09,665.67a276.08,276.08,0,0,1-14.43,29.45c-16.86,30-47.15,71.41-83.64,65.65-49-7.74-46.51-89.5-45-110.83.11-1.49.21-2.68.29-3.54s.15-1.53.15-1.53l60.79,8.87Z"/><path d="M968.46,978.58l-15.17-57.33,27.45-27.45,27.31,45.53Zm-14-57L969,976.51l37.67-37.35-26.17-43.63Z"/><path class="cls-1" d="M988.69,909.63c-.6,19.43-5.08,26.64-5.08,26.64l-35.67,14.86s.11-1,.27-3c.32-3.76.87-10.9,1.29-20.32,1.62-36.86,1.27-108.65-22.19-149.26l15.88-6,7.89-3s29.22,62.57,35.5,107.15A194.19,194.19,0,0,1,988.69,909.63Z"/><path class="cls-1" d="M879.71,1336.14c-.07,6.32-.12,9.91-.12,9.91l-59.43,3.3,5.94-74.63c4.42-55.44,7.19-115.26,8.32-142.35.4-9.37.6-14.82.6-14.82.57-5.37,1.22-10.26,1.94-14.7,3.62-22.56,8.9-33.5,14.46-37,9.66,19.81,19.58,38.41,27.16,52.18.4,8,.72,17.55,1,28.18C881,1207.85,880.07,1305.07,879.71,1336.14Z"/><path class="cls-1" d="M1058.06,671.62c-17.83,41.6-23.77,17.83-23.77,17.83a89.51,89.51,0,0,1-5.2-9.82c-4.77-10.34-10.94-27.72-9.68-46.64a67.1,67.1,0,0,1,5.86-23.55,2.29,2.29,0,0,0,.1-.23c6.29-13.6,14.4-15.05,21.51-9.39C1060,610.23,1069.61,644.66,1058.06,671.62Z"/><ellipse class="cls-2" cx="1047.17" cy="684.99" rx="26.75" ry="16.34" transform="translate(-116.96 1143.87) rotate(-54.7)"/><ellipse class="cls-3" cx="1047.17" cy="684.99" rx="14.79" ry="9.04" transform="translate(-116.96 1143.87) rotate(-54.7)"/><path class="cls-3" d="M1013.49,633a92.23,92.23,0,0,1-40.25,20.75c-26.24,6.09-50.26-.09-60.92-3.7l-.31-.1c.11-1.49.21-2.68.29-3.54A72.39,72.39,0,0,1,917,621.91C973.67,613.43,1043.08,607.09,1013.49,633Z"/><path class="cls-1" d="M1047.9,589.74a55.74,55.74,0,0,1-1,10.08c-.2,1.11-.43,2.26-.7,3.45a51.33,51.33,0,0,1-11.88,19.46A46.12,46.12,0,0,1,1019.43,633h0c-2.69,1.16-5.63,2.26-8.78,3.3-39.32,13-110.09,15.33-127.9-33-6.85-18.59-6.61-33.32-1.83-43.64,9.73-21,38.32-23.85,64.24-3.91,19.46,15,60.78,3.81,84.68,10.25,8.63,2.33,15,7,17.22,16A33,33,0,0,1,1047.9,589.74Z"/><path class="cls-5" d="M853,829.12s-2.68,85.83-104.88,102c44.22-21.58,72-60.38,91.36-95.56C847.88,831.53,853,829.12,853,829.12Z"/><path class="cls-5" d="M1093.56,942.58c-65.18,111.88-144.54,168.86-202.94,197.51,43.4-68.69,98.94-209.46,131.78-204,35.66,5.94,65.38-6,65.38-6C1091.74,930.6,1093.48,935.14,1093.56,942.58Z"/><path class="cls-4" d="M1131.07,1081.86c-3.8,16.44-12.89,29.65-31.57,38.33-27.37,12.72-52.2,25-70.21,21.65a26.23,26.23,0,0,1-9.69-3.82c-2.82-1.84-5.48-6-8-11.83-13.51-31.52-21.76-110-21.76-110l56.73-51.32,68.08-61.61s14.86,100.71,17.83,136.7C1133.8,1055.38,1133.92,1069.53,1131.07,1081.86Z"/><path class="cls-6" d="M988.69,909.63l-40.48,38.55c.32-3.76.87-10.9,1.29-20.32,9.25-15.34,23.51-43.52,19.41-66.05-5.15-28.33-21.47-76.77-25.72-89.16l7.89-3s29.22,62.57,35.5,107.15A194.19,194.19,0,0,1,988.69,909.63Z"/><path class="cls-1" d="M1019.27,918.44c-30,33-77.27,92.13-77.27,92.13s-35.66-20.81-29.72-26.75c.69-.68,2.27-2.51,4.59-5.24,17.81-21.1,78.72-96.59,102.4-125.52,26-31.73,15.67-44,15-44.71,11.87,11.08,18.46,21.74,21.17,32.06C1062.93,868.66,1041.27,894.26,1019.27,918.44Z"/><path class="cls-6" d="M1019.27,918.44c-30,33-77.27,92.13-77.27,92.13s-35.66-20.81-29.72-26.75c.69-.68,2.27-2.51,4.59-5.24,17.27-4.85,54.56-20.73,99.59-72.19,26.61-30.41,36.47-51.64,39-66C1062.93,868.66,1041.27,894.26,1019.27,918.44Z"/><path class="cls-2" d="M989.88,942.22,966.1,966s-11.88-14.53-23.77-29.72-5.94-29.39-20.8-35.66a7.72,7.72,0,0,1-3.76-3c-5.26-8.67,15.89-27.19,36.78-32.7,23.77-6.27,29.06,14.86,29.39,29.72.19,8.81,2.25,23.91,3.89,34.72C989,936.81,989.88,942.22,989.88,942.22Z"/><path class="cls-3" d="M989.88,942.22,966.1,966s-11.88-14.53-23.77-29.72-5.94-29.39-20.8-35.66a7.72,7.72,0,0,1-3.76-3c2.1,1.55,5.85,2.8,12.51,2.8,17.83,0,3,23.77,20.8,38.63,14.62,12.18,31.24-3.61,36.75-9.69C989,936.81,989.88,942.22,989.88,942.22Z"/><path class="cls-5" d="M1105.61,1069.84,1067,939.08s-38.63,14.86-38.63,17.83,5.94,26.75,23.77,56.46S1105.61,1069.84,1105.61,1069.84Z"/><path class="cls-4" d="M1079.58,1122.47c-15.8,10.69-34.61,18.55-50.29,19.37-7,.37-13.39-.67-18.61-3.49-7.41-4-14.95-14.3-22.2-27.88-25-46.92-46.48-132.92-46.48-132.92s41.94-38.64,77.6-53.5c0,0,11.79,17.52,27,40.81,24.46,37.44,57.78,89.79,65.11,108.11C1117.53,1087.49,1101.43,1107.69,1079.58,1122.47Z"/><path class="cls-5" d="M1131.07,1081.86c-3.8,16.44-12.89,29.65-31.57,38.33-27.37,12.72-52.2,25-70.21,21.65-7,.37-13.39-.67-18.61-3.49-7.41-4-14.95-14.3-22.2-27.88a56.94,56.94,0,0,0,23.16,15.72c8.51,3.08,18.92,4.57,31.57,3.08a235.28,235.28,0,0,0,36.37-6.8C1104.27,1115.46,1123,1103.45,1131.07,1081.86Z"/><path class="cls-5" d="M1031.32,939.08s17.83,53.49-17.83,104c0,0,38.63-26.75,32.69-83.21Z"/><path class="cls-5" d="M960,1049s17.83,41.61,92.12,20.81c0,0-47.55,29.71-86.18,0Z"/><path class="cls-4" d="M885.7,760.77A309.22,309.22,0,0,1,876.28,796c-7.7,23.21-20.26,51.36-38.29,62.72-3.6,2.27-8.16,4.89-13.41,7.76-2.13,1.17-4.38,2.38-6.73,3.63-4.13,2.19-8.57,4.48-13.22,6.84-6.44,3.28-13.3,6.68-20.33,10.12-35.59,17.4-75.48,35.54-88,41.18-15.73-12.14-30.83-26.37-41.55-42.14l-15.57-45.23s0-14.85,12-25.45c5.72-5,14.16-9.14,26.62-10.21,35.19-3,38.33-24.92,67.81-33.54a79.14,79.14,0,0,1,9.46-2.12c28.63-4.65,86.54-7.21,114.61-8.23,5.65-.2,10.09-.34,12.84-.43Z"/><path class="cls-5" d="M886.4,760.31c-.74,10.53-5.71,25.15-10.12,35.65-5.22,12.42-9.66,19.08-5.44,6.42a58.6,58.6,0,0,0,2-31.52,47.67,47.67,0,0,0-3.16-9.57c5.65-.2,10.09-.34,12.84-.43A7,7,0,0,1,886.4,760.31Z"/><path class="cls-5" d="M824.58,866.44c-2.13,1.17-4.38,2.38-6.73,3.63-9.86,5.22-21.45,11-33.55,17-23.33-14.63-71.09-46.6-62-57.91,0,0,74.3,29.72,98.07,35.66A15.36,15.36,0,0,1,824.58,866.44Z"/><path class="cls-1" d="M796.71,1019.48c-81.76,16.61-99.25,111.79-103,151.74-1,10.87-1,17.65-1,17.65l-41.6-3s-3-47.55,41.6-118.87,89.15-65.38,89.15-65.38L783,1003Z"/><path class="cls-6" d="M879.71,1336.14c-.07,6.32-.12,9.91-.12,9.91l-59.43,3.3,5.94-74.63c4.42-55.44,7.19-115.26,8.32-142.35.4-9.37.6-14.82.6-14.82.57-5.37,1.22-10.26,1.94-14.7,18.68,4.21,13.08,29.39,13.08,29.39s-14.86,89.16-11.89,148.59C840.19,1321.58,864.58,1333,879.71,1336.14Z"/><path class="cls-6" d="M692.54,1087.67c-28.23,58.63-10.45,77.59,1.18,83.55-1,10.87-1,17.65-1,17.65l-41.6-3s-3-47.55,41.6-118.87,89.15-65.38,89.15-65.38L783,1003C765.75,1007.58,722.77,1024.87,692.54,1087.67Z"/><path class="cls-5" d="M665.79,897.47s41.6,50.52,71.32,77.27,26.75,23.77,56.47-3,35.66-65.38,35.66-65.38Z"/><path class="cls-1" d="M891.64,1141.16l-12.09,5-10.39,4.33L856,1156s-9.27-7.72-21.56-23.65a272.41,272.41,0,0,1-38-68.64c-14.43-37.58-25.44-68.51-31.94-87.29-4.35-12.58-6.69-19.7-6.69-19.7,29.72-39,47.55-14.85,65.38,41.61,6.45,20.42,17.19,44.75,28.29,67.49,9.66,19.81,19.58,38.41,27.16,52.18C886.35,1132.14,891.64,1141.16,891.64,1141.16Z"/><path class="cls-6" d="M869.16,1150.53,856,1156s-9.27-7.72-21.56-23.65a272.41,272.41,0,0,1-38-68.64c-14.43-37.58-25.44-68.51-31.94-87.29.76-4,1.57-6.83,2.39-7.64,3-3,14.86,0,14.86,0s3,68.35,41.6,127.78C841.89,1125.19,857.73,1141.41,869.16,1150.53Z"/><path class="cls-2" d="M885.87,1013.54c-6,9.24-38.64,17.83-44.58,14.86s-14.86-8.92-23.77-20.81-44.58-47.54-44.58-47.54l26.23-21.86,9.43-7.86s2.82,1.39,7.27,3.61l1.93,1c15.69,7.85,46.62,23.48,53.21,28.12a20,20,0,0,1,4.77,5.54C883.5,980.61,890.78,1005.89,885.87,1013.54Z"/><path class="cls-3" d="M885.87,1013.54c-6,9.24-38.64,17.83-44.58,14.86s-14.86-8.92-23.77-20.81-44.58-47.54-44.58-47.54l26.23-21.86c7.23-2.18,13-3.5,16.7-4.25,2.86-.58,4.45-.81,4.45-.81s-1,.61-2.52,1.77c-6.79,5.18-23.92,21.52-9.36,45.78,17.83,29.72,29.71,44.58,47.54,26.75,12.75-12.75,17.9-30,19.8-38.87C883.5,980.61,890.78,1005.89,885.87,1013.54Z"/><path class="cls-4" d="M838,903.58s-8.92,32.69-68.35,68.35c0,0-38.24-16.65-73.31-43.72-15.73-12.14-30.83-26.37-41.55-42.14-9.51-14-15.57-29.2-15.57-45.23L688,812.69l7.3-4.2s8,4.63,19.74,11.63c26.22,15.6,71.36,42.92,89.55,56.79,1.37,1.05,2.59,2,3.64,2.9C829.4,897.64,838,903.58,838,903.58Z"/><path class="cls-5" d="M745.65,771.64c-10.09,6.86-21.75,18.58-23.4,36.68-2.89,31.77-33.83-12.23-71,7.07,5.72-5,14.16-9.14,26.62-10.21C713,802.18,716.17,780.26,745.65,771.64Z"/><path class="cls-5" d="M631.17,764.25c-8-12.46-24.63-32.56-39.67-15.37-20.81,23.78-59.44,38.64-38.64,23.78S588.52,734,591.5,710.25,576.64,656.76,541,698.36,434,754.83,478.57,734s80.24-68.36,71.32-98.07c-3.88-13-16.79-40.55-30.12-67.59,9.53,16.87,18.22,32.49,24.34,44,23.78,44.57,14.86,47.55,38.63,62.41s8.92,35,32.69,59.1C623,741.5,627.53,752.1,631.17,764.25Z"/><path class="cls-5" d="M592.2,1140.3C569.08,1063.14,516.29,965,472.46,882.45c-50.52-95.1-139.34-263.83-160.15-311.71,0,0,7.68-9,21-22.23-4.78,14-6.46,32.69,2.62,54.76,20.8,50.52,56.47,101,107,77.26s-8.92,11.89-32.69,29.72,68.35,160.48,86.18,202.08,41.6,74.3,68.35,98.07-20.8-5.94-20.8,5.94C544,1026.9,588.47,1107.76,592.2,1140.3Z"/><path class="cls-5" d="M639,1719.63c-1.14-27-2.64-57.63-4.59-89.42,8.36,42.69,24.45,82.12,52.2,90.45C736.46,1735.62,679.63,1746.4,639,1719.63Z"/><path class="cls-5" d="M630.13,1512.63c-1.4,4.64-2.43,12.47-2.94,22.45-1-10.69-2.05-21.23-3.17-31.53-14.86-136.7-8.26-249-23.44-329.54-1.75-9.26-4.13-19-7-29.11,8.54,28.76,15.85,65.74,18.75,112.16,8.91,142.64,23.77,219.91,74.29,270.43S639,1482.91,630.13,1512.63Z"/><path class="cls-5" d="M737.11,1679.05c16.94-11.29,28.3-22.15,35.87-31.28q.09,9.87.32,19.77C744.83,1684.76,703.25,1701.62,737.11,1679.05Z"/><path class="cls-5" d="M780.2,1796.58c-49.89,13.78-106.93,10.62-138.41,5.38-.07-2.54-.14-5.34-.23-8.39,4.42.32,9.51.77,15.31,1.38,71.56,7.53,106.13-6.41,121.85-17.64C779.25,1784.62,779.76,1791.1,780.2,1796.58Z"/><path class="cls-5" d="M749,1465.08c17.1-18.42,26-42.07,30.71-62.72-.73,18.07-1.46,36.83-2.16,55.68C753.67,1484.84,718.93,1497.46,749,1465.08Z"/><path class="cls-3" d="M1870.88,434.88,1631,958.67l-55.46,121.1c-.25.54-.52,1.07-.8,1.59a24.39,24.39,0,0,1-21.4,12.66h-159a24.41,24.41,0,0,1-22.2-34.58l12.94-28.27L1599,564l96-209.67a24.42,24.42,0,0,1,32.36-12L1757,355.87,1833.7,391l25.15,11.52A24.4,24.4,0,0,1,1870.88,434.88Z"/><polygon class="cls-4" points="1418.95 1094.02 1511.74 1094.02 1833.7 391 1756.99 355.87 1418.95 1094.02"/><path class="cls-7" d="M1631,958.67l-55.46,121.1c-.25.54-.52,1.07-.8,1.59-12.2,3.7-28.61,9-46.92,12.66-23.1,4.66-49.23,6.78-73.78,0a98.38,98.38,0,0,1-29-13.24c-15.45-10.41-29.26-26.25-39.92-49.61L1599,564c-15.36,62.74-28.51,135-29.87,202h0c-1.12,55,5.71,106.48,25.79,146.31C1604.06,930.45,1615.92,946.14,1631,958.67Z"/><path class="cls-8" d="M1589.93,1195.21H1356.55a14.84,14.84,0,0,1-14.85-14.84V1060.29a14.84,14.84,0,0,1,14.85-14.84h233.38a14.84,14.84,0,0,1,14.85,14.84v120.08A14.84,14.84,0,0,1,1589.93,1195.21Zm-218.54-29.69h203.7v-90.38h-203.7Z"/><path class="cls-8" d="M1723.44,1368a251.9,251.9,0,0,1-3.77,43.54c-20.61,117.48-123.14,206.76-246.53,206.76-133.66,0-242.85-104.78-249.93-236.67q-.36-6.78-.36-13.63a249.89,249.89,0,0,1,13.21-80.46c33.51-98.77,127-169.84,237.08-169.84,127.32,0,232.43,95.06,248.24,218.07A252,252,0,0,1,1723.44,1368Z"/><path class="cls-9" d="M1721.75,1349.39a250.19,250.19,0,0,1-9,66.56c-29.14,105.93-126.15,183.74-241.35,183.74-127.31,0-232.42-95-248.24-218.06a254,254,0,0,1-2-32.24,250.09,250.09,0,0,1,250.29-250.29c102.89,0,191.27,62.07,229.75,150.81a248.8,248.8,0,0,1,20.18,85.86Q1721.76,1342.54,1721.75,1349.39Z"/><circle class="cls-10" cx="1471.45" cy="1349.39" r="187.72" transform="translate(-523.19 1435.7) rotate(-45)"/><circle class="cls-8" cx="1471.45" cy="1349.39" r="170.81"/><path class="cls-10" d="M1507.73,1219.17q-1.07,15.7-1.61,30.67t-.9,31.64q-.36,16.69-.54,36.19t-.17,44h30.12q1.06,15.21,1.07,30.42t-1.07,30.17H1418.45c-.49-5.06-.84-10.09-1.08-15.08s-.36-10-.36-15.09q0-7.84.36-15.33c.24-5,.59-10,1.08-15.09h29.76v-21.59q0-11.28-.18-22.57t-.18-22.07v-20.12l-38,3.19a209.27,209.27,0,0,1-1.08-21.34v-6.63q0-3.91.18-8.22c.12-2.85.24-5.6.36-8.21s.3-4.83.54-6.63Z"/><path class="cls-10" d="M1496.55,1474.63a1.25,1.25,0,1,1-.35-2.47,124.88,124.88,0,0,0,66.85-215.6,1.25,1.25,0,0,1,1.69-1.84,127.34,127.34,0,0,1-68.19,219.91Z"/><path class="cls-10" d="M1560.09,1243c7.53,6.57,8.72,17.54,8.72,17.54s-11,.32-18.57-6.25-8.73-17.54-8.73-17.54S1552.55,1236.47,1560.09,1243Z"/><path class="cls-10" d="M1589.27,1256.84c-.42,10-8.25,17.77-8.25,17.77s-7.14-8.42-6.72-18.41,8.26-17.77,8.26-17.77S1589.7,1246.85,1589.27,1256.84Z"/><path class="cls-10" d="M1561,1435.41c-1.44,9.9-10,16.84-10,16.84s-6.25-9.1-4.81-19,10-16.84,10-16.84S1562.45,1425.52,1561,1435.41Z"/><path class="cls-10" d="M1533.65,1450c-1.44,9.89-10,16.83-10,16.83s-6.25-9.1-4.8-19,10-16.83,10-16.83S1535.1,1440.07,1533.65,1450Z"/><path class="cls-10" d="M1608.15,1284c-3.94,9.19-14,13.68-14,13.68s-3.69-10.4.25-19.59,14-13.68,14-13.68S1612.1,1274.84,1608.15,1284Z"/><path class="cls-10" d="M1618,1315.7c-3.94,9.19-14,13.69-14,13.69s-3.69-10.41.25-19.6,14-13.68,14-13.68S1621.94,1306.51,1618,1315.7Z"/><path class="cls-10" d="M1622,1348.82c-6.26,7.8-17.18,9.42-17.18,9.42s-.76-11,5.5-18.81,17.18-9.42,17.18-9.42S1628.25,1341,1622,1348.82Z"/><path class="cls-10" d="M1618.63,1382.07c-8.46,5.35-19.31,3.35-19.31,3.35s2.84-10.67,11.3-16,19.3-3.35,19.3-3.35S1627.08,1376.73,1618.63,1382.07Z"/><path class="cls-10" d="M1607.85,1413.35c-9.62,2.76-19.47-2.21-19.47-2.21s5.73-9.44,15.34-12.19,19.47,2.21,19.47,2.21S1617.46,1410.6,1607.85,1413.35Z"/><path class="cls-10" d="M1583.59,1447c-10,.88-18.69-5.87-18.69-5.87s7.41-8.18,17.37-9.06,18.7,5.86,18.7,5.86S1593.55,1446.12,1583.59,1447Z"/><path class="cls-10" d="M1571.48,1276.78c9.9,1.36,16.92,9.88,16.92,9.88s-9.05,6.33-19,5-16.92-9.88-16.92-9.88S1561.57,1275.42,1571.48,1276.78Z"/><path class="cls-10" d="M1563.36,1454.36c9.6,2.79,15.29,12.25,15.29,12.25s-9.88,4.93-19.48,2.14-15.29-12.26-15.29-12.26S1553.75,1451.56,1563.36,1454.36Z"/><path class="cls-10" d="M1527.7,1469.67c9.6,2.8,15.29,12.26,15.29,12.26s-9.88,4.92-19.48,2.13-15.29-12.25-15.29-12.25S1518.09,1466.88,1527.7,1469.67Z"/><path class="cls-10" d="M1584.42,1301.25c9.6,2.79,15.29,12.25,15.29,12.25s-9.88,4.93-19.48,2.14-15.29-12.26-15.29-12.26S1574.81,1298.45,1584.42,1301.25Z"/><path class="cls-10" d="M1592.14,1330.32c8.72,4.9,12.13,15.4,12.13,15.4s-10.74,2.57-19.46-2.33-12.12-15.4-12.12-15.4S1583.42,1325.43,1592.14,1330.32Z"/><path class="cls-10" d="M1595.06,1358.26c6.6,7.51,6.33,18.55,6.33,18.55s-11-1.14-17.59-8.65-6.33-18.55-6.33-18.55S1588.45,1350.75,1595.06,1358.26Z"/><path class="cls-10" d="M1591.13,1388.8c3.17,9.49-1.37,19.55-1.37,19.55s-9.68-5.32-12.84-14.81,1.37-19.54,1.37-19.54S1588,1379.31,1591.13,1388.8Z"/><path class="cls-10" d="M1578.67,1413.74c.56,10-6.46,18.5-6.46,18.5s-7.94-7.67-8.51-17.65,6.46-18.5,6.46-18.5S1578.1,1403.76,1578.67,1413.74Z"/><path class="cls-10" d="M1446.41,1476.13a1.25,1.25,0,1,0,.36-2.47,124.88,124.88,0,0,1-66.86-215.6,1.25,1.25,0,1,0-1.68-1.84,127.32,127.32,0,0,0,68.18,219.91Z"/><path class="cls-10" d="M1382.88,1244.54c-7.54,6.57-8.73,17.55-8.73,17.55s11,.32,18.58-6.25,8.72-17.55,8.72-17.55S1390.42,1238,1382.88,1244.54Z"/><path class="cls-10" d="M1353.69,1258.34c.43,10,8.26,17.78,8.26,17.78s7.14-8.42,6.71-18.41-8.25-17.78-8.25-17.78S1353.27,1248.35,1353.69,1258.34Z"/><path class="cls-10" d="M1382,1436.92c1.45,9.89,10,16.83,10,16.83s6.25-9.1,4.8-19-10-16.84-10-16.84S1380.51,1427,1382,1436.92Z"/><path class="cls-10" d="M1409.31,1451.47c1.44,9.89,10,16.84,10,16.84s6.24-9.11,4.8-19-10-16.84-10-16.84S1407.87,1441.57,1409.31,1451.47Z"/><path class="cls-10" d="M1334.81,1285.53c4,9.19,14,13.69,14,13.69s3.69-10.41-.25-19.6-14-13.68-14-13.68S1330.87,1276.34,1334.81,1285.53Z"/><path class="cls-10" d="M1325,1317.21c4,9.19,14,13.68,14,13.68s3.69-10.4-.26-19.59-14-13.69-14-13.69S1321,1308,1325,1317.21Z"/><path class="cls-10" d="M1321,1350.32c6.27,7.8,17.19,9.43,17.19,9.43s.76-11-5.5-18.81-17.19-9.43-17.19-9.43S1314.72,1342.53,1321,1350.32Z"/><path class="cls-10" d="M1324.34,1383.57c8.45,5.35,19.31,3.35,19.31,3.35s-2.85-10.67-11.3-16-19.31-3.35-19.31-3.35S1315.89,1378.23,1324.34,1383.57Z"/><path class="cls-10" d="M1335.12,1414.86c9.61,2.75,19.47-2.22,19.47-2.22s-5.73-9.43-15.34-12.19-19.47,2.22-19.47,2.22S1325.51,1412.1,1335.12,1414.86Z"/><path class="cls-10" d="M1359.37,1448.51c10,.88,18.7-5.87,18.7-5.87s-7.41-8.18-17.37-9.06-18.7,5.87-18.7,5.87S1349.41,1447.63,1359.37,1448.51Z"/><path class="cls-10" d="M1371.49,1278.29c-9.91,1.35-16.92,9.88-16.92,9.88s9,6.32,19,5,16.92-9.88,16.92-9.88S1381.4,1276.93,1371.49,1278.29Z"/><path class="cls-10" d="M1379.61,1455.86c-9.6,2.8-15.29,12.25-15.29,12.25s9.88,4.93,19.48,2.14,15.29-12.25,15.29-12.25S1389.21,1453.07,1379.61,1455.86Z"/><path class="cls-10" d="M1415.27,1471.18c-9.6,2.79-15.29,12.25-15.29,12.25s9.87,4.93,19.48,2.13,15.29-12.25,15.29-12.25S1424.87,1468.38,1415.27,1471.18Z"/><path class="cls-10" d="M1358.55,1302.75c-9.6,2.8-15.29,12.26-15.29,12.26s9.88,4.92,19.48,2.13,15.29-12.25,15.29-12.25S1368.15,1300,1358.55,1302.75Z"/><path class="cls-10" d="M1350.82,1331.83c-8.72,4.89-12.12,15.4-12.12,15.4s10.74,2.56,19.46-2.33,12.12-15.4,12.12-15.4S1359.54,1326.93,1350.82,1331.83Z"/><path class="cls-10" d="M1347.91,1359.77c-6.6,7.51-6.33,18.54-6.33,18.54s11-1.14,17.58-8.65,6.33-18.54,6.33-18.54S1354.51,1352.26,1347.91,1359.77Z"/><path class="cls-10" d="M1351.83,1390.3c-3.16,9.49,1.38,19.55,1.38,19.55s9.67-5.32,12.84-14.8-1.38-19.55-1.38-19.55S1355,1380.82,1351.83,1390.3Z"/><path class="cls-10" d="M1364.3,1415.25c-.56,10,6.46,18.5,6.46,18.5s7.94-7.67,8.5-17.66-6.46-18.5-6.46-18.5S1364.86,1405.26,1364.3,1415.25Z"/><path class="cls-4" d="M1630.82,1207.9a12.38,12.38,0,0,1-8.92-3.79,210.87,210.87,0,0,0-22.73-20.35,12.4,12.4,0,1,1,15.16-19.63,235.29,235.29,0,0,1,25.41,22.75,12.4,12.4,0,0,1-8.92,21Z"/><path class="cls-4" d="M1572.92,1164.8a12.33,12.33,0,0,1-5.68-1.38,206.92,206.92,0,0,0-95.79-23.17,12.4,12.4,0,0,1,0-24.8,233,233,0,0,1,107.16,25.93,12.4,12.4,0,0,1-5.69,23.42Z"/><path class="cls-11" d="M1719.67,1411.54c-20.61,117.48-123.14,206.76-246.53,206.76-133.66,0-242.85-104.78-249.93-236.67a254,254,0,0,1-2-32.24,250.57,250.57,0,0,1,10-70.36c1.49,2.65,3.11,5.5,4.88,8.51,49.32,84,208.48,297.81,476.74,128.41Q1716.22,1413.79,1719.67,1411.54Z"/><path class="cls-12" d="M1701.2,1249.91c-36.71,62.64-142.86,87.52-226.36,40.29-84.94-48-104.74-126.08-109-167.78a249.45,249.45,0,0,1,105.65-23.32C1574.34,1099.1,1662.72,1161.17,1701.2,1249.91Z"/><path class="cls-3" d="M1572.69,1079.25a24.31,24.31,0,0,1-22.43,14.77h-159a24.37,24.37,0,0,1-22.2-14.25l-202-441-60.91-133-32.46-70.87a24.4,24.4,0,0,1,12-32.36L1110.9,391l76.71-35.13,29.58-13.55a24.43,24.43,0,0,1,32.37,12l322.9,705.08A24.15,24.15,0,0,1,1572.69,1079.25Z"/><polygon class="cls-4" points="1525.66 1094.02 1432.86 1094.02 1110.9 391 1187.61 355.87 1525.66 1094.02"/><path class="cls-7" d="M1071.92,420.22c8.73,23.06,20.22,52.28,34.26,85.53l-32.46-70.87A24.33,24.33,0,0,1,1071.92,420.22Z"/><path class="cls-7" d="M1572.69,1079.25a24.31,24.31,0,0,1-22.43,14.77h-159a24.37,24.37,0,0,1-22.2-14.25l-202-441C1259.82,825.4,1402.54,1044.79,1572.69,1079.25Z"/><polygon class="cls-4" points="162.21 784.63 182.41 787.58 162.21 790.53 159.27 833.41 156.32 790.53 136.12 787.58 156.32 784.63 159.27 745.91 162.21 784.63"/><polygon class="cls-4" points="1270.07 1190.72 1306.44 1196.02 1270.07 1201.32 1264.77 1278.52 1259.46 1201.32 1223.1 1196.02 1259.46 1190.72 1264.77 1121.02 1270.07 1190.72"/><polygon class="cls-4" points="1638.57 1563.84 1674.94 1569.14 1638.57 1574.45 1633.27 1651.64 1627.97 1574.45 1591.6 1569.14 1627.97 1563.84 1633.27 1494.14 1638.57 1563.84"/><polygon class="cls-4" points="1367.48 560.7 1403.85 566 1367.48 571.31 1362.18 648.5 1356.87 571.31 1320.51 566 1356.87 560.7 1362.18 491 1367.48 560.7"/><polygon class="cls-4" points="500.38 229.51 536.75 234.81 500.38 240.12 495.08 317.32 489.77 240.12 453.41 234.81 489.77 229.51 495.08 159.81 500.38 229.51"/><polygon class="cls-4" points="961.24 1758.7 978.85 1761.27 961.24 1763.84 958.67 1801.22 956.11 1763.84 938.5 1761.27 956.11 1758.7 958.67 1724.95 961.24 1758.7"/><polygon class="cls-4" points="1385.22 1792.71 1402.83 1795.28 1385.22 1797.85 1382.65 1835.23 1380.08 1797.85 1362.47 1795.28 1380.08 1792.71 1382.65 1758.96 1385.22 1792.71"/><polygon class="cls-4" points="844.35 488.1 861.96 490.67 844.35 493.24 841.78 530.62 839.22 493.24 821.61 490.67 839.22 488.1 841.78 454.35 844.35 488.1"/><polygon class="cls-4" points="368.87 1468.79 386.48 1471.36 368.87 1473.93 366.3 1511.31 363.73 1473.93 346.12 1471.36 363.73 1468.79 366.3 1435.04 368.87 1468.79"/><polygon class="cls-4" points="877.8 1388.51 914.16 1393.81 877.8 1399.11 872.49 1476.31 867.19 1399.11 830.83 1393.81 867.19 1388.51 872.49 1318.81 877.8 1388.51"/><polygon class="cls-4" points="170.51 1872.9 206.88 1878.21 170.51 1883.51 165.21 1960.71 159.91 1883.51 123.54 1878.21 159.91 1872.9 165.21 1803.21 170.51 1872.9"/><polygon class="cls-4" points="1723.43 108.99 1759.8 114.29 1723.43 119.59 1718.13 196.79 1712.83 119.59 1676.46 114.29 1712.83 108.99 1718.13 39.29 1723.43 108.99"/><polygon class="cls-4" points="1765.04 1780.78 1801.4 1786.08 1765.04 1791.39 1759.73 1868.59 1754.43 1791.39 1718.07 1786.08 1754.43 1780.78 1759.73 1711.08 1765.04 1780.78"/><polygon class="cls-4" points="1157.38 766.13 1174.99 768.7 1157.38 771.26 1154.81 808.65 1152.24 771.26 1134.63 768.7 1152.24 766.13 1154.81 732.38 1157.38 766.13"/><polygon class="cls-4" points="1858.85 402.52 1876.46 405.08 1858.85 407.65 1856.28 445.04 1853.71 407.65 1836.1 405.08 1853.71 402.52 1856.28 368.76 1858.85 402.52"/><polygon class="cls-4" points="1614.72 1037.09 1630.2 1039.35 1614.72 1041.61 1612.47 1074.46 1610.21 1041.61 1594.73 1039.35 1610.21 1037.09 1612.47 1007.43 1614.72 1037.09"/><path class="cls-6" d="M1034.3,622.73c-4.13,15.71-8,37.5-5.21,56.9-4.77-10.34-10.94-27.72-9.68-46.64C983,648.61,902,655.49,882.73,603.27c-6.85-18.59-6.61-33.32-1.83-43.64-2.16,16.87.85,46.7,44.43,59.16,41.76,11.93,79.52-.09,99.94-9.35a123.24,123.24,0,0,0,16-8.48A204,204,0,0,0,1034.3,622.73Z"/><path class="cls-6" d="M1090.83,664.64c2.93-59.16-31.4-72.2-42.93-74.9a28.27,28.27,0,0,0-3.7-.67,22.48,22.48,0,0,0-.94-6.42c-2.34-7.81-8.58-13.37-13.44-16.68,8.63,2.33,15,7,17.22,16,6.5-.83,14.49.3,22.91,6.48C1089,602.35,1095,634.15,1090.83,664.64Z"/></svg>