<svg id="Layer_1" data-name="Layer 1" xmlns="http://www.w3.org/2000/svg" viewBox="0 0 800 1100"><defs><style>.cls-1{fill:#ffbdaf;}.cls-2{fill:#0a1a33;}.cls-3{fill:#5cb9b3;}.cls-4{fill:#fff;}.cls-5{fill:#254059;}.cls-6{fill:#b96342;}.cls-7{fill:#ff777c;}</style></defs><g id="Sportsman"><path class="cls-1" d="M420.49,963.8c0,2-6.52,59.29-8.47,82.75a102.82,102.82,0,0,0,.46,22.5,19,19,0,0,0,15.74,16.16c10.89,1.81,27,4.22,39.83,5,21.5,1.3,22.81-2,24.11-8.47s0-11.73-11.08-14.34-26.71-12.38-31.27-18.24,5.21-74.28,12.38-84.71Z"/><path class="cls-2" d="M476,1093c-2.36,0-5-.09-8.08-.28-12.86-.78-28.9-3.16-40.09-5A21.45,21.45,0,0,1,410,1069.39a105.8,105.8,0,0,1-.48-23.05c1.22-14.61,4.15-41.8,6.28-61.66C417,974,418,964.7,418,963.77a2.53,2.53,0,0,1,2.54-2.47l41.7.65a2.51,2.51,0,0,1,2,3.92c-2.9,4.22-7.05,21.63-10.08,42.33-3.51,24-3.49,37.51-2.35,39.47,4.25,5.47,19.51,14.87,29.84,17.3,10.83,2.55,14.83,7.87,12.95,17.26C493.18,1089.39,490.73,1093,476,1093Zm-53.2-126.64c-.29,3-.91,8.74-2,18.88-2.14,19.83-5.06,47-6.27,61.54a100.14,100.14,0,0,0,.45,22,16.46,16.46,0,0,0,13.68,14c11.07,1.84,26.92,4.2,39.56,5,20,1.22,20.49-1.35,21.51-6.46,1-4.83.94-9-9.2-11.41-11.72-2.76-27.77-12.84-32.67-19.15-3.71-4.76-.34-31.33,1.29-42.53,2.17-15.06,5.54-32.54,9.05-41.27Z"/><path class="cls-3" d="M185.67,245.07s9.5-21.21,57.7-34.5c32.9-9.07,34.5,1.88,34.5,1.88S211.38,251.34,185.67,245.07Z"/><path class="cls-2" d="M192,248.24a29.5,29.5,0,0,1-6.88-.74,2.54,2.54,0,0,1-1.65-1.33,2.5,2.5,0,0,1,0-2.12c.41-.91,10.55-22.44,59.32-35.89,16.58-4.57,28-4.9,34-1,3.09,2,3.59,4.46,3.66,4.93a2.49,2.49,0,0,1-1.21,2.52C276.59,216.09,221.28,248.24,192,248.24Zm-2.14-5.06c10.57.77,27.88-4.12,50.53-14.33,15.27-6.88,28.76-14.3,34-17.25a9.12,9.12,0,0,0-3.1-1.42c-3.89-1.07-11.77-1.45-27.19,2.8-24.17,6.67-38.15,15.34-45.62,21.44A50.06,50.06,0,0,0,189.81,243.18Z"/><path class="cls-1" d="M197.1,256.2s-6.15-30-15.56-64-16.64-47-26.77-56.44-13-19.53-6.51-29.66,15.19-22.43,14.47-34.73,1.81-32.92,12.3-40.88,7.6-6.15,7.6-6.15,1.62-3.64,6.87-8c6.18-5.09,15.19-10.86,21-2.9s-5.79,4-6.87,26.41.44,37.9,3.33,58.52,6.18,38.05,10.52,60.84,29.92,91.92,29.92,91.92Z"/><path class="cls-2" d="M197.09,258.7a2.49,2.49,0,0,1-2.44-2c-.06-.3-6.25-30.34-15.52-63.87-9.67-35-16.88-46.74-26.06-55.27-14.51-13.47-11.77-25.3-6.92-32.85l1.51-2.32c6.18-9.54,13.19-20.35,12.57-30.91-.69-11.71,1.34-33.95,13.29-43,4.16-3.15,6-4.65,6.91-5.36a28.78,28.78,0,0,1,7.48-8.68c4.26-3.52,10.65-8.1,16.85-7.31A11.15,11.15,0,0,1,212.5,12c3.52,4.84,2.07,7.26-.38,10.16-2.17,2.58-5.46,6.48-6,17.84-1.05,21.65.29,36.54,3.31,58.05,2.79,19.91,5.83,36.22,10.49,60.72,4.26,22.33,29.56,90.83,29.82,91.52a2.5,2.5,0,0,1-.23,2.19,2.47,2.47,0,0,1-1.87,1.16l-50.28,5.07ZM185.53,24.27c-.1,1.22-1.31,2.2-2.34,3-1.33,1.08-3.57,2.81-6.65,5.15-9.55,7.24-12,27.14-11.32,38.74.72,12.2-7.09,24.24-13.37,33.92l-1.49,2.31c-5.56,8.64-3.5,17.55,6.11,26.48C166.31,143,174,155.39,184,191.5c7.87,28.46,13.53,54.42,15.13,62L243.92,249c-5-13.74-25.06-69-28.92-89.29-4.68-24.57-7.72-40.93-10.53-60.95-3.07-21.83-4.43-36.94-3.36-59,.63-13,4.74-17.92,7.19-20.83,1.65-1.94,1.65-1.94.16-4a6.3,6.3,0,0,0-4.33-2.85c-3.22-.41-7.48,1.62-13,6.21A27.44,27.44,0,0,0,185.53,24.27Z"/><path class="cls-3" d="M405.19,447.66c-6.27-6.9-43.28-63.35-53.94-72.76s-20.7-21.32-25.72-35.12-23.83-60.84-30.1-78.4-17.56-48.93-17.56-48.93-55.2,26.35-70.25,30.74-22,1.88-22,1.88,49.55,151.78,56.44,172.48S293.55,517.9,308.6,535.47s69,85.3,89.69,87.18c0,0,3.14,50.17,7.53,62.72s16.3,56.45,16.3,58.33,5.65,102.23,1.26,120.42-5.65,50.81-8.16,77.78-1.88,59-1.25,60.84,21.33,5,40.77,3.13,54.57,8.16,63.35,1.88-16.31-59.58-18.19-88.43,8.78-60.84,7.52-77.15-6.27-37.63-6.27-37.63c0-15,18.82-60.21,24.46-73.38S545.06,664,545.06,664s34.49-115.4,25.71-125.44-127.32-86.55-129.2-87.18S405.19,447.66,405.19,447.66Z"/><path class="cls-2" d="M507.5,1012.34c-6.25,0-14-1-22.37-2-10.82-1.36-22-2.76-30.15-2a146.62,146.62,0,0,1-27.94-.16c-14.37-1.46-15-3.47-15.44-4.67-1-2.87-1.25-36.21,1.13-61.86.72-7.66,1.34-15.91,1.94-23.89,1.52-20.17,3.09-41,6.28-54.24,1.73-7.17,2.94-33-1.12-115.31-.14-2.92-.19-4-.2-4.41-.46-3.2-11.79-45.1-16.17-57.63-4-11.43-6.9-51.86-7.54-61.42-17.45-4.23-49.67-40.41-82.07-79.18-2.85-3.41-5.31-6.35-7.15-8.5-14.65-17.09-59.71-97-67-118.75-6.82-20.47-56-171-56.45-172.5a2.5,2.5,0,0,1,3.23-3.12s6.55,2.11,20.4-1.93c14.69-4.29,69.32-30.33,69.87-30.59a2.48,2.48,0,0,1,2-.06,2.51,2.51,0,0,1,1.4,1.47s11.29,31.36,17.56,48.92c3.48,9.76,11,29,17.59,45.9,5.29,13.55,10.28,26.35,12.51,32.49,4.28,11.75,12.69,23.23,25,34.11,6.91,6.09,23.83,30.31,37.43,49.77,7.15,10.24,13.41,19.19,16.1,22.46,10.94,1,34,3.16,35.93,3.79,1.71.57,39.11,24.82,62.6,40.35,28.2,18.63,62.84,42,67.69,47.56,1.9,2.17,6.35,7.25-9,68.73-7.31,29.25-15.76,57.68-16.16,59-.73,2.84-13.94,54.32-19.56,67.43-11.64,27.15-24.06,60.23-24.26,72.12.64,2.74,5.08,22.25,6.27,37.72.57,7.4-1.15,17.53-3.15,29.26-2.54,15-5.42,31.91-4.38,47.92.82,12.6,6.36,30.56,11.24,46.4,7.81,25.36,11.94,39.92,5.91,44.23C516.91,1011.67,512.73,1012.34,507.5,1012.34Zm-47.28-9.21c7.71,0,16.74,1.13,25.53,2.23,12.52,1.57,26.7,3.35,30.88.36.2-.14,1.87-1.67-.27-11.93-1.52-7.3-4.43-16.75-7.51-26.76-5-16.1-10.59-34.36-11.45-47.55-1.08-16.59,1.85-33.85,4.44-49.08,1.94-11.4,3.61-21.25,3.09-28-1.22-15.92-6.16-37-6.21-37.25a2.22,2.22,0,0,1-.07-.57c0-15.61,18.88-60.87,24.67-74.37,5.5-12.84,19.18-66.21,19.31-66.75l0-.09c.09-.29,8.7-29.16,16.13-58.87,14-56.08,10.87-63.33,10.1-64.21C560.82,531,448.57,458,440.68,453.77c-2.39-.49-23.06-2.47-35.72-3.62a2.53,2.53,0,0,1-1.62-.81c-2.45-2.7-8.92-11.95-17.11-23.67-12.73-18.23-30.18-43.2-36.64-48.9-13-11.43-21.84-23.59-26.41-36.14-2.21-6.08-7.19-18.86-12.47-32.38-6.62-17-14.13-36.21-17.64-46-5.18-14.52-13.79-38.46-16.62-46.33-11.07,5.25-54.72,25.78-68.13,29.7-8.91,2.59-15.19,2.87-19,2.6,7.81,23.9,49,150,55.18,168.57,7.14,21.45,51.56,100.23,66,117.08,1.86,2.17,4.33,5.12,7.19,8.55,19.06,22.8,63.7,76.21,80.83,77.77a2.49,2.49,0,0,1,2.26,2.33c0,.5,3.17,50,7.4,62,3.84,11,16.44,56.32,16.44,59.16,0,.24.1,2,.21,4.29,3.28,66.56,3.61,105.83,1,116.72-3.1,12.82-4.65,33.47-6.15,53.44-.61,8-1.23,16.28-2,24-2.32,25-1.89,53.61-1.42,59.15,3.9,1.42,21,3.77,38.21,2.1C456.3,1003.21,458.22,1003.13,460.22,1003.13ZM419.62,743.7v0Zm21.16-289.91h0Z"/><path class="cls-2" d="M329.93,391.2h-.21a2.5,2.5,0,0,1-2.29-2.69c0-.23,1.85-23.07.64-32.73a2.5,2.5,0,1,1,5-.62c1.27,10.17-.54,32.79-.61,33.75A2.5,2.5,0,0,1,329.93,391.2Z"/><path class="cls-2" d="M276.61,287.08a2.49,2.49,0,0,1-2.4-1.81c-.16-.55-3.86-13.87-4.49-47a2.5,2.5,0,0,1,5-.1c.61,32.39,4.26,45.65,4.3,45.78a2.51,2.51,0,0,1-1.73,3.09A2.65,2.65,0,0,1,276.61,287.08Z"/><path class="cls-2" d="M501.15,932.48a2.51,2.51,0,0,1-2.28-1.47l-1.81-4C488.88,909,483,895.9,483,885.45a2.5,2.5,0,0,1,5,0c0,9.37,6,22.66,13.64,39.48l1.82,4a2.5,2.5,0,0,1-2.28,3.53Z"/><path class="cls-2" d="M418.1,730.58a2.51,2.51,0,0,1-2.5-2.37c-.78-14.15,1.54-82.88,5.74-104.72,2.53-13.17,3.34-47.25,3.88-69.8.15-6.29.27-11.72.41-15.59.25-6.67.3-8.06,2.44-8.54a2.61,2.61,0,0,1,2.84,1.38,2.48,2.48,0,0,1,0,2.25c-.25,2.33-.46,11.24-.69,20.62-.54,22.72-1.35,57.05-4,70.63-4.15,21.55-6.43,89.5-5.65,103.5a2.5,2.5,0,0,1-2.36,2.63Z"/><path class="cls-2" d="M397,624h-.19a2.5,2.5,0,0,1-2.3-2.69l1.63-21.15c.7-9.19,5.43-25.3,10-40.89,3.77-12.85,8.83-30.09,8.55-35.11-.82.25-1.73.5-2.75.77-8.67,2.3-24.82,6.58-28.75,29.49-4.75,27.73-.84,55.88-.8,56.16a2.5,2.5,0,0,1-5,.7c-.17-1.17-4.07-29.18.82-57.71,4.47-26.07,23.34-31.07,32.4-33.48,1.37-.36,2.56-.67,3.35-1a3.85,3.85,0,0,1,4.11.65c3.46,3.22.78,13.78-7.19,40.91-4.5,15.34-9.15,31.2-9.82,39.87l-1.63,21.15A2.49,2.49,0,0,1,397,624Z"/><path class="cls-2" d="M314.8,512.59a2.51,2.51,0,0,1-2.18-1.27c-1.24-2.21-30.36-54.34-33.64-76.5-1.1-7.43-2.39-13.63-3.75-20.19a382.15,382.15,0,0,1-7.66-52.36,2.5,2.5,0,0,1,5-.42,371.61,371.61,0,0,0,7.57,51.76c1.37,6.64,2.67,12.9,3.8,20.47,3.15,21.26,32.75,74.26,33.05,74.79a2.49,2.49,0,0,1-1,3.4A2.42,2.42,0,0,1,314.8,512.59Z"/><path class="cls-2" d="M357.91,470.3a2.5,2.5,0,0,1-.74-4.89c10.81-3.33,30.78-5.88,38.7-4.12a2.5,2.5,0,1,1-1.09,4.88c-6.39-1.42-25.3.68-36.13,4A2.76,2.76,0,0,1,357.91,470.3Z"/><path class="cls-2" d="M380.68,554.07a2.49,2.49,0,0,1-2.5-2.5V507.65c0-10.65,8.46-21,25.13-30.65.56-.32,1-.56,1.2-.71a2.5,2.5,0,0,1,2.78,4.16c-.28.18-.78.48-1.47.88-15,8.73-22.64,17.58-22.64,26.32v43.92A2.49,2.49,0,0,1,380.68,554.07Z"/><path class="cls-4" d="M323,351.07S367.56,326,377,337.89C377,337.89,345,351.07,323,351.07Z"/><path class="cls-2" d="M323,353.57a2.5,2.5,0,0,1-1.22-4.68,206.83,206.83,0,0,1,23.76-11.21c17.72-6.89,28.64-7.32,33.37-1.33a2.51,2.51,0,0,1-1,3.86C376.59,340.75,345.22,353.57,323,353.57Zm45.34-16.38c-8,0-21,4.64-32.8,10.22,13.71-2.25,28.32-7.26,35.66-10A15.74,15.74,0,0,0,368.36,337.19Z"/><path class="cls-1" d="M337,350.64c8.64-31.32,14.54-54.36,17.45-69.68,1.22-6.41,4-12.85,9.48-25.72,2-4.67,4.51-10.17,10.21-12.79a16.64,16.64,0,0,1,8.15-1.38s4,.29,5.33,2.32c0,0,7.1-2.37,9.47,1.36,0,0,4.74-3.05,8.46,2.71,0,0,5.08-3.05,6.1,4.4,1.08,7.91-11.44,20.57-20,35.19-3,5.23-4.74,9.47-8.12,17.94a195.81,195.81,0,0,0-12.19,47.38Z"/><path class="cls-2" d="M371.34,354.87h-.12l-34.37-1.73a2.51,2.51,0,0,1-2.29-3.16c9.34-33.84,14.7-55.27,17.4-69.49,1.27-6.67,4.07-13.21,9.64-26.23,1.86-4.37,4.69-11,11.46-14.08a19.09,19.09,0,0,1,9.37-1.61,12,12,0,0,1,5.9,2c2.3-.52,6.55-1,9.38,1.18a8.26,8.26,0,0,1,8.69,2.71,5.9,5.9,0,0,1,3.81.39c2.12,1,3.42,3.25,3.88,6.64.84,6.16-4.33,13.44-10.88,22.67-3.2,4.51-6.52,9.18-9.4,14.12s-4.63,9.26-8,17.61a194.27,194.27,0,0,0-12,46.78A2.49,2.49,0,0,1,371.34,354.87Zm-31.13-6.57,29,1.46a198.88,198.88,0,0,1,12-45.7c3.43-8.57,5.15-12.88,8.29-18.27,3-5.14,6.53-10.11,9.65-14.5,5.44-7.66,10.57-14.89,10-19.1-.26-1.91-.8-2.66-1.08-2.8a1.8,1.8,0,0,0-1.28.23,2.53,2.53,0,0,1-3.35-.81c-2.09-3.22-4.22-2.43-5.05-1.94a2.55,2.55,0,0,1-3.43-.78c-.92-1.45-4.74-.93-6.58-.32a2.49,2.49,0,0,1-2.86-1c-.38-.57-2.13-1.11-3.44-1.22a14.09,14.09,0,0,0-6.92,1.16c-4.64,2.13-6.88,6.66-9,11.5-5.42,12.69-8.15,19.06-9.31,25.21C354.23,295.36,349.07,316.06,340.21,348.3Z"/><path class="cls-2" d="M378.88,265.19h-.3a6.31,6.31,0,0,1-4.8-2.68c-2.29-3.25-1.48-8-.79-10.61a2.5,2.5,0,0,1,4.83,1.29c-.91,3.41-.54,5.6.05,6.44a1.26,1.26,0,0,0,.76.52c1.5-1.45,4-8.79,5.49-16.22a2.5,2.5,0,1,1,4.9,1C386.33,258.37,382.92,265.19,378.88,265.19Z"/><path class="cls-2" d="M387,269.34a10.24,10.24,0,0,1-3.21-.56,7.35,7.35,0,0,1-5.06-8.2,2.5,2.5,0,0,1,4.93.82,2.34,2.34,0,0,0,1.71,2.64c1.91.63,3.45.48,4.71-2.37.92-2.06,3.3-11.81,4.59-17.48a2.5,2.5,0,0,1,4.87,1.11c-.35,1.55-3.48,15.22-4.89,18.4C393,267.39,390.27,269.34,387,269.34Z"/><path class="cls-2" d="M397.6,271.75c-4.13,0-6.73-3.61-7.6-5.77a2.5,2.5,0,1,1,4.65-1.85c0,.1,1.27,3,3.47,2.57.69-.47,2.42-2.92,4.29-15.42a15.78,15.78,0,0,1,.4-2.25,2.5,2.5,0,0,1,4.78,1.48c0,.25-.13.78-.24,1.51-1.64,11-3.64,18.52-8,19.53A7.58,7.58,0,0,1,397.6,271.75Zm10-21.22a.19.19,0,0,1,0,.08A.45.45,0,0,0,407.58,250.53Z"/><path class="cls-1" d="M386.91,272.84s8.8-6.43,15.23-6.43,6.09-16.25,12.52-18.28,4.74,15.23,1.69,21-15.23,26.06-29.78,20.3"/><path class="cls-2" d="M391.77,293a16.55,16.55,0,0,1-6.12-1.2,2.5,2.5,0,0,1,1.84-4.65c5.21,2.06,10.78.27,16.55-5.31A60.25,60.25,0,0,0,414.15,268c2.59-4.9,3.18-15.95,1.45-17.48l-.18.05c-1.93.61-3.31,4.51-4.53,8-1.72,4.89-3.67,10.43-8.75,10.43-4.59,0-11.49,4.29-13.76,5.95a2.5,2.5,0,0,1-2.94-4c1-.71,9.66-6.91,16.7-6.91,1.54,0,2.93-3.93,4-7.09,1.68-4.77,3.42-9.71,7.73-11.07a4.92,4.92,0,0,1,5.53,1.54c3.93,4.7,1.72,18.09-.88,23C416.36,274.46,405.77,292.94,391.77,293Z"/><path class="cls-4" d="M405.82,463.34s-.63,5-23.84-3.77-59-108.5-59-108.5c9.41,5.64,52.06-12.55,53.94-13.18s0,48.93,1.89,49.55,27-11.29,29.48-11.29,57.7-42,69.62-48.92,48.92-13.17,53.94-14.42l66.48-16.94s13.8,3.14,30.73,23.84,6.27,62.72,6.9,64.6-15.68,54.57-22,69.62-12.54,45.78-16.93,48.92S577,526.68,577,526.68C573.28,527.94,405.82,463.34,405.82,463.34Z"/><path class="cls-2" d="M577.1,529.18c-2.5,0-13.16-3.1-88-31.36-37.35-14.11-74.75-28.5-82.69-31.56l0,0c-3.58,2.16-11.86.73-25.32-4.37-24-9.08-59-105.88-60.43-110a2.5,2.5,0,0,1,3.64-3c1.73,1,10.43,3.19,49.9-12.63,1.07-.43,1.75-.7,2-.77a2.64,2.64,0,0,1,2.36.36c1.61,1.16,1.88,2.05,1.88,26.32,0,7.77,0,17.93.33,22.25,3.07-1.07,8.93-3.57,13.11-5.35,9-3.84,12.33-5.17,14-5.41,2.62-1.25,17.47-12.07,30.6-21.64,15.85-11.55,32.24-23.49,38.27-27,10-5.78,36.11-11,48.66-13.46,2.81-.56,5-1,5.93-1.23l66.47-16.93a2.57,2.57,0,0,1,1.17,0c.6.14,14.84,3.57,32.12,24.69C645.7,336,640.82,368.2,639,380.31c-.24,1.56-.49,3.18-.5,3.67.11,1.33-.65,5.91-8.48,30.95-4.38,14-10.27,31.87-13.64,40-2.62,6.29-5.25,15.39-7.79,24.2-4.33,15-6.93,23.6-10,25.8S585.25,520,579,528.19a2.53,2.53,0,0,1-1.2.87A2.13,2.13,0,0,1,577.1,529.18ZM405.82,460.84a2.59,2.59,0,0,1,.9.16c62.69,24.19,157,59.94,169.22,63,3.62-4.73,15.63-20.26,19.72-23.18,1.89-1.56,5.48-14,8.11-23.12,2.58-8.94,5.24-18.18,8-24.73,6.16-14.78,21.19-63.65,21.77-68.4-.11-.81.06-2,.52-5,1.75-11.51,6.39-42.07-6.86-58.27-14.25-17.42-26.23-22-28.84-22.83L532.5,315.23c-1,.26-3.19.69-6.17,1.28C515,318.76,488.46,324,479.2,329.4c-5.81,3.36-22.82,15.75-37.83,26.69-27.79,20.25-31.15,22.46-32.91,22.56-1.36.25-7.88,3-12.65,5.05-14.48,6.17-16.18,6.64-17.75,6.12-2.08-.7-2.34-2.59-2.54-10.41-.11-4.75-.11-11.09-.11-17.21,0-7.18,0-16.48-.28-20.89C346.05,352.9,333.1,355,327,354.65c11.14,30.1,38.63,96.06,55.88,102.59,15.57,5.89,19.91,5.14,20.79,4.84a2.46,2.46,0,0,1,2.16-1.24ZM403.34,463h0Zm0,0h0Zm5.07-84.36h0Z"/><path class="cls-5" d="M512.44,326c.63-1.88,1.26-25.72,18.82-34.5s68.36-16.93,69.62-13.8l-2.51,18.19Z"/><path class="cls-2" d="M512.44,328.48a2.5,2.5,0,0,1-2.39-3.22c0-.21.13-.85.2-1.42.86-6.52,3.46-26.38,19.89-34.59,16.14-8.07,64.12-16.94,71.15-14.26a3.12,3.12,0,0,1,1.91,1.76,2.63,2.63,0,0,1,.16,1.27l-2.51,18.19a2.51,2.51,0,0,1-1.65,2l-85.93,30.11A2.63,2.63,0,0,1,512.44,328.48Zm85-49c-10.11,0-49.26,6.34-65.06,14.25C519.81,300,516.61,315,515.52,322.25L596.1,294l2-14.53Z"/><path class="cls-2" d="M378.22,413.15a2.49,2.49,0,0,1-2.24-1.38c-1.91-3.83-1.8-11.58.35-24.41l.05-.33a2.5,2.5,0,0,1,4.93.83l-.05.33c-2.51,15-1.58,19.79-.81,21.34a2.49,2.49,0,0,1-2.23,3.62Z"/><path class="cls-2" d="M429.65,386.81a2.44,2.44,0,0,1-.95-.19c-.13-.05-13.8-5.64-21.17-8.09a2.5,2.5,0,1,1,1.59-4.75c7.51,2.51,20.91,8,21.48,8.21a2.51,2.51,0,0,1-1,4.82Z"/><path class="cls-2" d="M412.09,448.9a2.46,2.46,0,0,1-1.92-.9,2.49,2.49,0,0,1,.32-3.52c2.07-1.72,7.76-6.52,9.24-8,1.12-1.12,3.65-7,4.29-17.82.5-8.5,7.57-14,13.81-18.81a56.62,56.62,0,0,0,6.91-5.93,2.5,2.5,0,1,1,3.69,3.36,58.32,58.32,0,0,1-7.54,6.52c-5.66,4.39-11.51,8.92-11.88,15.15-.57,9.74-2.88,18.2-5.75,21.07-1.94,1.94-9.26,8-9.57,8.3A2.5,2.5,0,0,1,412.09,448.9Z"/><path class="cls-6" d="M655.24,174.18c0,14-7.6,18.61-21.15,18.61s-27.91-4.6-27.91-18.61,11-25.37,24.53-25.37S655.24,160.17,655.24,174.18Z"/><path class="cls-2" d="M634.09,195.29c-19,0-30.41-7.89-30.41-21.11,0-15.37,12.12-27.87,27-27.87s27,12.5,27,27.87C657.74,193.1,644.24,195.29,634.09,195.29Zm-3.38-44c-12.15,0-22,10.26-22,22.87,0,14.95,19.45,16.11,25.41,16.11,13.42,0,18.65-4.52,18.65-16.11C652.74,161.57,642.85,151.31,630.71,151.31Z"/><path class="cls-3" d="M578.3,165.41c1.88,0,28.85-13.8,36.38,1.26s5.64,27.59-8.16,22S578.3,165.41,578.3,165.41Z"/><path class="cls-2" d="M612.48,192.5a18.33,18.33,0,0,1-6.9-1.57C591.36,185.12,577,167.74,576.37,167a2.5,2.5,0,0,1-.33-2.66,2.47,2.47,0,0,1,2-1.41c.35-.1,1.34-.47,2.21-.8,8-3,29.4-11.15,36.68,3.42,5.31,10.62,6.09,19.95,2,24.33A8.4,8.4,0,0,1,612.48,192.5Zm-29.85-25.93c4.58,5.05,15,15.71,24.84,19.73,2.15.89,6,2.08,7.79.18,2-2.2,2-9-2.82-18.7C607.81,158.53,593.37,162.54,582.63,166.57Zm-4.33-3.66Z"/><path class="cls-6" d="M518.71,185.48c1.89-1.25-4.39-25.71,32.62-30.1,31.3-3.72,71.5,18.19,67.11,52.68s-25.09,66.49-58.33,56.45S518.71,185.48,518.71,185.48Z"/><path class="cls-2" d="M572.22,268.9a44,44,0,0,1-12.83-2c-14.61-4.41-26.32-19.5-34.81-44.87a202,202,0,0,1-8.35-36.25,2.47,2.47,0,0,1,.38-1.64c0-.36.1-1,.14-1.55.52-7.07,1.93-25.86,34.28-29.7,20.21-2.39,43.09,5.39,57,19.37,10.17,10.25,14.64,22.74,12.94,36.12C617.79,233,607.2,253.3,592.6,262.77A36.74,36.74,0,0,1,572.22,268.9ZM521.3,186c1,7.53,10.08,67.26,39.53,76.15,10.68,3.22,20.46,2,29-3.54,13.38-8.69,23.13-27.69,26.08-50.83,1.9-14.9-5.22-25.61-11.53-32-12.84-12.94-34.06-20.15-52.81-17.92-28.26,3.35-29.4,18.6-29.89,25.11A12.88,12.88,0,0,1,521.3,186Zm-4-2.57h0Z"/><path class="cls-1" d="M521.48,273.77A87.1,87.1,0,0,1,528,321.12l58.21-17.81s-21.29-45.61-7.82-77.75Z"/><path class="cls-2" d="M528,323.62a2.5,2.5,0,0,1-2.48-2.86,85.29,85.29,0,0,0-6.28-45.87,2.5,2.5,0,0,1,.63-3l56.9-48.22a2.5,2.5,0,0,1,3.92,2.87c-12.87,30.74,7.57,75.29,7.78,75.74a2.49,2.49,0,0,1-1.53,3.44l-58.21,17.81A2.31,2.31,0,0,1,528,323.62Zm-3.46-49.16A90.28,90.28,0,0,1,531,317.6l51.84-15.86a161.82,161.82,0,0,1-8-24.68c-4-16.88-4.48-31.6-1.51-43.91Z"/><path class="cls-1" d="M526.14,174.06s-13.07-2.38-23.36,23.36c-10.52,26.3-20.94,50.75-8.86,73.3s57.19,3.22,61.22-.81,22.55-45.91,21.75-62S562,168.55,526.14,174.06Z"/><path class="cls-2" d="M516,284a43,43,0,0,1-6.27-.43c-8.5-1.26-14.57-5.17-18-11.63-12.28-22.92-2.51-47.3,7.83-73.11l.92-2.3c9.93-24.84,22.9-25.18,25.63-25,20-3,32.32,3,39.13,8.53a38.85,38.85,0,0,1,14.16,27.7c.82,16.38-17.5,58.94-22.48,63.91C554,274.61,533.73,284,516,284Zm9.31-107.45c-2.11,0-12,1.17-20.22,21.84l-.92,2.3c-9.89,24.69-19.24,48-8.06,68.89,2.67,5,7.5,8,14.35,9,17.57,2.6,40.94-8.47,42.9-10.43,3.44-3.45,21.8-44.53,21-60.13a33.85,33.85,0,0,0-12.33-24.08c-8.69-7.08-21-9.65-35.54-7.41a2.62,2.62,0,0,1-.79,0A2.38,2.38,0,0,0,525.32,176.51Z"/><path class="cls-1" d="M563.21,229.89c1.15-2.68,11.9-18.09,19.25-9.38s-1.86,41.16-19.17,29.82"/><path class="cls-2" d="M570.34,255.2a15.38,15.38,0,0,1-8.42-2.78,2.5,2.5,0,1,1,2.74-4.18c4.62,3,8.56,2.58,12.05-1.35,6-6.77,7.41-20.54,3.84-24.76-1.53-1.81-2.91-1.84-3.82-1.71-4.78.71-10.45,8.66-11.22,10.46a2.5,2.5,0,1,1-4.59-2c1-2.43,7.74-12.34,15.08-13.43a8.85,8.85,0,0,1,8.37,3.43c5.54,6.56,3.49,22.95-3.92,31.3C577.51,253.52,574,255.2,570.34,255.2Z"/><path class="cls-2" d="M566.69,240.84a1.57,1.57,0,0,1-.85-.26,1.51,1.51,0,0,1-.38-2.09c1.06-1.55,6.62-9.22,11.22-8.91a4.34,4.34,0,0,1,3.62,2.71,1.5,1.5,0,0,1-2.69,1.33c-.5-1-1-1-1.15-1-2.16-.18-6.35,4.45-8.53,7.61A1.51,1.51,0,0,1,566.69,240.84Z"/><path class="cls-2" d="M575.78,243.13a1.41,1.41,0,0,1-.45-.07,1.5,1.5,0,0,1-1-1.88,3.66,3.66,0,0,0-.15-3.26c-.89-1.28-3.07-1.65-3.83-1.69a1.5,1.5,0,0,1,.13-3c.42,0,4.24.25,6.15,3a6.42,6.42,0,0,1,.56,5.89A1.5,1.5,0,0,1,575.78,243.13Z"/><g id="Front_Smile3" data-name="Front Smile3"><path class="cls-2" d="M539.15,207.83a2.6,2.6,0,0,1-1-.2,42.33,42.33,0,0,0-18.61-3,2.5,2.5,0,0,1-.51-5A46.94,46.94,0,0,1,540.14,203a2.5,2.5,0,0,1-1,4.8Z"/><path class="cls-2" d="M525.57,218.66A3.41,3.41,0,1,1,524,214.1,3.41,3.41,0,0,1,525.57,218.66Z"/><path class="cls-7" d="M539,234.76a6.68,6.68,0,1,1-3-8.95A6.69,6.69,0,0,1,539,234.76Z"/><path class="cls-2" d="M506.11,254.81a26.16,26.16,0,0,1-4.7-.43,26.81,26.81,0,0,1-14-7.36,1.5,1.5,0,0,1,2.12-2.12,23.46,23.46,0,0,0,25,5.35,1.5,1.5,0,0,1,1.07,2.8A26.71,26.71,0,0,1,506.11,254.81Z"/><path class="cls-2" d="M517.62,254.73a1.52,1.52,0,0,1-1.14-.52l-3.56-4.13a1.5,1.5,0,0,1,2.27-2l3.56,4.13a1.49,1.49,0,0,1-1.13,2.48Z"/><path class="cls-1" d="M505,207.54c-.55.74-16.06,16.1-16.42,17.32-1.5,4.94,1.18,8.19,7,7.56"/><path class="cls-2" d="M494.21,235c-3,0-5.44-1-7-2.81-1.68-2-2.07-4.88-1.12-8.06.31-1,.92-1.91,13-14.2,1.75-1.77,3.55-3.6,3.86-4A2.5,2.5,0,0,1,507,209c-.24.32-.76.86-4.24,4.4s-10.62,10.78-11.87,12.43c-.24.91-.44,2.3.26,3.14s2.2,1.14,4.19.93a2.5,2.5,0,0,1,.53,5A14.89,14.89,0,0,1,494.21,235Z"/><path class="cls-7" d="M503.38,227.22a.91.91,0,1,1-.18-1.27A.91.91,0,0,1,503.38,227.22Z"/><path class="cls-7" d="M503.52,232.33a1.29,1.29,0,1,1-.26-1.8A1.29,1.29,0,0,1,503.52,232.33Z"/><path class="cls-7" d="M495.36,221s-9.52,6.67-2.11,10.09C500.87,234.64,505.4,221.75,495.36,221Z"/></g><path class="cls-1" d="M417.35,268.46c.31-4.67-2.18-49.83-.31-58.86.9-4.34,2.3-6.74,4-8.23,1.18-1.07,1.42-.63,6-3,4.05-2.09,4.54-2.72,6.54-3.12,2.52-.49,2.64.33,5.6,0,4.31-.48,4.64-2.29,7.79-2.18s3.24,1.77,6.54,1.87c3.14.09,3-1.42,5.92-1.25a15.16,15.16,0,0,1,8.72,4c.11.13.19.27.38.31,1.29.29,3.43-5.39,7.09-3.42,4.05,2.18-1.87,16.82-3.73,23.36s-3.74,10.9-4.36,13.39-16.2,10.9-18.07,17.75-1.87,23.67-1.87,23.67Z"/><path class="cls-2" d="M447.56,275.32a2.07,2.07,0,0,1-.35,0L417,270.93a2.48,2.48,0,0,1-2.14-2.64c.09-1.35-.1-7.18-.33-13.94-.67-20.44-1.17-39.29.06-45.26.93-4.46,2.43-7.51,4.75-9.58a7.22,7.22,0,0,1,2.54-1.5,40.52,40.52,0,0,0,4-1.85c1.32-.67,2.25-1.19,3-1.6a12.81,12.81,0,0,1,4.24-1.74,9,9,0,0,1,3.54-.07,8,8,0,0,0,2.27,0,9.16,9.16,0,0,0,3.49-1.07,8.92,8.92,0,0,1,4.66-1.13,8.78,8.78,0,0,1,4.17,1.19,4.5,4.5,0,0,0,2.35.68,3.27,3.27,0,0,0,1.91-.41,7.39,7.39,0,0,1,4.09-.83,18,18,0,0,1,9,3.6c1.42-1.57,4.33-4.46,8.21-2.37,4.74,2.55,2.53,10.65-1.12,21.81-.54,1.66-1.05,3.22-1.4,4.43-1.08,3.78-2.14,6.8-3,9.22-.61,1.75-1.1,3.13-1.34,4.1-.43,1.73-2.2,3.11-6.5,6.36s-10.64,8-11.58,11.44c-1.76,6.45-1.78,22.85-1.78,23a2.49,2.49,0,0,1-2.5,2.5Zm-27.68-9,25.21,3.64c.09-5.2.46-16.05,1.93-21.45,1.39-5.08,8-10.09,13.39-14.12a42.68,42.68,0,0,0,4.73-3.84c.3-1.15.8-2.55,1.41-4.28.83-2.36,1.86-5.3,2.9-8.93.37-1.3.9-2.91,1.45-4.61,1.25-3.81,4.54-13.87,3.4-15.91-.36-.16-.76-.05-2.24,1.63-1,1.11-2.22,2.5-4.11,2.08a3.1,3.1,0,0,1-1.7-1.08,12.75,12.75,0,0,0-7-3.22,2.6,2.6,0,0,0-1.64.35,8.11,8.11,0,0,1-4.2.9,9.44,9.44,0,0,1-4.53-1.25,4,4,0,0,0-4.31,0,14.1,14.1,0,0,1-5.14,1.55,12.58,12.58,0,0,1-3.54-.07,4.51,4.51,0,0,0-1.86,0,8.21,8.21,0,0,0-2.75,1.2c-.77.43-1.75,1-3.13,1.69-2.3,1.18-3.55,1.69-4.38,2s-.81.33-1.09.59c-1.46,1.3-2.5,3.55-3.19,6.87-1.22,5.88-.43,29.8,0,44.09C419.72,259.86,419.85,263.86,419.88,266.3Z"/><path class="cls-2" d="M465.32,222.69l-.32,0a2.5,2.5,0,0,1-2.17-2.79l2.81-22.43a2.5,2.5,0,1,1,5,.62l-2.8,22.43A2.51,2.51,0,0,1,465.32,222.69Z"/><path class="cls-5" d="M506.17,332.88c-2.69,1.61,20.07-29.48,43.9-35.75s50.81-19.45,50.81-19.45,7.52,23.84,5.64,23.84S546.94,308.42,506.17,332.88Z"/><path class="cls-2" d="M506,335.44a2.55,2.55,0,0,1-1.44-.45,2.62,2.62,0,0,1-1.07-2.61c.54-3.11,22.48-31.5,46-37.67,23.31-6.14,50.07-19.14,50.34-19.27a2.5,2.5,0,0,1,3.48,1.49c7.37,23.34,6.26,24.86,5.45,26a2.7,2.7,0,0,1-2.19,1.12c-.46,0-58.27,6.52-99.06,31h0A2.85,2.85,0,0,1,506,335.44Zm-1.11-4.71h0Zm94.46-49.55c-7.41,3.45-29.16,13.24-48.64,18.36-14.07,3.71-28.07,16.85-36,25.75,35.92-18.26,79-24.69,89.43-26C603.62,295.93,601.53,288.32,599.35,281.18ZM606.52,299a2.42,2.42,0,0,0-.47,0Z"/><path class="cls-2" d="M590.21,487.79a2.51,2.51,0,0,1-2.14-3.79c3-5,1.31-9-1.22-15.12a63.17,63.17,0,0,1-4.11-12.6,2.5,2.5,0,1,1,4.91-.94A58.44,58.44,0,0,0,591.47,467c2.66,6.42,5.17,12.49.89,19.62A2.5,2.5,0,0,1,590.21,487.79Z"/><path class="cls-2" d="M579.56,470.23a2.51,2.51,0,0,1-2.26-1.42c-3-6.23-6.87-13.59-8-14.76a2.5,2.5,0,0,1,2.88-4.08c1.63,1.08,4.87,6.69,9.65,16.68a2.5,2.5,0,0,1-1.18,3.33A2.43,2.43,0,0,1,579.56,470.23Zm-10.24-16.15.07.05Z"/><path class="cls-5" d="M437.8,422.57c3.14,1.88,26.35,13.17,26.35,10s46.41-87.81,46.41-87.81Z"/><path class="cls-2" d="M463.33,435.67c-1.77,0-5.25-.87-13.3-4.4-5.86-2.57-11.92-5.6-13.51-6.56a2.5,2.5,0,0,1-.54-3.85l72.75-77.77a2.5,2.5,0,0,1,4,2.91c-17.82,32.51-44.66,82.23-46.12,86.92a2.93,2.93,0,0,1-1.49,2.27A3.15,3.15,0,0,1,463.33,435.67ZM466.6,433Zm0-.41h0Zm-24.8-10.69c5.56,2.82,16.44,7.79,20.37,8.62,1.4-3.44,6.24-13.18,22.93-44.19,4.86-9,9.75-18,13.78-25.46Z"/><path class="cls-4" d="M584.57,442.64C570.77,446.4,464.15,418.8,456,406.89s-57.7-84.68-60.84-93.46,3.77-13.17,8.78-19.44,5-30.11,6.9-34.5,37-.62,39.52-.62c0,0,5,20.07,10,31.36s16.94,28.22,16.94,28.22l6.27,15.05s16.93,2.51,25.09-1.25"/><path class="cls-2" d="M580.87,445.48c-13.44,0-45-7.47-63.36-12.42-13.41-3.62-57.64-16.08-63.58-24.76s-57.73-84.52-61.13-94c-3-8.4,1.83-13.67,6.09-18.31,1-1.14,2.12-2.32,3.09-3.53,2.74-3.42,3.94-14.89,4.73-22.48.63-6.06,1-9.59,1.83-11.44,1.5-3.5,7.8-4.84,38.09-2.41,1.74.14,3.38.27,3.72.27a2.48,2.48,0,0,1,2.42,1.89c.05.2,5,20,9.9,30.95s16.57,27.64,16.69,27.8a2.27,2.27,0,0,1,.27.48l5.72,13.73c5.37.64,16.7,1.34,22.28-1.24a2.5,2.5,0,0,1,2.1,4.54c-8.73,4-25.78,1.56-26.51,1.46a2.51,2.51,0,0,1-1.94-1.51l-6.17-14.81c-1.49-2.14-12.21-17.61-17-28.42-4.23-9.51-8.37-24.79-9.72-30l-2.14-.17c-24-1.92-31.37-1.24-33.23-.27a79,79,0,0,0-1.33,9.66c-1.21,11.63-2.41,20.85-5.79,25.08-1.08,1.35-2.22,2.59-3.32,3.79-4.5,4.91-7,7.94-5.06,13.25,2.4,6.73,37.52,59.24,60.55,92.89,2.58,3.77,22.69,12.5,60.76,22.75,31.28,8.43,59.27,13.59,65.09,12a2.5,2.5,0,0,1,1.32,4.82A17.63,17.63,0,0,1,580.87,445.48Z"/><path class="cls-2" d="M515.2,408.65c-23.68,0-45.32-2.14-50.78-4.48a2.5,2.5,0,1,1,2-4.6c7.92,3.4,68.29,7.49,100.63-.75a2.5,2.5,0,0,1,1.23,4.85C554,407.31,533.94,408.65,515.2,408.65Z"/><path class="cls-2" d="M550.47,382.05c-1.89,0-3.78-.09-5.66-.27a2.5,2.5,0,0,1,.49-5c26.14,2.57,54.68-15.35,66.87-23,2.36-1.48,4.06-2.55,5.15-3.1a2.5,2.5,0,1,1,2.24,4.47c-.88.44-2.58,1.51-4.73,2.86C603.06,365.43,576.56,382.05,550.47,382.05Z"/><path class="cls-2" d="M403.93,296.49a2.5,2.5,0,0,1-.11-5c12.69-.6,28.7-5.48,28.86-5.53a2.5,2.5,0,0,1,1.47,4.78c-.68.2-16.76,5.11-30.1,5.75Z"/><path class="cls-4" d="M577,526.68s-8.78,39.52-9.4,61.47-19.45,85.93-19.45,85.93c-6.27-24.46,4.39-137.36,4.39-137.36s-30.73,35.75-34.49,36.38S488,539.23,488,539.23l-40.14,4.39s-39.51-20.07-39.51-36.38-2.51-43.9-2.51-43.9q.62-8.16,1.25-16.31l37,3.14Q502.52,480.68,562,517.28,569.56,522,577,526.68Z"/><path class="cls-2" d="M548.19,676.58h0a2.5,2.5,0,0,1-2.38-1.88c-5.41-21.12,1.33-104.4,3.63-130.5-2.94,3.35-6.83,7.76-10.8,12.15-16.89,18.68-18.82,19-20.1,19.21-1.77.3-3.77.63-18.81-17.57-5.52-6.69-10.81-13.5-12.83-16.12l-38.75,4.24a2.51,2.51,0,0,1-1.4-.26c-4.19-2.13-40.89-21.27-40.89-38.61,0-16-2.47-43.4-2.49-43.68a2,2,0,0,1,0-.42l1.26-16.3a2.5,2.5,0,0,1,2.7-2.3l37,3.13a2.56,2.56,0,0,1,.94.28c40,20.89,79.76,43.5,118.08,67.2,5,3.11,10.09,6.28,15.07,9.42a2.5,2.5,0,0,1,1.1,2.66c-.08.39-8.73,39.53-9.34,61-.63,22-18.78,83.94-19.55,86.56A2.5,2.5,0,0,1,548.19,676.58Zm4.39-142.36a2.56,2.56,0,0,1,1,.2,2.51,2.51,0,0,1,1.51,2.54c-.09,1-8.23,88-6,124.76,5.4-19.44,15.58-57.9,16-73.64.56-19.59,7.38-52.28,9.09-60.22-4.49-2.82-9-5.67-13.55-8.46-38.08-23.54-77.55-46-117.32-66.79l-34-2.88-1.05,13.59c.24,2.6,2.5,28.44,2.5,43.92,0,11.87,26.45,28.09,37.49,33.81l39.4-4.31a2.53,2.53,0,0,1,2.26,1c11.08,14.52,24.13,30.15,27.93,32.68,4-2.81,19.35-19.67,32.79-35.3A2.5,2.5,0,0,1,552.58,534.22Zm-35.21,36.5Z"/><path class="cls-2" d="M438.43,493.43a2.48,2.48,0,0,1-1.12-.26c-5.49-2.75-10.19-12.08-14.9-22.22-.72-1.54-1.35-2.9-1.9-4a2.5,2.5,0,0,1,4.48-2.23c.56,1.11,1.21,2.53,1.95,4.11,3.07,6.61,8.22,17.66,12.61,19.86a2.5,2.5,0,0,1-1.12,4.73Z"/><path class="cls-2" d="M490.49,514.13h-.25a2.5,2.5,0,0,1-2.24-2.74,59.44,59.44,0,0,0-.64-17.14,37.93,37.93,0,0,1-.63-5.82,2.5,2.5,0,0,1,5,0,34.52,34.52,0,0,0,.57,5,65.09,65.09,0,0,1,.68,18.42A2.5,2.5,0,0,1,490.49,514.13Z"/><path class="cls-5" d="M459.13,450.79s103.49,37.64,109.13,44.53S587.71,516,587.71,516l-12.55,18.82s-33.24-24.46-36.38-27-48.29-23.21-50.17-23.21S459.13,450.79,459.13,450.79Z"/><path class="cls-2" d="M575.16,537.34a2.48,2.48,0,0,1-1.48-.49c-1.36-1-33.32-24.52-36.46-27-2.64-2-44.48-21.42-48.89-22.67-1.47-.13-4.58-2.18-31.14-34.78a2.5,2.5,0,0,1,2.79-3.93c17.39,6.33,104.43,38.23,110.22,45.3,5.5,6.72,19.14,20.38,19.27,20.52a2.49,2.49,0,0,1,.32,3.15l-12.55,18.82a2.52,2.52,0,0,1-1.64,1.07A2.18,2.18,0,0,1,575.16,537.34Zm-85.64-55c1.76.51,7,2.55,24.75,10.72,5.53,2.55,23.74,11,26.08,12.87,2.6,2.08,26.82,19.93,34.19,25.35l10-14.93c-3.71-3.75-13.53-13.77-18.16-19.43-3.52-4-52.34-23.32-99.47-40.63C477.18,468.78,487.35,480.65,489.52,482.33Zm-.91,4.83h0Zm-.4,0Zm.55-4.95a3.5,3.5,0,0,1,.56.1A2.57,2.57,0,0,0,488.76,482.17Z"/><path class="cls-5" d="M481.71,442.64s-13.8,18.19-13.8,20.07,18.19,19.44,20.7,22S513.7,464,513.7,464Z"/><path class="cls-2" d="M489.15,487.35a3.25,3.25,0,0,1-2.31-.92l-1.78-1.75c-19.65-19.29-19.65-20.42-19.65-22,0-.88,0-2.72,14.31-21.58a2.51,2.51,0,0,1,3.38-.57l32,21.32a2.51,2.51,0,0,1,.41,3.83c0,.05-5.18,5.32-10.77,10.52-11.92,11.1-14.28,11.11-15.55,11.12Zm-18.5-24.79c1.29,1.74,5.63,6.49,17.92,18.55l1,1c3.15-1.53,12.21-9.74,20.18-17.76L482.28,446C477.17,452.83,472,460.05,470.65,462.56Zm-.31.65Z"/><path class="cls-5" d="M494.25,481.53s25.09,42,27.6,59,12.54,67.74,27.6,96.59,45.16,59.59,47,59.59S577,663.42,570.15,644s-13.8-79.65-23.21-99.1-18.19-53.94-21.33-56.44-15.68-20.7-15.68-20.7Z"/><path class="cls-2" d="M596.49,699.16c-1,0-1.83,0-7.8-6-3.8-3.81-8.3-8.73-12.68-13.86-7-8.25-20.16-24.56-28.78-41.08-15.38-29.48-25.32-80.29-27.85-97.38-2.41-16.25-27-57.63-27.27-58a2.5,2.5,0,0,1,.49-3.16l15.68-13.8a2.5,2.5,0,0,1,2-.6,2.45,2.45,0,0,1,1.75,1.06c4.77,6.91,13.11,18.5,15.18,20.16,1.89,1.51,3.61,6.34,8.41,20.89,3.87,11.68,8.67,26.23,13.61,36.43,5.51,11.39,10,35.39,14.33,58.6,3.13,16.75,6.09,32.58,9,40.75,4,11.32,13.31,27.92,19.45,38.91,7.55,13.5,7.8,14.09,6.79,15.82A2.61,2.61,0,0,1,596.49,699.16ZM497.46,482c4.88,8.33,24.58,42.67,26.86,58.08,2.33,15.72,12.36,67.07,27.34,95.8,9.86,18.89,26,38.21,36.3,49.24-.12-.22-.25-.44-.37-.67-6.6-11.8-15.64-28-19.8-39.68-3-8.53-6-24.55-9.19-41.51-4.07-21.81-8.69-46.54-13.91-57.34-5.08-10.49-9.94-25.21-13.85-37-2.66-8-5.67-17.14-6.87-18.62-2.82-2.35-10.77-13.52-14.49-18.85ZM524,490.36l0,0Z"/></g></svg>