<svg xmlns="http://www.w3.org/2000/svg" viewBox="0 0 2000 2000"><g data-name="Taekwondo Fighter"><path fill="#ff83df" d="M1556.77,426.56c-1.72,1.27-15.69,11.23-33.68,6.4-18.31-4.91-25.36-21-26.15-22.92l32.82-73.38,36.47,10.07Z"/><path fill="#ff59cf" d="M1562.35,360l3.43-9.47-37.59-10.37q-7.89,17.67-15.8,35.34a34.48,34.48,0,0,0,18,5C1550.33,380.22,1561.58,361.33,1562.35,360Z"/><circle cx="1555.67" cy="305.51" r="44.97" fill="#ff83df"/><path fill="#ff83df" d="M1514,288.7c-3,8.12-5.54,15.15-7.44,20.68-5.49,15.93-6.44,20.33-6.31,25.73.08,3.51.24,10.28,3.74,16.5,8.31,14.74,31,18.39,46.88,15.39,17.2-3.24,27.93-14.53,32-19.41,0,0,2.44-3,14.38-25.22C1547.33,302.13,1566.46,309.86,1514,288.7Z"/><path fill="#fff3ff" d="M1495.17,396.5a627.75,627.75,0,0,0-170.64-40.42c-37.46-3.42-251.81-25.61-295.1,64.66-14.21,29.63-4.94,60.84-3.78,64.55,14.54,46.57,67.46,68.12,108.82,85a343.7,343.7,0,0,0,81.08,21.93Z"/><path fill="#fff3ff" d="M1548.94,413.91c39.22,20,73.1,49.19,95.49,87.71,45.57,78.44,125.42,350.67,60,401.32-25,19.41-61.07,27.3-95.56,18.72-152.8-38-232.18-290-246.92-338.89Z"/><path fill="#ff83df" d="M1191.21,699.62c-9.19,86.68-16.84,159.43-22.47,213.15-19.38,185-30.82,237.2-26.65,324.67,3.58,75,15.11,126.54,35.64,216.18,23.1,100.86,61.51,239.41,127.92,400.86h93.78l-68.91-579q41.49-201.39,83-402.79Z"/><path fill="#ff83df" d="M1190.86,656.63C982.57,459.9,726.79,297.3,430.72,187.31L379,247,801.05,584.27l406,441.9,84.63-299.59Z"/><path fill="#fff3ff" d="M1198.7,656.63c-23.45-27.82-56.43-65-98.32-106.49-61.59-61-140.15-138.76-258.64-207.54C755.51,292.54,660,253.47,569.55,217.87L449.92,396.5l351,251.55s375.19,435.1,376.8,420.61,84-226.78,84-226.78Z"/><path fill="#fff3ff" d="M1158.35,790.08c-19.38,57.86-32.26,107.45-40.79,144.39-16.55,71.63-35.77,157.21-34.36,266.23,2,152.42,57.71,392.91,100.91,547.5L1445,1730.48l-83-487.1,51.5-380.81Z"/><path fill="#ff83df" d="M1382.18,1816.63l62.8,127.22H1234s-.3-14.5,43.33-33.82,22.7-69.27,22.7-69.27Z"/><path fill="#ff83df" d="M404,254.57l-42.53,3.73a24.83,24.83,0,0,1-26.43-19.14c-4.37-19.31-14-49.94-35.19-83.91C264.22,98,268,58.16,268,58.16s17.07-9.1,44,29.59S445.93,195.08,445.93,195.08Z"/><path fill="#fff3ff" d="M1495.17,396.5s-194.6,129.28-255.94,137.17-53.44,62-53.44,62l-27.21,15.23s-73-129.2-106.41-146.92-50.33-6.55-50.33-6.55,58.83,36.44,41.83,117.4,63.16,189.69,63.16,189.69l96.57-7.9S1153,865.89,1179.1,932.09s-13.36,122.69-13.36,122.69l213.86,58.31-4.79,35.4c61.57-92.43,80.73-201,60.87-307.18q8.31-21.6,16.61-43.21c7.85,3.18,21.2,7.14,34.13,2.2,22.72-8.69,30.45-39.65,34.7-60.8,18.35-91.3,32.13-299.67,33.62-322.54Z"/><path fill="#570b7f" d="M1185.79,595.62s143.08,165.67,266.5,202.48c0,0,5.59,21.95-16.61,43.21,0,0-180.24-5.32-277.1-230.46C1158.58,610.85,1168.78,596.23,1185.79,595.62Z"/><path fill="#570b7f" d="M1291.73,726.58c-23.47-12.34-63-28.74-113.44-29.7-111.1-2.12-185,72.35-199.61,87.63l35.23,71.67s133.87-152.49,277.82-83.68Z"/><path fill="#570b7f" d="M1077.29,718.54a2,2,0,0,1-1.75-1c-.42-.75-41.72-76.24-31.8-155.37,9.66-77.06-42.24-102.71-42.76-103a2,2,0,1,1,1.72-3.61c.55.26,55,27.17,45,107.07-9.76,77.84,30.92,152.19,31.33,152.93A2,2,0,0,1,1077.29,718.54Z"/><path fill="#570b7f" d="M1374.81,1150.49a2,2,0,0,1-2-2.26l4.55-33.67-212.16-57.85a2,2,0,0,1-.61-3.58c.09-.06,10-7.23,15.21-27.82,4.87-19.17,6.56-54.14-13-111.9-20-59.26-9.39-99.17,3.08-122.22,13.57-25.07,31.69-35.9,32.46-36.34a2,2,0,1,1,2,3.44c-.71.43-71.13,43.41-33.78,153.84,32.7,96.64,8.27,132.44-.79,141.69l210.29,57.34a2,2,0,0,1,1.45,2.2l-4.79,35.4A2,2,0,0,1,1374.81,1150.49Z"/><path fill="#570b7f" d="M1291.73,726.58s-109.57,37.28-13.31,185.47-45.24,199.17,0,365l121.76-34.6s-68.63-131.7-13.3-240.64-142-137.13-67.37-250.1Z"/><path fill="#fff3ff" d="M1248.17,760a2,2,0,0,1-1.87-2.12,44.78,44.78,0,0,1,23-36.47,69.84,69.84,0,0,0-58.73-19.81,2,2,0,0,1-1.92-3.1,49.58,49.58,0,0,1,69.82-13,2,2,0,1,1-2.28,3.28,45.49,45.49,0,0,0-61.53,8.35,73.82,73.82,0,0,1,59.41,23.43,2,2,0,0,1-.61,3.17,40.81,40.81,0,0,0-23.2,34.37A2,2,0,0,1,1248.17,760Z"/><path fill="#570b7f" d="M1103.06,1002.54a2,2,0,0,1-1.94-2.47L1135.81,856l-2.6-60.45a2,2,0,0,1,1.91-2.09,2,2,0,0,1,2.09,1.92c2.77,64.4,2.66,60.84,2.55,61.28L1105,1001A2,2,0,0,1,1103.06,1002.54Z"/><path fill="#fff3ff" d="M1303.84,789.3a2,2,0,0,1-1.81-2.86c1.76-4.13,16.76-40.83,6.69-66.74-3.55-1.65-20.46-8.5-34.78,3.77a2,2,0,0,1-2.61-3c17.82-15.27,39.68-4.07,39.89-4a2,2,0,0,1,.92,1c11.24,27.45-4.58,66.2-6.42,70.53h0A2,2,0,0,1,1303.84,789.3Z"/><path fill="#ff83df" d="M1476.1,389.42,1374.67,582.87s130.06-47.06,211.4-145.81A259,259,0,0,0,1476.1,389.42Z"/><path fill="#570b7f" d="M1492.33,392.85l-36.83-10.33L1320.82,626.39s73.73-14,159.55-66,121.91-110.2,121.91-110.2L1576,429.89s-124.19,121.22-191.2,144.89Z"/><path fill="#570b7f" d="M1566.23,675.28a2,2,0,0,1-1.79-2.88c27.34-56.08,49.32-86.32,49.53-86.62a2,2,0,0,1,3.23,2.36c-.21.3-22,30.29-49.17,86A2,2,0,0,1,1566.23,675.28Z"/><path fill="#570b7f" d="M1471.15,807.32a31.64,31.64,0,0,1-20.23-7.76,2,2,0,0,1,2.73-2.92c.1.09,9.67,8.84,22.54,6.16,13.73-2.86,26.23-17,37.14-42.17a2,2,0,0,1,3.68,1.6C1508.16,782.58,1493.24,807.32,1471.15,807.32Z"/><path fill="#ff83df" d="M1532.33,835.16s-37.62-59.37-62.16-132.27c0,0-21.47-6.3-36.42-62.22,0,0-17.59-.88-19-14.28s15-46.48,24.16-55.58,38.57-12.07,59.78-9.9,51.57,96.1,51.57,96.1l89.19,90.51Z"/><path fill="#fff3ff" d="M1629.45,737.42,1481.87,868.63s115.7,133.19,199.21,83.9S1718,722.28,1718,722.28Z"/><path fill="#570b7f" d="M1516.81,808.3s-56.2,50.3-34.94,60.33S1639.17,743.51,1644,730.45s-21.45,0-21.45,0l4.14,3.95a434,434,0,0,1-103.55,83.51Z"/><path fill="#fff3ff" d="M1248.75,491.77l-81.59,104.37c-31.58-14.66-74.93-39.23-103.86-75.22-4.86-6-8.2-11.39-8.77-18.47-3.26-40.13,90.56-74.66,90.56-74.66l93.75,17.82Z"/><path fill="#570b7f" d="M1216.76,544c-8,10.28-43.79,55.94-49.6,52.14-4.24-2.77,7.73-31.69,23.82-55.55,25.61-38,62.63-64.5,67.08-60.36C1263.05,484.86,1228.43,529.09,1216.76,544Z"/><path fill="#ff83df" d="M1241.36,513a55.35,55.35,0,0,1,28.5.67c12.76,3.85,13.58,9.55,38.26,35.22.91,1,2.94,3.19,2.63,5.57-.6,4.55-8.7,6.58-8.7,6.58s24.29,10.93,4.25,34.62-22.75,27.94-37.94,34-76.24-49.19-76.24-49.19L1182,576a171.41,171.41,0,0,1,52.6-73.48Z"/><path fill="#570b7f" d="M1141.24,583.35a2,2,0,0,1-1.68-.91c-.4-.62-40.43-62.28-65-95.09-23.94-32-52.53-31.3-52.88-31.28a2,2,0,0,1-2.07-1.92,2,2,0,0,1,1.91-2.07c1.23-.07,31-.83,56.24,32.87,24.65,32.92,64.74,94.69,65.15,95.31A2,2,0,0,1,1141.24,583.35Z"/><path fill="#570b7f" d="M1256.6,481.6c-.65-.7-66.66-69.94-143.73-83.13a2,2,0,1,1,.67-3.94c72.79,12.45,135.67,73.86,144.83,83.15,47-29.3,82.43-78.29,82.79-78.79a2,2,0,0,1,3.25,2.33c-.36.51-36.93,51.08-85.31,80.71A2,2,0,0,1,1256.6,481.6Z"/><path fill="#570b7f" d="M1497.42,483.47c-3.1,6.59-12.11,7.27-15.19-.37,1.92-1,3.89-2.73,3.94-4.92.13-5.08-9.85-6-8.39,3.51-3.42.59-7.06-1.85-8.34-5.28,3.68-.31,8.3-3.5,5.84-7.63-2.61-4.39-9.65-2-10.35,3.65-4.5-2.94-4.68-9.74-.72-13.47,1.6-1.51-2.19-2.73-3.46-1.54-6,5.67-4.18,15.59,4.35,18.43,1.37,5.89,7.06,9.62,13.5,8.51,4.3,9.26,18.3,9.39,22.71,0C1502.16,482.53,1498.18,481.84,1497.42,483.47Zm-25.72-13.32c.9,2.16-.92,3.16-2.78,3.35a7,7,0,0,1,.2-1.65C1469.38,470.86,1470.89,468.2,1471.7,470.15Z"/><path fill="#570b7f" d="M1463.8,511.83c-3.42,3-9.56,2.46-11.55-3.51,6.29.5,9.67-5.64,6.11-9.28-3.11-3.17-9.06-1.6-10.38,4.11a12.24,12.24,0,0,1-2.39-13.31c.82-1.85-3.17-2.53-3.89-.88-2.64,6.05-.81,14.36,6.15,18,1.43,9.53,12.82,12.23,19.41,6.39C1468.51,512.26,1465.79,510.07,1463.8,511.83Zm-10.16-11.12c.58-.49.86-.61,1.3-.22,2,1.76.21,5.65-3.17,5A6.18,6.18,0,0,1,1453.64,500.71Z"/><path fill="#570b7f" d="M1442.4,532.86c-1.13,4.5-6,6.75-9.27,2.92,4.84-1.18,6.18-6.54,2.47-8.86-3.23-2-7.57.06-8,4.35-3-3.69-1.07-9.17,1.14-13.37.92-1.77-3.06-2.48-3.9-.88-2.47,4.71-4.4,10.8-.87,15.54a9,9,0,0,0,4.71,3.11c4.53,7.76,15.75,5.46,17.6-1.93C1446.83,531.6,1442.78,531.38,1442.4,532.86ZM1433,529c.26.06.57.71.64,1a2.68,2.68,0,0,1-1.83,3.13A3.88,3.88,0,0,1,1433,529Z"/><path fill="#570b7f" d="M1583.25,328.33s-15.64-9.66-6.13-24.64,9.89-24.09-3.66-25.1-22.82.81-27.87-7.29-27.18,9-27.18,9c2.35-5.05,7.65-14.43,18.14-20.65,20.31-12,43.3-2.28,50.29.69,3.64,1.54,28.83,12.6,35.63,34,8.65,27.24-13.79,67.15-60.24,86.14C1562.23,380.52,1545,339.82,1583.25,328.33Z"/><ellipse cx="1583.25" cy="334.03" fill="#ff83df" rx="20.81" ry="16.01" transform="rotate(-46.22 1583.19 334.05)"/><path fill="#570b7f" d="M1576.67,341.67c-2.87,0-4.86-1.89-5.2-5a2,2,0,0,1,4-.43c.14,1.31.64,1.42,1.27,1.39,2.56,0,5.79-3.13,4.87-4.05-.62-.63-2.58-.86-3.77-.8a2,2,0,0,1-1.6-3.35c12.8-14.09,21.46-6.37,16,3.75a2,2,0,1,1-3.52-1.89c.55-1,1.52-3.58,1-4.9-.88-2.38-5.77,1.28-7.71,2.95C1589.82,332.08,1584,341.67,1576.67,341.67Z"/><path fill="#570b7f" d="M1581.68,311.28a67,67,0,0,0-14,6.28c-12.82,7.63-13.88,14.14-20.25,14.37-9.7.35-12.24-14.56-23.79-14.76-8.84-.14-17.75,9.84-18.73-3,0,0-18.92,19.32-14.06,36.3,6.62,23.15,40,29.05,55,17.2,8.7-6.87,3.38-14.09,16.67-33.63,7.18-10.55,15.66-18,29.46-20.15Z"/><path fill="#fff3ff" d="M1512.39,334s10.45,5,20.19,2.63c-2.49,5.45-8.4,8-13.26,6.41A10.8,10.8,0,0,1,1512.39,334Z"/></g></svg>